<svg id="Layer_1" data-name="Layer 1" xmlns="http://www.w3.org/2000/svg" viewBox="0 0 796.36 787.37"><title>Daffodil</title><path d="M265.23,451.93c.26-3.48.57-6.28.65-9.08.38-14.89.64-29.74,4.25-44.37,2.66-10.81,3.88-22,6.78-32.73,1.91-7.07,5.6-13.67,8.58-20.44,3.59-8.16,7.16-16.33,11-24.4s7.32-16.29,12-23.85c3.1-5.06,8.08-8.94,12-13.55,8.92-10.58,17.6-21.35,26.6-31.85,1.61-1.88,4.38-2.72,6.4-4.31,2.45-1.92,4.66-4.13,7-6.22,3.1-2.79,6.06-5.76,9.33-8.33,6.26-4.93,10.19-16.44,7.75-24.89l2.12-2c14.12,4.87,25.12,13.62,35.75,22.65C427.5,239,436,252.34,443.44,266.42c3.47,6.59,7.37,13,10.72,19.62,8.11,16,16,32.2,24,48.32,5.51,11.11,11,22.22,16.64,33.5,9.57-6.82,16.89-15.53,26.43-21.53l10.88-6.11c1.52-.86,3-1.75,4.54-2.59,14.26-7.86,28.6-15.58,42.76-23.6,11.41-6.46,23.09-10.74,36.51-12,10.46-1,20.9-2.88,31.48-2.84,3.36,0,6.71,1,11.23,1.75,1,8,2,15.82,2.82,22.58,9.24,4,18,7.44,26.41,11.55a13,13,0,0,1,5.68,6.46c3,7.47,5.29,15,4.21,23.5-1.75,13.76-3.43,27.69-3.14,41.51s-4.47,25.89-8.59,38.22c-3.65,10.91-11.14,19.94-18.61,28.76a159.17,159.17,0,0,0-12.83,17.78c-4.47,7.07-8.35,14.5-12.45,21.79-.57,1-1,2.11-1.69,3.74,2,.58,3.67,1,5.29,1.53,11.16,3.79,22.42,7.32,33.44,11.5,14.49,5.49,28.84,11.35,43.12,17.38,3.56,1.51,6.51,4.41,9.89,6.42,6.53,3.89,13.83,6.8,19.64,11.53,17.49,14.24,35,28.68,42,51.57,2.39,7.81,5.28,15.48,8.32,24.31,2.56,4.45,12.54,2.28,13.42,11.81-2.49,1.42-4.9,3-7.46,4.22a16.16,16.16,0,0,0-9.26,12c-1.74,10.63-9.26,17.5-15.14,25.43-10.5,14.17-25.68,22.72-40.14,31.92-8.14,5.17-17.27,8.82-26,13-10.67,5.05-21.46,9.88-32.16,14.87-15,7-30.94,10.86-46.92,14.74-13.31,3.22-26.48,7-39.78,10.55.37,4.82,1.1,9,.92,13.08-.46,10.24-1.31,20.46-2.07,30.68-.12,1.64-.8,3.23-.91,4.86a90.45,90.45,0,0,1-11,38.07c-4.21,7.61-10,14.44-15.68,21.1-7.76,9.07-15.92,17.83-24.26,26.38-6.62,6.78-14.2,12.67-20.48,19.73-2.5,2.81-3.19,7.64-3.76,11.68-1.55,11.09-2.54,22.25-3.91,33.36-.21,1.67-1.27,3.23-2.35,5.87,0,.15.07,1.45.15,3.19l-4.61,2.71-5.61-1.93,1.64,4-.78,1c-4.34-3.08-8.79-6-13-9.28-4.69-3.65-9.31-7.41-13.65-11.45-3.58-3.32-6.6-7.24-10.08-10.68-7-6.93-14-13.87-21.25-20.5-7.6-6.94-15.64-13.41-23.28-20.31-5.42-4.9-10.7-10-15.65-15.35-8-8.63-16.11-17.15-23.15-26.49-4.6-6.11-7.39-13.58-11.26-21-15.26,6.1-30.34,13.38-46.18,18.14s-32.79,6.65-49,10.58a219.43,219.43,0,0,1-50.05,5.86l-2.44,1.94c-9.66-1.77-19.36-2.84-28.63-5.46-8.2-2.31-16-6.16-23.81-9.69-4.15-1.88-7.81-2.16-11.35.7l-10.64-1.85c2.24-2.75,3.54-4.93,5.37-6.5,4.56-3.89,5-6.42,2.83-11.92-2.79-7.17-4.92-14.59-7.41-21.87-4-11.82-7.19-23.83-8.36-36.3-.21-2.19-.75-4.35-1.14-6.53l1.07-.18q3.84,17.68,7.69,35.37l1-.15q-1.81-11.13-3.64-22.26c-1.22-7.46-2.93-14.87-3.53-22.38-.61-7.71-.13-15.51-.87-23.36-.71,9.85-1.41,19.71-2.18,30.61-.68-5-2.1-9.31-1.61-13.34.89-7.24,2.88-14.34,4.48-21.49,1.4-6.26,2.61-12.59,4.42-18.74,2.43-8.21,4.59-16.63,8.25-24.3,5.52-11.53,12.23-22.49,18.43-33.69,2.17-3.9,4.35-7.78,6.88-12.32-3.55-1-6.95-1.51-10-2.84-7.49-3.24-15.39-6-22.08-10.49-11.73-7.89-22.77-16.81-33.9-25.54-7.75-6.08-15.3-12.41-22.7-18.91-6.61-5.8-12.65-12.27-19.36-18C64.33,583.4,52,574,40.26,563.87c-7.58-6.53-15.87-12.49-21.08-21.74,6.87-2.58,12.4,2,17.77,3.26,4.33-9.35,8.3-18.6,12.9-27.51,1.56-3,4.53-5.42,7.14-7.78,9.8-8.83,21.13-15.41,32.55-21.88,5.54-3.14,10.39-7.56,16-10.42,8.08-4.07,16.37-8,25-10.61,12.43-3.72,25.24-6.21,37.9-9.11,9.54-2.19,19.24-3.74,28.62-6.44,9.67-2.78,19.33-2,29.06-1.79,8.89.18,17.79-.05,26.67.25C256.76,450.23,260.65,451.23,265.23,451.93ZM612,539.88l-.72,1c-4.75,4.43-11.43,7.12-14,15.6,2.92-.92,5.27-.92,6.19-2.07,3.27-4.09,7.62-7.7,7.68-13.64.25-.31.49-.63.75-.94l1.22-1.1c4.51-1.78,5.13-5.37,4.47-9.34,3.2-4.71,6-9.51,9.45-13.77,9-11,17.68-22.25,24.52-34.77,8.53-15.59,16.31-31.65,25.65-46.74,6.26-10.13,10.05-21,12.52-32.19,4.14-18.69,4.07-37.67-2.09-56.49l-2.68-4.74.81-1.26-28.85-7.73c0-7.33.26-13.12-.15-18.86-.13-1.88-1.64-4.86-3.1-5.27-7.25-2-14.67-2.65-21.86.61h0c-.63-.77-1.26-1.54-2.16-2.66l-30.32,7.39a16.8,16.8,0,0,0-9.64,5.29,9.14,9.14,0,0,1-2.4,1.51l-.22-.19.26.31-8.4,3.25-.46-.57c-48.26,24-91.64,53.73-121.22,100.21l6.09,3c1.52,2.37,2.84,4.19,3.89,6.15,2,3.74,4.65,7.51,1.05,11.77l-.16.06.06-.16,17-2.22,5.67,6.6c25.53-27,47.9-56.74,79.19-77.65l1.93.44C592.5,352.43,617,342.16,641.18,331l4.2,2.75a22.11,22.11,0,0,1-5.79,3.53c-13.41,6.42-27.15,12.27-40.11,19.51-10,5.56-19,12.74-28.3,19.5a165.05,165.05,0,0,0-17.65,14.36c-6.2,6-11.36,13.08-17.44,19.21C526,420,515.54,429.73,505.33,439.74c-4.21,4.13-8.16,8.52-11,11.49,0,7.46.64,13.16-.18,18.64s-3.1,10.76-4.81,16.38l8,1.5c9.54-3.54,18.44-10.56,29.6-10.69,11.47-.14,20,6.58,28.7,13.8,40-38.44,71.19-82,86.5-135.85l1.74-.19,2.85,3.45c-3.17,9.07-5.54,18.23-9.47,26.67-8.8,18.92-17.47,38-30,54.86-4.1,5.51-8.09,11.14-12.61,16.31-11.1,12.71-22.47,25.18-33.82,37.83l14.1,20.94c-1.49,3-2.6,5.19-3.72,7.41l-.55-.65-7,3.57c2.34,4.65,4.26,8.35,6.07,12.09,4,8.27,7.2,16.53-1.68,24.35,6.48-2.57,12.41-4.86,18.27-7.31a6.34,6.34,0,0,0,2.62-2.39c5.44-8.54,10.88-17.08,16.13-25.74,2-3.31,3.18-7.13,5.27-10.37a255,255,0,0,0,22.83-43.46c.43-1.08,1.07-2.07,1.75-3.36l5.12.88c-7.42,15.72-14.18,30.83-21.66,45.58-4.11,8.1-9.47,15.57-14.16,23.39a26.86,26.86,0,0,0-1.74,4.67l1.41,1,11-12.23c-.7,2.63-1.22,4.57-1.75,6.52ZM431.18,257.36l.12.07-.24.07c-.11-.69-.22-1.37-.36-2l-1.23-.86c-.07-3.13-2.11-4.79-3.77-6.73L424.34,249l5.23,5.54,1.29.85C431,256,431.06,256.71,431.18,257.36ZM384.92,227,385,227c-.63,1.5-.9,3.35-2,4.43-4,4.14-8.17,8.17-12.48,12A503.81,503.81,0,0,0,317.62,298a104,104,0,0,0-13,20.74c-5.9,12-11.26,24.26-16.16,36.69a169.43,169.43,0,0,0-7.26,24.34c-2.15,9.41-3.39,19-5.17,28.54-1.14,6.07-2.54,12.1-3.83,18.17l2.89.49q-2.52,13.32-4.93,26.09a18.72,18.72,0,0,0,2.9,1.23c10.47,2.17,21,3.9,31.4,6.54,9.45,2.42,19.11,4.89,27.79,9.14,5.1,2.48,9.17,4.32,14.53,1.83,2.19-5.42,3.73-5.94,9.28-3.31,3.64,1.72,7.39,3.22,10.95,4.76-1.34-15.85-3.15-31.24-3.81-46.68-.62-14.84-.23-29.72.05-44.58.15-8,1.53-15.91,1.44-23.85-.23-20.53,4.37-40.38,7.88-60.36,1.94-11,5.06-21.84,7.73-32.73a10.3,10.3,0,0,1,1.67-2.7l1.35.12c.33,1.39,1.15,2.87.93,4.17-3.21,18.32-7.46,36.52-9.66,55-2.69,22.51-4.19,45.19-5.28,67.85-.81,16.92-.48,33.92-.05,50.86.3,11.89-.89,24.2,6.54,34.82-.46-9.11-3.7-18.71,2.09-27.38l5.3-1.21c4.32,3.36,8.29,2.87,10.18-2.4a56.32,56.32,0,0,0,2.83-16.85c.41-11.66.33-23.35.07-35-.23-10.85-1.09-21.67-1.41-32.52-.52-17.11-.78-34.23-1.22-51.34-.19-7.7-.42-15.39-.84-23.07-.43-7.87-1.24-15.72-1.63-23.59-.53-10.58-.84-21.17-1.2-31.76-.09-2.63,0-5.26,0-7.89l1.25-.25a13.89,13.89,0,0,1,1.26,3.26c1.27,11.71,2.81,23.41,3.56,35.16.8,12.76.85,25.57,1.2,38.36q.72,26.18,1.39,52.36c.25,9.42.57,18.83.82,28.25q.61,23.91,1.18,47.81c.08,3.32,0,6.64,0,9.53l25.59-8.35-.06-.2,23.06-7.24c4.43-6.76,8.07-13.46,12.83-19.26s10.43-10.38,15.49-15.3a20.22,20.22,0,0,0-.35-3.77c-3.39-10.28-7-20.41-12-30.14-8-15.46-14.64-31.56-22.19-47.23-5.41-11.21-11.36-22.15-17.09-33.2-1.15-2.21-2.39-4.38-3.36-6.15l3.32-4.41c4.3,7.87,8.47,15.16,12.27,22.63,1.8,3.55,2.63,7.59,4.36,11.18,4.26,8.86,9.07,17.46,13.15,26.39,7.6,16.67,14.8,33.52,22.27,50.24,1.34,3,3.17,5.78,4.94,9l6.87-6.35c-1.32-3.27-2.34-5.88-3.43-8.46-3.76-8.92-7.09-18.05-11.42-26.68-7.92-15.8-16.44-31.29-24.7-46.91l.09.07a6,6,0,0,0-.25-2.19q-6.88-12.92-13.93-25.73c-.16-.28-1-.18-1.54-.3-.26-1.38-.53-2.75-.8-4.13l-1.1.3c.64,1.26,1.28,2.53,1.93,3.79q.57,2.94,1.15,5.86l.1-.1c-3.24-5.33-6.64-10.58-9.69-16C417,237.66,404.07,225.35,388,216.22a27.07,27.07,0,0,0-4.08-1.51c-.28,3.61-.5,6.57-.72,9.52l.09,0Zm48.14,688.61,1.06,1A26.29,26.29,0,0,0,436,919c4.92,4.93,10.15,9.57,14.77,14.77,15.41,17.33,31.09,34.32,51.76,45.65a63.81,63.81,0,0,0,7.19,2.79c2.24-16.09,4.36-31.36,6.47-46.63l-1.29-.36q4.25-6.21,8.52-12.43c-2.6-2.6-2.25-6.65.5-10.49,5.87-8.23,11.81-16.42,17.22-24.95,10.45-16.46,14.74-35.48,21.2-53.55,5.26-14.68,6.29-30.16,5.72-45.65-.52-14.16-1.58-28.29-2.41-42.44l-1.38-.51,4.1-1.65c.6,3.15,1.06,5.61,1.53,8.07a23.77,23.77,0,0,1,3.91,8.68,125.09,125.09,0,0,1,2.75,17.25c.54,8,.29,16.07.49,24.11.05,2.38.47,4.75.73,7.13-.83,7.72-2.63,15.44-4,23.23-1.8,10.38-2.9,20.9-7.61,30.55-2.87,5.87-4.87,12.35-8.64,17.56-8,11.1-17,21.54-25.54,32.26-1.84,2.31-3.59,4.68-5.39,7a67.06,67.06,0,0,0,12.6-9.56c8-7.83,15.8-15.91,23.69-23.87,12.91-13,22.61-28.12,25.81-46.24,2.66-15.07,3.69-30.48,4.68-45.79.36-5.62-1.48-11.39-2.32-17.1-.79-2.54-.57-5.29-1.13-7.86S588,764,587,761.59c-3.5-8.21-6.75-16.54-10.68-24.54-1.45-3-3-7-7.9-7-2.16,4.94-5.24,8.09-11,8.79-6.05.74-8.65-3.16-11.71-7.82-5.17,8.21-10.8,3.08-16.1,1.35a25.09,25.09,0,0,1-12.48,12,180.17,180.17,0,0,0-23.85,13.35c-4,2.69-7.45,3.76-12,2.56-2.65-.7-5.86-1.48-8.22-.6-4.47,1.65-8.5,4.48-12.73,6.79a12.69,12.69,0,0,1-3.6,1.65c-9.45,1.7-18.89,2.95-27.8-2.32-.81-.48-2-.33-2.9-.46-4.82,9.43-5.78,9.51-18.1,1.66-3.79-8.75-7.05-10.21-15.92-7.2-2.55.86-5.08,2-7.7,2.33s-5.25-.21-7.92-.37l-1.7-3.93h1.09l2.61-23.38-1.13-.61-13.94,11.63c-.8,3.73-2,7.19-2.17,10.7a60.74,60.74,0,0,0,.82,11.15c1,7.65,2.08,15.28,3.17,22.92.81,5.72,1,11.63,2.65,17.11,3.29,11,7.16,21.78,11.26,32.48,1.67,4.33,4.58,8.17,6.93,12.24,1,1.05,1.08,2.61,1.73,3.88,2.24,4.3,4.51,8.62,7.09,12.73,4.66,7.44,8.92,15.25,14.5,22C416.65,899.43,425.09,907.35,433.06,915.65ZM262.76,588l-.1.17V582c-5.79-1-10.56-2.08-15.39-2.74-12.81-1.76-25.68-3.12-38.46-5.06-17-2.59-33.92-7-51-8-17.79-1.09-34.74-6.29-52.32-8-3.86-.37-7.66-1.33-11.49-2l0-1.43c2-.71,4.16-2.12,6.15-2A148.74,148.74,0,0,1,115.62,555c6.28,1.14,12.48,2.81,18.79,3.69,11.48,1.6,23,2.69,34.51,4.18,14,1.81,28,3.89,42,5.7,10.17,1.31,20.35,2.46,30.55,3.52,5,.52,10,.66,14.6.94,4.78-11.38,13.72-17.72,23.19-22.47-.71-3.23-1.29-5.84-1.82-8.26l6-4.15c-2.55-5-5-9.79-7.48-14.79.34-1.44.75-3.16,1.36-5.71l13,2.34V489.94l3.79-1.31,5.35,2.1,17.51-18.41c-1.7-.85-3.45-2.2-5.4-2.63-11.77-2.59-23.5-5.68-35.42-7.24a261.41,261.41,0,0,0-34.85-1.83c-13.59,0-27.21.75-40.77,1.76-7.4.54-14.7,2.42-22.08,3.47-9.58,1.37-19.37,1.77-28.75,3.95a184.38,184.38,0,0,0-27.78,9.26c-18,7.32-35.16,15.84-50.52,28.19-9.65,7.75-16.12,17.3-22,27.6-2,3.54-3.27,7.53-4.69,10.88l4.78,5.69-.86,1.19H36.82l-1.2,1.15a28.85,28.85,0,0,1,3.85,2.16c4.17,3.27,8.34,6.56,12.35,10,8,6.93,15.85,14.07,23.89,21,9.81,8.43,19.57,17,29.69,25,10.79,8.58,21.94,16.69,33,25,9.78,7.32,20.54,13,31.68,17.89,9.19,4.06,18.31,8.69,28.5,7.35,1.77,1,3.16,2.15,4.74,2.49,5.67,1.21,11.5,1.75,17.08,3.24a139.67,139.67,0,0,0,49.19,4.5c3.6-.34,7.13-1.48,11.57-2.44-1.51-4.18-2.67-7.41-4-11.11v-7.25l-1.2-.25c6.72-8.08,13.49-16.13,9.77-28.39-5.82,5.67-6.22,13.2-9.31,19.67l-3.25-1.12c-2.43-8-5.08-15.34-6.78-22.86-1.19-5.25-1-10.81-1.59-16.21C264.23,597.55,263.44,592.76,262.76,588Zm190.4-152.69h5.55l.21-1.13-5-4.06c-5.83,1-12.37,2-18.81,3.43-3.12.69-6,2.58-9.1,3.33-11.14,2.68-21.64,6.33-29.62,15.27-2.58,2.9-4,5.61-2.91,9.49a106.41,106.41,0,0,1,2.49,10.88c.23,1.37-.43,2.9-.68,4.35l-1.66.08a21.25,21.25,0,0,1-1.79-3.69c-.73-2.73-1.11-5.55-1.82-8.29-.86-3.35-2.81-5.41-7-4.95.14,2.63.3,5.12.37,7.6.12,4.17.24,8.1,2.94,11.86,5.59,7.79,10.59,16,15.91,24,1.32,2,3.33,3.59,4.38,5.69,2.77,5.53,5.28,11.19,7.69,16.89a50.55,50.55,0,0,1,3.25,9.73c.29,1.47-.93,3.24-1.79,5.84-1.44-1.83-2-2.34-2.32-3-8.7-15.26-17.63-30.39-25.95-45.84-3.71-6.89-7.86-11.71-16.23-13.12-6.53-1.11-12.65-4.57-19.31-7.12-.54,2.09-1.09,4.2-1.48,5.74l4.56,12.84L351,492l-9.46-13.63-3.68,2.05,12.92,15.48-1.25,1.23c-3.69-3.32-7.47-6.55-11-10-3-2.87-5.51-6.21-8.6-8.92-4.11-3.62-11.1-2.76-14.45,1.38-4.2,5.19-8.43,10.36-12.54,15.41,15.95,16.67,36.26,27.65,52.88,42.29l.7,6-39-29c-2.14-6.33-12.87-5.08-14.13-13.28l-8.28-6v28.79l25,10.63c.17.92.43,2.39.88,4.86l-34.74-14.43-.77,1c1.8,4.8,3.6,9.59,5.57,14.86l-5.11,3.12c2.2,5.25,7,5.28,11.64,5.83q11.7,1.4,23.41,2.84l1,3.95-33.42-4.17c-3.12,1.7-5.72,3.51-8.59,4.6-6.13,2.33-10,7-13.6,12.08l0-.08-4,5.44c7.89-.64,14.41-.92,20.86-1.78s11,.32,13.89,5.3H267c2.64,17,5.15,33.08,7.65,49.2,4.26-4.51,6.68-9.46,10.79-10.53,18.32,1.26,34-3.87,50.38-6.81.72.27,1.87,1.13,2.84,1,7.35-1.22,14.64-2.78,22-4,8.21-1.34,16.46-2.4,24.42-3.54l2.5,4.25L292.37,623.1c-2.06,10-3.92,19.12-5.91,28.8l12.12-5.16,3.18,2.52L285,657.56V687l9.17-6,.35,1.1c2.2-.3,4.59-.15,6.56-1,8.51-3.59,17-7.28,25.3-11.3,8-3.86,15.8-8.13,23.66-12.28,7.26-3.84,14.58-7.59,21.69-11.69,8.74-5,17.3-10.4,26-15.66l3.82,3.56c-2.74,1.72-5,3.14-7.24,4.54-10.27,6.38-20.52,12.79-30.83,19.11-6.73,4.13-13.18,9-20.42,12-11,4.47-22.44,8-32.55,14.57-2.83,1.85-6.15,2.95-9.79,4.64-.75,11.38,2.85,22.83,5.79,34.73,7.39-6.36,14.09-8.24,19.58-1.87,7.33-9.23,14.55-18.34,21.56-27.18l5.48.68c-4.34,4.72-8.51,8.79-12.11,13.32s-6.53,9.43-9.38,13.61l26.32,14.65c7.15-6.7,14-12.8,20.42-19.33,1.89-1.93,3-5,3.61-7.7,1.33-6.1,2.08-12.32,3.1-18.48.07-.38.48-.71.78-1.13l3.25,2c-1,8.65-1.94,16.94-2.9,25.22,5,8.93,4.66,18.52,2.63,28.56l7.06-1.25c-.41-5-.81-9.77-1.26-15.22l5.92-2v16.58l15.73,18c5.84-1.4,8.6-6.29,6.38-11.56a57.6,57.6,0,0,0-4.88-8.55c-3.69-5.74-6.68-11.64-6.11-18.77.41-5,.55-10.07,1-15.08.7-7.09,1.62-14.16,2.54-22.07l4.77,2.86c-.81,5.41-1.56,10.28-2.26,15.15-.81,5.63-.2,10.59,6.48,12.49a67,67,0,0,1,6.2,32.13c-.23,4.81,2.08,10.48,6,11.45,4.27,1,8.75,1.26,14.22,2-.23-3.66.38-6.72-.7-9-3.37-7.11-7.41-13.89-11.09-20.86-1.18-2.22-2-4.61-3.12-7.12l3.09-2.79c1.45,1.32,3.07,2.19,3.77,3.54,2.73,5.3,5.15,10.75,7.73,16.13s4.87,11.41,13.14,11.72c-4.41-12.38-3.36-23.73,5.89-33.32-4.22-9.83-8.27-19.23-12.51-29.09l4.23-.44,4.64,5.27c2.62,5,4.83,9.22,7,13.44,3,5.83,5.66,11.82,8.87,17.51,3.32,5.91,5.13,11.67,1.51,18.11-.77,1.37-.92,3.1-1.45,5l3.09,1.72,15.51-8.32c-1.44-4-2.78-7.67-4.3-11.89l4.1-1.86c2,4.28,3.83,8,5.78,12,5.59-2.85,11.31-4.54,12.05-11.73.85-8.21-1.3-14.77-7.26-17.38-3.05-5.18-4.72-8.95-7.21-12-3.55-4.41-8.07-8.05-11.54-12.52-10.41-13.43-20.56-27.06-30.7-40.71-2.66-3.58-4.88-7.49-7.31-11.24l.9-.75,3.76,1.1c4.57,5.24,8.5,9.51,12.15,14,4.71,5.78,9.09,11.84,13.82,17.6,10.14,12.34,20.4,24.58,30.63,36.85,2.44,2.93,4.62,6.2,7.52,8.59,3.29,2.7,7.24,4.59,10.93,6.8,1.73,1,3.51,2,5.74,3.23,2.48-8.39,4.76-16.14,7.15-24.25l-23.07-21.82c.63-1,1-1.62,1.43-2.23s1-1.42,2.05-3a291,291,0,0,1,31.52,26c-3.12,9.13-2.16,17.6-.69,26.77,5.69-4.28,2.08-12.93,8.95-16l1.79,5.67,1.54.13c1.39-4.34,2.78-8.69,4.14-12.9-4.84-5.33-14.05-3.7-16.65-12.21,6.41-1.46,11,2.32,15.92,4.53l4.61-.38c3.29,4.66,5.46,9.93,12.68,11.95.73-5.09,1.37-9.63,2.05-14.39L558.13,677.9c.07-1,.17-2.4.36-5l38.33,8.66c-1.58-8.93-3-16.7-4.16-23.43-6.29-5.29-12.47-2.23-18.41-2.55-.16-1.31-.28-2.26-.4-3.21l-.91.76-7.69-8.21c-2.3-2.47-4.18-5.7-7-7.28-5.8-3.26-12.1-5.63-18.18-8.38-1.43-.65-2.84-1.34-4.44-2.1,2.11-4.59,5.63-2.07,7.45-2.5,9.87,4.83,19.13,8.62,29.31,8,4.77-2.52,9.93-3.82,14.57-6.15,3.45-1.73,5.94-1.44,8.48,1,2.36,2.25,4.71,4.52,6.9,6.93,1.8,2,3.36,4.22,5.27,6.65,3.43-5.09,4.56-9.55,1.91-14.55s-5.1-10.06-8-15.86c-4.77-.57-10-1.07-15.08-1.85-1.39-.22-2.65-1.26-4-1.93C589.77,604,597,608.22,604,604c-1.31-3-2.53-5.73-3.87-8.74-2.91.28-5.28.35-7.6.75-7.05,1.23-14,3-21.12,3.76-6.45.7-13.09-.2-19.51.61-11.41,1.45-22.71,3.7-34.06,5.56-5.13.85-10.29,1.59-16.49,2.53,1.44-2.82,2.15-4.19,2.94-5.73,4.55-.5,9-.84,13.43-1.5,12.53-1.88,25-4.09,37.56-5.81,11.06-1.51,22.25-2.14,33.26-3.87,10.79-1.71,16.21-10.33,13.5-21l-14.49.85,4.69-5,6.36-1.93c0-.43,0-.87.05-1.31-1.23-.56-2.46-1.6-3.71-1.62a89.21,89.21,0,0,0-11.32.55c-2.51.29-5.28.66-7.39,1.9-8.83,5.22-17.88,9.39-28.42,6.53-4.6-1.25-9.72-2.37-9.61-9.12,0-1.73-1.47-3.5-2.42-5.57l-17.89,3.76c3.21-5.76,7.67-6.49,12-7.73,7.28-2.09,14.1-2,20.85,2.13,3.5,2.14,7.19,5.81,12.45,2.39-5.48-5.2-12.28-6.42-19.14-7.62l3.73-4.36,13.19,4-.21.76,6.82.42c.43-12.52-9.65-19.89-13.69-30.27-2.32.44-4.39.7-6.39,1.22-13.29,3.47-26.56,7-39.87,10.42-1.26.32-2.77-.34-4.16-.54,0-.59.05-1.18.07-1.77,2.82-.77,5.63-1.58,8.47-2.3,7.19-1.83,14.36-3.72,21.59-5.41,10.44-2.45,20.18-8.16,32.33-6.77l-8.82-17-4.45.93-2.12-3.63L517.35,499l4.64-5.41,24.19-2.74.23-2.08c-4.11-1.93-8-4.66-12.35-5.64-9.65-2.18-18.66.65-26.28,6.53-5.18,4-10,5.86-16.31,3.32-3-1.18-6.3-1.43-10.11-2.24-1.49,3.09-2.86,6-4.28,8.88C468.52,517,460,534.38,451.32,551.7c-1.07,2.14-2.22,5.26-6.44,3.45a51.14,51.14,0,0,1,2.08-6.76c3.64-7.87,7.55-15.62,11.19-23.5,2.54-5.53,4.51-11.34,7.25-16.77,4-7.93,9-15.4,12.58-23.51,3.25-7.4,7.61-14.61,7.78-22.77-1.23-1.87-2.26-3.34-3.18-4.87-3.49-5.72-7.93-7.23-13.52-3.64-4.94,3.17-9.34,7.17-13.61,10.51h-4.63c-4.73,5.07-3.52,13.52-10.74,18.16,1.46-6.24,2.62-11.66,4-17,2.48-9.55,2.33-20,9.32-28.07.27-.3-.08-1.13-.14-1.72ZM212.32,866.71c-.28-.87-.57-1.73-.85-2.59,1.34-.79,2.63-2.12,4.05-2.26,10.21-1,20.46-1.72,30.69-2.72,9.33-.91,18.67-1.86,28-3.19,6.29-.9,12.47-2.57,18.73-3.74,8.61-1.61,17.38-2.55,25.84-4.7,11.11-2.83,22-6.59,33-9.86,4.28-1.27,8.64-2.29,13-3.43-1.81-5.51-3-11.33-5.57-16.4a35.35,35.35,0,0,1-4-16.63c0-5.52,0-11.05-.18-16.57-.19-6.38-.66-12.75-.82-19.13-.15-5.78,0-11.56,0-17.36-1-.37-1.72-.63-2.42-.86-4.94-1.65-9.47-3.41-12.59-8.35-3.83-6.06-11.29-5.39-16.94-8.07-2.91,3.55-5.21,6.69-7.84,9.52-8.91,9.59-17.64,19.36-27,28.5-7.55,7.37-16,13.85-23.88,20.84-12.65,11.18-25.11,22.57-37.88,33.61-3.93,3.4-8.56,6-12.94,8.84a9.8,9.8,0,0,1-2.92.77c.22-1.87.39-3.34.53-4.61,35.55-28.11,70.37-57.07,100.19-92.36l-6.26-2.16c-3.28-14.16-6.69-28.84-10.09-43.48-4.23.37-4.23.37-10.65,6.4-6.78-4.94-1.7-12.51-4-18.78-19.49,1.65-38.95,3.89-58.64-.74L204,706.3l-5.52-.67,16.79-29.38c-5.63-1.13-11.13-2.37-16.68-3.24-1.27-.2-2.94.62-4.11,1.43C179.33,685,170,699.66,164.06,716.85c-3.05,8.89-3.89,18.19-5.64,27.33-2.59,13.53-5.09,27-5,40.75.07,8.38,1.55,16.84,3.3,25.08,1.25,5.85,4.16,11.34,6.06,17.08,2.31,7,4.33,14.06,6.51,21.23l8.09-6.63.53.89c-3.57,9.28-7.15,18.56-11.25,29.24,5.47-1.61,10.16-3.06,14.9-4.32a23.56,23.56,0,0,1,4.62-.32l0,1.09-7.49,2.36.24,1.29c2.33,0,4.72-.34,7,.09s4.46,1.64,7.83,3l-6.56,2.22c18.25,8.25,44,11.66,49.63,6.51,7.5,3.89,15,.3,22.35-.66,12.53-1.63,24.92-4.43,37.35-6.82,8.19-1.58,16.54-2.71,24.48-5.14,11.4-3.48,22.59-7.73,33.68-12.13,5.73-2.28,11-5.59,16.78-8.55L367,840.05C316,855.06,265,865.57,212.32,866.71ZM608.27,663c44.47-6.21,88.52-9.23,132.62-11.57l3.73,5.3c-46.31,2-91.45,6.53-137,12.69,3.25,11.15,6.48,21.85-3.27,32.31.18-.49-.07.22-.34.91-4,10.08-11.37,16-22.12,17.87-2.18.39-4.16,2-6.87,3.32,11.54,14.77,16.22,31.93,22.21,48.63a14.4,14.4,0,0,0,3.23,0c14.8-3.64,29.78-6.71,44.33-11.18,16-4.91,31.7-10.74,47.24-16.92,11.5-4.57,22.42-10.57,33.78-15.52,13.63-5.94,26-13.8,38-22.59,10.22-7.53,17.32-17.6,23.44-28.43,2.63-4.66,4.62-9.71,3.4-15.73-3.33.55-6.51,1.43-9.69,1.48-2.92,0-6.23,2.47-9-.62l33.55-11.23-29.81-9.12.29-1.09,19.41,2.24c-3.44-10.18-6.42-19-9.41-27.78a34,34,0,0,0-1.64-4.61c-2.61-5.14-4.53-10.91-8.21-15.13-5.72-6.55-12.64-12.06-19.11-18-11.63-10.56-25.69-17.3-39.24-24.83-21.81-12.12-45.2-20.41-68.91-27.88-3.08-1-6.32-1.45-8.84-2l-12,17.14c2,.15,2.88.19,3.76.27,10,.92,20.11,1,29.41,5.32,7.29,3.4,14.33,7.35,21.66,10.66,8.3,3.75,17,6.62,25.14,10.66a265.55,265.55,0,0,1,28.89,16.15,370.26,370.26,0,0,1,32.62,24.33c4.91,4.11,8.31,10.07,12.12,15.39.93,1.29.79,3.36,1.14,5.08-4.62.89-5,.87-7.9-2.86a158,158,0,0,0-44.44-39.14c-17.76-10.39-35.71-19.83-55.54-25.84a239.63,239.63,0,0,0-50.49-10c-1.37-.11-3.26.19-4.13,1.07-3.81,3.82-7.34,7.93-10.35,11.25,4.28,12.22.73,21.85-4.06,31.53l6.93,16.16-4.2,2.59c19.71,2.7,39.3,4.13,58.85,6,19.77,1.9,39.49,4.23,59.2,6.36l2.29,5.33c-38.69-4.15-76.55-10.79-115.29-8.6,5,14.87,2.35,16.4-6.26,31.58C607.65,656.78,607.94,659.73,608.27,663Zm-32.46-22c7.4,5.68,16.2,5.59,25.43,7.43-3-6.34-4.76-13.07-11.71-14.29C584.33,633.3,578.71,634.65,575.81,641.06ZM670.5,463.78c8.68-5,24.5-41.5,21.55-49.38C684.92,430.75,677.83,447,670.5,463.78ZM546.12,559.84c1.25,5.47,8.08,7.12,12.49,3.82ZM456.18,449.72l1.27,1.26L462,446.7c-.38-.4-.75-.8-1.12-1.21Z" transform="translate(-19.18 -205.92)"/><path d="M666.14,328.46l-.07.09-1.4-.84-.22.6C665,328.37,665.57,328.42,666.14,328.46Z" transform="translate(-19.18 -205.92)"/><path d="M217.54,454.05l0-.63-1.72.23,0,.4Z" transform="translate(-19.18 -205.92)"/><path d="M421.59,244.65l.62-.14-.27-1.1-.73.19Z" transform="translate(-19.18 -205.92)"/><polygon points="674.39 204.22 674.23 204.43 674.47 204.47 674.39 204.22"/><path d="M246.56,894.48h-4.49l.06-.56,4.45.4Z" transform="translate(-19.18 -205.92)"/><path d="M235.81,894.42l0,.28-.36-.26Z" transform="translate(-19.18 -205.92)"/><path d="M415.31,594.79c-8.77-4.6-9.46-5.32-11.9-12.63l2.52-5c10.32-3.92,16.67,4.23,25.45,7.76-2-9.43-7.91-19.42,5.55-24.12,7.76,1.68,8.29,3.82,5.38,21.92,3.6,2.54,5.58-.86,8-2.32,2.64-1.58,5.2-3.29,7.37-4.66l6,1.26c5,7.42,5,7.54-5.73,17.37,5.32,2.43,13.69-.54,15.39,9-6.15,4.15-13.49,4.16-21,6.25,2.35,1.84,5.09,3.36,7,5.61s2.64,5.07,3.86,7.55c-12.42,10.3-20.66,1.43-29.46-5.9-2.49,11.4-10.63,14.71-19.71,17.36l-3.47-2.88c.9-2.74,1.69-5.16,2.59-7.92-4.42.47-8.79,2.84-10.65-2.28-.19-3.94-.86-7.93-.41-11.79.32-2.76,2.14-5.35,3.26-7.93H394.62c.37-1.17.72-2.24,1.14-3.58l19.93-1.57C415.56,595.77,415.44,595.28,415.31,594.79Zm14.63,2.74c-.19,3.23-.37,6.26-.54,9.26l7.8,3.77c1-2.33,1.82-4.29,2.64-6.26l.31.53,2.26-2.94L438.65,600c1.16-2.54,2.21-4.8,3.46-7.53l-10.75-2-8.4,5.61.48,1.09Zm19.43-5.92c7.79-1.29,13.91-5.6,13.22-9.81l-2.74-1.45-10.48,5.9Zm6.69,26c-5.39-1.75-10-4.53-16.63-2.26l9.56,6.35,6.72.87C455.85,620.66,455.93,619.39,456.06,617.59Zm-28-.51c-8.09,2.62-12.75,7.38-12.19,12.22A12.59,12.59,0,0,0,428,617.08Zm-23.29,2.3c4.48,1.35,11.59-2.77,15.61-8.61l-12,3.07ZM435.2,582l1.5-.24c1.7-4.41,4.75-8.64,1.81-14.14l-4.92,1.27C434.17,573.67,434.68,577.85,435.2,582Zm-29.74,25.25.67,1.51,15-3.82-6.71-4.35Zm19.81-20.09c-6-1.78-10-6.11-16.21-3.94l8.93,5.51c.06.35.24,1.26.49,2.52ZM448,598c-.2,2.61-.28,3.57-.42,5.4l13.79-1.81.12-1.27Zm18.64,2-.06-.73-1.48.24.07.49Zm-18.06,8.72-.63-.3-.09.35Z" transform="translate(-19.18 -205.92)"/><path d="M416.46,558.16l4.39-1.2c1.37,6.08,6.56,11,4,17.41l-2.15.64C420.7,569.55,418.67,564.09,416.46,558.16Z" transform="translate(-19.18 -205.92)"/><path d="M441.75,638.68,437.13,641c-1.24-5-2.33-9.35-3.53-14.13l2.56-3.89,1.58,0C439,628,440.3,633,441.75,638.68Z" transform="translate(-19.18 -205.92)"/><path d="M476.38,615.09c-5.54,2.41-10.73-.34-16-1.21l-.67-1.25,5.3-2.25c-.27-.51-.54-1-.82-1.54l12.64,4.24C476.65,613.75,476.51,614.42,476.38,615.09Z" transform="translate(-19.18 -205.92)"/><path d="M458.29,562.25l3.57.25,1,1.07-11.5,13.53L449.87,576C448.47,569.08,457.35,568.17,458.29,562.25Z" transform="translate(-19.18 -205.92)"/><path d="M453.26,435.18l-6.7-1.47.4-1.34q3.09,1.47,6.19,2.91Z" transform="translate(-19.18 -205.92)"/><path d="M542.33,576.82l1.44.2-.11.64-1.42-.28Z" transform="translate(-19.18 -205.92)"/><path d="M266.36,569.06l-.18.12.14-.19Z" transform="translate(-19.18 -205.92)"/><path d="M70.38,571.51c2.75,1,5.88,1.42,8.2,3,10.86,7.53,21.23,15.78,32.26,23,13.29,8.74,26.83,17.15,40.71,24.91,8.86,5,18.74,8.09,27.8,12.74,15.66,8.06,32.56,12.08,49.56,15.47,14,2.78,27.65,7.67,42.21,6.9l2.18-.13,2.62,4.55a51,51,0,0,1-22.24,1.3c-17.4-3.18-34.9-6.14-52-10.5-16-4.06-30.78-11.35-44.5-20.83-7.54-5.21-16.09-9-23.77-14-12.66-8.29-25-17.07-37.45-25.66-5.48-3.77-11-7.49-16.4-11.41-3.41-2.48-6.58-5.28-9.86-7.94Z" transform="translate(-19.18 -205.92)"/><path d="M166.45,477.3c4.31-1.31,8.54-3.08,13-3.82,6.6-1.12,13.32-1.58,20-2.19,3.84-.35,7.71-.51,11.57-.62,10.59-.3,21.18-.88,31.75-.67,7.2.14,14.36,1.58,21.56,2.13,4.2.32,8.44.06,13.13.06L279,475l-2.62,4.64c-35.95-5.57-72.7-3.44-109.46.25C166.74,479,166.59,478.16,166.45,477.3Z" transform="translate(-19.18 -205.92)"/><path d="M122.07,529.4l2,6.34c-6,4.35-13.21,2.36-19.88,1.67-14.18-1.48-28.29-3.14-42.57-1.49a50.63,50.63,0,0,1-5.91,0l-.64-1.77c1.2-.83,2.3-2.09,3.63-2.43C70,528.93,81.45,528.12,93,528.18c7.79,0,15.58,0,23.37.18A32.5,32.5,0,0,1,122.07,529.4Z" transform="translate(-19.18 -205.92)"/><path d="M144.08,512.83l3.23,5.56c-24.27-.56-48.07-3.15-71.08,2.26l-5.43-2.58,2.58-2.86C97.16,510.61,120.59,513.8,144.08,512.83Z" transform="translate(-19.18 -205.92)"/><path d="M303.35,480.1l-2.83-.75c.06-.42.13-.83.19-1.25l3,.32Z" transform="translate(-19.18 -205.92)"/><path d="M262.76,588l.07.27a.91.91,0,0,0-.16-.11Z" transform="translate(-19.18 -205.92)"/><path d="M631.78,308.15c-3.45,1.2-6.87,2.48-10.36,3.54-.73.22-1.71-.35-2.56-.55l.29.12-.2-.16,12.83-3Z" transform="translate(-19.18 -205.92)"/><path d="M610.69,312.19l.71-.47.13.17-.69.51Z" transform="translate(-19.18 -205.92)"/><path d="M686.88,347.14l.11-.07Z" transform="translate(-19.18 -205.92)"/><path d="M687,347.07l-.11.09S687,347.07,687,347.07Z" transform="translate(-19.18 -205.92)"/><path d="M370.85,763.66l4,1.47-.74,3.11c.47,3.27.73,5.6,1.15,7.89a84.18,84.18,0,0,0,2.16,10.52c3.64,11.49,7.85,22.81,11.21,34.37,3,10.36,8.44,19.2,14.68,27.82,5.83,8.06,10.68,16.83,16.51,24.88s11.87,15.59,18.35,22.91c7.84,8.88,16.63,17,24.25,26,6.22,7.39,11.27,15.76,16.95,23.61A92.54,92.54,0,0,0,501,968.13c2.37,1.66,5.35,3.61,2.88,8.14-1.91-1.22-3.85-2-5.22-3.4-12.1-12.13-24.21-24.26-36.08-36.61-7.77-8.07-15.59-16.16-22.63-24.86C428.3,897,417.1,882.29,406.05,867.46c-6.22-8.36-12.12-17-17.52-25.92-2.65-4.37-4-9.59-5.66-14.5-4.44-12.82-9-25.61-13.07-38.55C367.25,780.48,368.42,772.41,370.85,763.66Z" transform="translate(-19.18 -205.92)"/><path d="M480.62,782.52c.43,3.32,1.05,6.52,1.22,9.75,1,19.1,1.87,38.21,3,57.3.58,10.08.8,20.27,2.6,30.15,2.55,14,6.46,27.75,9.69,41.62,2.1,9,3.91,18.1,6.08,27.1.93,3.86,2.47,7.57,4,12.12H501c-5.28-21.32-10.82-42.21-15.54-63.29a319,319,0,0,1-5.75-36c-1.59-14.92-2.35-29.94-3.22-44.93-.54-9.26-.69-18.54-.85-27.82C475.63,785.58,475.64,782.29,480.62,782.52Z" transform="translate(-19.18 -205.92)"/><path d="M434.15,915.77l-1.13,0Z" transform="translate(-19.18 -205.92)"/><path d="M434,916.72v-1.07l.63.54Z" transform="translate(-19.18 -205.92)"/><path d="M596.28,741.05l2.44-2.13c13.5-1.24,26.47-2.1,39.35-3.71,16.79-2.09,32.37-8.52,47.77-15.08,7.09-3,13.55-7.55,20.29-11.4.52-.3,1-.73,1.5-1,11.61-5.42,23.29-10.69,34.81-16.29,10.44-5.09,20.67-10.58,31-15.8,2-1,4-3.51,7.43-.35-1.37,1.42-2.38,3.06-3.86,3.91-12.43,7.11-24.8,14.38-37.5,21-12.44,6.5-25.32,12.18-37.89,18.46-29.32,14.64-60.55,22.09-93,24.62-4.13.33-8.36-.54-12.54-.86C596.15,742,596.21,741.52,596.28,741.05Z" transform="translate(-19.18 -205.92)"/><path d="M352.24,262.64l4.45,2.56A6.2,6.2,0,0,1,356,267c-5.29,6.58-11,12.88-15.87,19.74-6.81,9.56-14,19.05-19.31,29.46A253.3,253.3,0,0,0,300,371.6c-3.25,13.43-5.5,27.09-8.3,40.63-.65,3.17-1.68,6.25-2.54,9.38l-1.41.1c-.43-4.27-1.84-8.71-1.13-12.77,2.94-17,6.37-33.92,10-50.79.92-4.28,3-8.37,4.84-12.4,3.27-7.13,7.44-13.91,10-21.26a85.4,85.4,0,0,1,12.9-23.29c4.36-5.78,8.39-11.81,12.5-17.78,2.77-4,5.3-8.21,8.17-12.16C347.17,268.31,349.71,265.64,352.24,262.64Z" transform="translate(-19.18 -205.92)"/><path d="M445.93,285.88c-4.52-4.58-8.27-9.66-10.11-15.95l-.1.1,10.09,16Z" transform="translate(-19.18 -205.92)"/><path d="M445.81,286c.23.33.46.65.14.19.05.53,0,.12,0-.3Z" transform="translate(-19.18 -205.92)"/><path d="M449.37,292.77l.89-.34-.1-.07L450,293c-.2-.11-.39-.23-.58-.35Z" transform="translate(-19.18 -205.92)"/><path d="M431.76,266.36c.08,0,.23.05.24.09a.82.82,0,0,1-.07.3c-.09,0-.25-.05-.25-.08A.89.89,0,0,1,431.76,266.36Z" transform="translate(-19.18 -205.92)"/><path d="M448.32,291.12l-.22.06.2.05Z" transform="translate(-19.18 -205.92)"/><path d="M449.43,292.68c-.37-.51-.74-1-1.11-1.55l0,.1,1.07,1.54Z" transform="translate(-19.18 -205.92)"/><path d="M384.92,227l0-.41-.22.2.26.15Z" transform="translate(-19.18 -205.92)"/><path d="M383.17,224.23l.36-.1-.25.12S383.17,224.23,383.17,224.23Z" transform="translate(-19.18 -205.92)"/></svg>