<svg id="Layer_1" data-name="Layer 1" xmlns="http://www.w3.org/2000/svg" viewBox="0 0 823.61 805.45"><title>Daisy</title><path d="M134.94,546.9c-15.77-8.35-31.84-16.71-47.77-25.34-10.07-5.45-20.12-11-29.8-17.07A58.54,58.54,0,0,1,37.69,483c-3.48-6.25.59-13.82,7.51-15,1.74-.31,3.48-.65,5.32-1-.91-2.33-1.89-4.08-2.26-5.95-1.39-7.06.5-10,7.49-9.2a388.79,388.79,0,0,1,41.09,6.29c15.89,3.51,31.54,8.19,47.16,12.84,7.54,2.25,14.76,5.6,19.47,7.42-8.56-7.29-19.34-16.15-29.74-25.44a225.12,225.12,0,0,1-32.45-36.09,238.29,238.29,0,0,1-14.55-22.53c-1.71-3-2.13-7.16-2-10.73.1-2,2.25-4.55,4.15-5.55,3-1.58,6.61-2.06,10-3-2.29-6.93-.35-9.62,7-8.2,12.31,2.39,24.77,4.53,36.7,8.26a399.12,399.12,0,0,1,41.4,15.83c17.27,7.6,32.19,18.94,46.16,31.57a98,98,0,0,0,14.37,10.76,15.25,15.25,0,0,0-1.39-2.47,224.43,224.43,0,0,1-27-41.84c-5.88-11.93-14.14-22.77-19.3-35-6.35-15-15.82-28.83-18.07-45.61-.83-6.13-4.08-11.89-5.7-18-2-7.59,1.09-10.81,8.72-8.85,6,1.53,11.72,3.91,17.85,6,.32-1,.81-1.75.68-2.34-1.9-8.59,4.87-11.52,11.07-7.2,12.14,8.45,24.44,17,35.19,27,17.17,16.1,33.12,33.51,49.61,50.35,1.4,1.43,3,2.68,5.66,5.06-2.23-8.32-4.22-15.21-5.9-22.17-1.82-7.54-3.34-15.14-5-22.72s-3.78-15.11-5-22.77c-3.15-20.09-5.5-40,4.89-59.24,5.35-9.89,10.29-11.4,18.32-3.63,2.79,2.71,5.1,5.95,8,8.5,1.17,1,4,1.77,5,1.08,9-6.05,13.77-.38,19.3,5.69a53.5,53.5,0,0,1,4.84,6.76c1.42,2.13,2.7,4.35,4.58,7.39,1-7.57,1.43-14.32,2.83-20.86,2.15-10,6.19-18.43,18-20.68,2.95-.56,5.36-4.68,7.7-7.44s4.05-6.08,6.43-8.81c5.06-5.83,10-5.78,14.61.33a93.17,93.17,0,0,1,9.31,14.46C416,229,421.62,241.77,427.53,254.6c.76-1.75,1.94-4.27,2.94-6.86,4.61-11.91,8.51-24.17,14-35.64,2.84-5.9,8.2-10.8,13.1-15.43,3.4-3.22,7.9-3.14,11.51.57,3.76,3.87,7.65,3.5,12.14,1.25a61.65,61.65,0,0,1,10.95-4c5.53-1.53,7.68-.41,8.48,5.36a158.54,158.54,0,0,1,2,24.38c-.24,13.86-1.41,27.7-2.18,41.41,2.36-3.95,4.7-8.54,7.67-12.67,4.42-6.16,9.26-12,14-18q9.12-11.52,18.32-23c2.37-2.94,5.14-4.45,9.26-3.38s5.59,3.72,6.7,7.3a46.32,46.32,0,0,0,3.2,6.62c2.22-1.4,4.28-3.28,6.69-4.09,3.65-1.22,7.63-2.49,11.3-2.11,1.66.17,3.58,4.06,4.25,6.57,3.27,12.24.33,24.36-1.37,36.46-1.16,8.25-2.65,16.45-4,25.06,6-4.79,11.87-10,18.24-14.53,12.33-8.78,24.87-17.27,37.45-25.7,4.11-2.76,7.39-1.49,9.33,3.13a57.75,57.75,0,0,0,3.49,7.57c1.43,2.35,3,4.92,5.16,6.45,5.15,3.66,4.25,8.48,2.71,13-2.86,8.42-6.42,16.61-9.6,24.93-2.3,6-4.46,12-7.23,19.54,6-3.09,11-5.38,15.77-8.2,13.44-8,28.33-11.74,43.37-15.08a5.8,5.8,0,0,1,2.76-.17c3.92,1.13,8.19,1.84,11.41,4.05.83.56-1.18,6.33-2.81,9.17a50.35,50.35,0,0,1-8.08,10.42c-2.39,2.37-3.16,4.46-.43,6.39,8,5.67,8.09,12.48,3.61,20.26-.23.41-.11,1-.26,2.72,12.41-7.35,22.89-6.57,30.74,6.63,2-1.09,4.09-2.2,6.16-3.33,5.06-2.74,13.43-2.59,16.59.87,4.24,4.65,3.17,10.24.7,15.11-5.46,10.76-11.41,21.27-17.28,31.82s-12,21.2-18,31.89c10.48-.74,21.47-1.4,32.44-2.32,6.1-.51,10.09,2.15,11.75,7.89.36,1.24,2,2.89,3.21,3,4.55.36,9.2-.28,13.71.3A45.64,45.64,0,0,1,794,443.7c4.13,1.86,4.54,6.53.89,9.39-10.86,8.47-21.58,17.19-33,24.78-16.52,10.93-33.65,20.95-50.52,31.36-2,1.26-4,2.56-5.63,3.57,26.11-.58,52.52-1.36,78.93-1.62,7.54-.08,15.15,1.08,22.64,2.22,8.38,1.29,10.65,6.78,6.33,14.12-.85,1.43-1.63,2.89-2.71,4.8a29.57,29.57,0,0,0,4.79,2.84c4.64,1.67,7.74,4.41,7.37,9.74-.39,5.56-1.65,10.07-7.76,12.83-13.5,6.08-26.58,13.06-40.46,20,1.85.52,3.58,1.16,5.37,1.49,12.66,2.36,25,5.91,35.49,13.53,6,4.37,10.89,10.41,15.59,16.26,4.48,5.58,2.44,12.84-4.1,15.67-9.65,4.18-15.13,10.88-16.36,21.65-.68,6-5,10.23-11.22,11.75-11.81,2.91-23.65,5.7-35.93,8.65,5.78,3.86,11.54,7.25,16.77,11.31,9.07,7.05,17.6,14.8,26.78,21.68,5.24,3.92,8.69,8.24,8.76,14.93,0,3.5-.89,6.14-4.71,7-6.06,1.44-12.1,3-18.53,4.58a22.88,22.88,0,0,0,1.63,3.37c5.15,7.43,1.75,15.39-7.33,15.44-12.53.06-25.06-1-37.59-1.59l-12.24-.56c8.35,7.62,16.34,14.16,23.42,21.56a329.55,329.55,0,0,1,22.72,26.64c1.86,2.42,3,8.14,1.49,9.78-2.08,2.35-6.79,2.47-10.45,3.25-.91.2-2.06-.71-3.1-1.09-7.44-2.71-7.55-2.65-9.5,5.18-1.23,5-9.77,10-16.91,10.82-11.57,1.33-21.63-3.27-31.37-8-24-11.71-47.6-24.14-71.37-36.26-3.55-1.81-7.14-3.55-12.13-6,10,10.44,19.29,19.43,27.7,29.21,11.46,13.32,22.38,27.11,33.23,40.94,8.25,10.51,16.23,21.29,19.75,34.53a64.12,64.12,0,0,1,2,10.22c.45,4.88-1.76,6.9-7,6.93-4.29,0-9.43-1.35-9.36,5.79a1.89,1.89,0,0,1-.84,1.38c-5.55,3.15-10.84,7.41-16.81,8.94-4.33,1.1-10-.59-14.38-2.51-30.53-13.29-57-32.19-78.48-57.87-9-10.77-17.9-21.61-27.11-32.74,1.32,5.23,2.65,10.36,3.92,15.51,2.72,11,4.93,22,8.22,32.81,3.63,11.85,8,23.5,12.61,35,.89,2.22,4.52,3.32,7.34,5.25l-3.61,3.25,1.56.26c-.17,2.18-.4,4.36-.47,6.54s-.34,4.37.15,6.4c3,12.2,7.68,24.09,6.9,36.92a23,23,0,0,1-3,10.43c-1,1.65-4.63,2.43-7,2.28-1.94-.13-3.62-2.57-5.66-3.29-1.82-.64-4.41-1.14-5.91-.32-8.54,4.71-14.35,4.15-21.76-2.77-8.16-7.6-16.25-15.28-24.45-22.84-11.3-10.43-20.07-22.86-27.63-36.06-8.74-15.24-16.77-30.89-25.24-46.61.32,2.85.77,5.79,1,8.75,1.57,25.55,3.32,51.09,4.49,76.65.43,9.58-.32,19.24-1,28.83-.24,3.21-1.72,6.46-3.2,9.4-3.34,6.59-7.07,7.29-12.78,2.81l-4.8-3.74c-1.77,3.12-3.38,6.1-5.12,9-1.62,2.69-3.08,5.57-5.14,7.89-5,5.67-14.16,4.24-20-3.39-4.39-5.71-8.16-11.9-12.2-17.87-1.44-2.13-2.86-4.27-4.32-6.45-3.25,3.81-6.17,7.36-9.22,10.79-4.93,5.56-10.83,6.26-15.83,1.11a34.7,34.7,0,0,1-7-11.13c-2.34-5.87-3.86-6.92-9.31-4.18-7.45,3.75-12.12,2.65-15.93-4.81-2.41-4.73-3.62-10.07-5.37-15.13-.39-1.14-.79-2.27-1.59-4.56-4.74,6.27-8.86,11.66-12.91,17.11-5.29,7.13-10.32,14.46-15.82,21.42-6.81,8.63-12.63,8.68-20.08.86a4.85,4.85,0,0,0-3.76-1.45c-4.84,1.21-8.12-1.06-11.46-4-1.06-1-4.11-1.56-4.53-1-4.34,5.76-5.25.5-6.56-2-4.93-9.59-6.76-20.11-6.83-30.63-.08-12,1.06-24,2.17-35.93,1.41-15.25,5.53-29.87,12.12-44.86-4.44,3.89-8.08,7.28-11.93,10.41-13.5,11-26.76,22.24-40.72,32.58a40.19,40.19,0,0,1-25.11,8.2c-4.37-.09-8.92,2-13.16,3.67-6.16,2.42-11.07-1.39-12.27-8.07-3.71-20.71,6.76-37,16-53.6,7.58-13.53,16.31-26.42,24.44-39.64,1.23-2,1.95-4.31,3.3-7.35-20.46,10.8-39.75,21.66-59.68,31.21-10,4.79-21,7.82-31.86,10.37-5.13,1.2-7.19-4.07-8.16-8.67-11.23-3.09-15.11-12.77-8.44-22.81,5.42-8.18,11.83-15.7,17.81-23.51.64-.84,1.29-1.68,3-3.86-10.18,1.78-18.84,3.34-27.51,4.8a38.54,38.54,0,0,1-8.25.86A7.63,7.63,0,0,1,92.07,792c-.58-.72.82-3.09,1.41-4.68a19.05,19.05,0,0,1,1.19-2.24L73,764.1c3.15-3.9,6.43-9.32,11-13.28,7.39-6.41,15.63-11.83,23.48-17.71a29.39,29.39,0,0,0,6.87-6.85H59.62c-10.93,0-14.27-2.7-18.1-12.71-.83-2.18-4.11-3.64-6.53-4.95s-5.59-1.85-8.09-3.3c-6.31-3.65-6.55-9.37-1.37-14.57C39.19,677,55.86,668,73.2,660.1c12.64-5.75,25.59-10.82,38.38-16.24,1.5-.64,2.88-1.56,5.51-3-7.26-.63-13.33-.59-19.17-1.76-17.9-3.59-36-6.81-53.45-11.92-7-2-13.41-7.89-18.56-13.43-4.63-5-2.74-12,.07-17.76,4.75-9.78,4.79-10.09-5.78-14-5.67-2.11-9-5.71-10-12.07-.81-5.36,1.72-7.68,5.92-8.73,9.51-2.37,19-5.21,28.71-6.27,28.38-3.09,56.85-5.41,85.28-8C131.82,546.76,133.5,546.9,134.94,546.9ZM674.48,718.34l-14.42-5c-1.32-1.29-2.49-3.21-4.18-3.95-13.91-6.09-28-11.87-41.9-17.93-10.85-4.71-22-9-32.28-14.71-15.3-8.51-30-18.18-45-27.17-1.14-.68-3.2.17-4.83.31l-.39,2.23c10.27,7.24,20.18,15.09,30.9,21.59,15.18,9.2,30.72,17.91,46.61,25.83,7,3.5,14.1,9,23.21,6.15-1.82,3-1.86,5,2.16,5.16a5.23,5.23,0,0,1,2.49.77c11.25,7.18,23.73,10.74,36.77,12.72,4.22-1.65,8.07-.28,11.67,1.76.78.44.8,2.19,1.33,3.84,6.78,1.47,14.26,3.91,21.9,4.6,24,2.17,48,3.77,71.94,5.35,5.34.35,8.39-3.49,6.91-8.65-1.14-4-3.26-7.73-5.29-11.4s-1.92-6.52,2.39-8.88c1.08,2,1.74,4,3,5.39,1.1,1.16,3.45,2.65,4.4,2.2,5.14-2.4,10-5.35,15.78-8.56-23.54-27.92-54.28-40.91-87.1-49.2l61.84,39.47c-.21.55-.42,1.09-.62,1.64-1.17.12-2.61.74-3.46.28q-10-5.41-19.81-11.19c-10.06-5.92-19.4-13.86-30.2-17.56-21.5-7.35-43.79-12.44-65.77-18.37-3.52-1-7.18-1.31-10.74-2.1-12.25-2.75-24.4-6-36.74-8.22-12.92-2.29-26-3.45-39.05-5.31-6.21-.88-12.33-2.5-18.55-3.3s-12.53-1-18.8-1.44c36.16,14.4,72.8,27,110.76,36.14a26.22,26.22,0,0,1-11.76,1c-8.91-1.68-17.82-3.59-26.53-6.09-15.47-4.46-30.95-9-46.11-14.35-9.68-3.44-18.76-8.55-28.15-12.82a12.45,12.45,0,0,0-3.61-.48,5.32,5.32,0,0,0,2.26,3.67c6.58,4.17,13.12,8.41,19.84,12.35,10.23,6,20.26,12.47,31,17.47,17.09,8,34.73,14.8,52,22.38,20.52,9,40.74,18.73,62.82,23.57,20.23,4.44,40.44,9,60.65,13.55,2,.46,3.93,1.28,7.16,2.36-5.76,4.2-10.7,3.32-15.42,2.33C738,732.56,722.5,729.06,707,725.62,696.13,723.22,685.31,720.77,674.48,718.34ZM467.76,510.21l.08.08c4.05-7.85,4-9.34,0-12.15l-15.39,6.95,2.65,4L441,518.9c-2.38-.66-1.86-4.39-2.14-7.44-.13-1.42.78-2.93,1.22-4.4l5.06,2.48c.17-.45.63-1.62.91-2.35-5.25-3.34-13.05-.22-14.73-7.86-9.16,4-1.25,8.37.26,12.46l-8.53,3.3c2-6.09-7.63-7.77-3.94-14.16a28.06,28.06,0,0,0-3.09-2.44c-.39,4.6-.89,8.41-1,12.22s.94,8.15-3.93,9.56L407,512.69l3.63-3.14L405.73,502c0,8.68-1,10.12-9.69,12.66-3.71-4.5,1.41-5.56,3.42-7.68-4.14-3.15-4.93-3.06-8.85,2.36-3.2,4.42-6,9.11-9,13.68l-2.08-.84v-5.57c-1.77.51-5.65,1-5.71,1.75-.34,4.28.29,8.64.49,13,.07,1.54-.13,3.1-.2,4.66-1.3-1.09-2.9-2-3.83-3.34-.78-1.14-.56-2.93-1.19-4.24-1.07-2.25-2.45-4.35-3.71-6.5l-2,1.16c1.5,3,3,5.89,4.68,9.22.1-.15-.15.64-.5.68-6.45.86-8.34,3.39-3.51,8.8.37.42-.15,2.36-.78,2.75a3.1,3.1,0,0,1-3-.27c-2.38-2.78-4.48-5.81-6.64-8.7-2.38,3.68-5.45,8.23-8.22,13-.41.69.61,2.21.73,2.61,1.84-.78,3.27-1.71,4.76-1.84.52,0,1.92,2.63,1.72,2.83-2.06,2-4.37,3.74-6.78,5.68,2.16,1.27,5.35,3,8.3,5,1,.69,2.25,2.72,1.93,3.27a7.17,7.17,0,0,1-3.62,2.45,2.27,2.27,0,0,1-1.67-.25c-.91,2.27-1.25,5-2.24,5.31-3.58.92-7.38,1-11.92,1.45,5.41,2.63,3.69,6.5,1.75,11l9.09-2.83c-1.61-1.26-3.1-2.34-4.42-3.59-.11-.1.87-2,1.4-2,3.2-.19,6.41-.08,9.61-.07-.24,2.6,0,5.37-.88,7.75-.55,1.5-2.55,2.76-4.18,3.53a41.81,41.81,0,0,1-6.62,1.95c.21,1.79.37,3.11.7,5.87L334.36,591c2.09,5.93,10.93,9.16,5,16.47,2.76,1,4.7-8.63,8.54.42,1-4.62,7.19-3.32,6-8.55a3.37,3.37,0,0,1,2.19-.93c.69.15,1.73,1.2,1.68,1.77-.17,1.6-.34,3.65-1.36,4.63-2.92,2.77-6.34,5-9.42,7.64-1.45,1.23-3.44,2.77-3.6,4.33-.22,2.05.91,4.39,2,6.3.19.32,3.08-.82,4.68-1.4s4-2,4.25-1.68c1.28,1.58,2.83,3.81,2.57,5.54s-2.54,3.33-3.84,5a11.09,11.09,0,0,0-2,3.4c-.14.48,1,1.34,1.54,2l2.92-2.64c.49-.44,1-.9.94-.89,2.9,2.3,5.54,4.2,7.91,6.37.81.75,1,2.2,1.43,3.32a21.37,21.37,0,0,1-3.38.83,8.8,8.8,0,0,1-2.54-.62c-.18,2.39-.32,4.24-.48,6.28l7.1-4.57,1.27,1.15-2.22,6,4.75,2.29c1-2.59,1.83-4.58,3.23-8,1.94,2.57,3.24,4.28,4.92,6.49a6.5,6.5,0,0,1,2.39.07,6.37,6.37,0,0,1,3,1.83c.38.44-.17,1.67-.3,2.55-1.06-.35-2.19-1.09-3.18-.93-1.26.2-2.4,1.13-3.59,1.74.2.43.4.87.61,1.3l5.25-.65c.85,2.41,1.47,4.19,2.1,6,1-1.22,2-2.5,3.13-3.66.86-.9,1.8-2.19,2.82-2.31.75-.09,2.32,1.37,2.42,2.26a40.81,40.81,0,0,1-.18,6.63c1.28,2.06,2.35,4.1,3.72,5.91s2.82,4,4.76,5.06c1.5.82,3.8.17,6.63.17-3.24-2.13-5.9-3-6.84-4.7-1.52-2.83-2-6.24-2.72-9.46a23.18,23.18,0,0,1-.06-4.79l1.6.08,3.18,4.93,2.25-4.69c.94.45,2.14.68,2.75,1.41,1.36,1.61,2.44,3.46,4.28,6.18L405.16,670l5.18,4,4.69-.53-2.12,8.67,3.21,2.32,3.13-6.11,6.87,4.68a51.91,51.91,0,0,1,3.83-5.06c.77-.82,2.13-1.08,3.23-1.6.35.93,1.28,2.37,1,2.72-3.34,3.84-.13,6,1.9,8.35,1.61-2.4-2-7.56,3.63-7.77,6.74-.25.61,6.32,4,8.36,5.41-3-.37-6.38.37-9.2,4.65-3.3,7.72-.89,10.43,2.7.94,1.25,1.82,2.54,2.72,3.81.48-1.64.89-3.31,1.46-4.92s1.31-3.17,2-4.76c1.45.69,2.95,1.3,4.35,2.09a16.59,16.59,0,0,1,2.93,2.15c1.9,1.75,3.73,3.6,5.48,5.31,2.28-1.54,6-2.91,7.78-5.58s1.51-6.52,2.14-9.86l2.71.11c.44,3.26.88,6.53,1.38,10.28,4.25-.7,1.93-14.87,11.42-6.28l6.39-8.59-.87-1.49a62.85,62.85,0,0,0-6.17,2.69c-1.06.6-1.63,2.13-2.7,2.64-.5.23-2.45-1.06-2.4-1.51a10.68,10.68,0,0,1,1.55-3.71c3.17-5.7,9-2,13.34-3.79l3.24,8c1.12-3.39,2-6,3.26-9.85l-6.56,2,3-6.71c-.17-.29-.75-1.29-1.32-2.29l3.15-1.69a32,32,0,0,1-2.47-3.72c-.08-.15,1.73-1.8,2.18-1.61,2.1.9,4.59,1.79,5.83,3.5.76,1-.47,3.55-.68,4.71l9.34-6.59c.37-5-2.92-8.77-6.95-12.18-3.41-2.88-3.11-4.17.84-5.64l3.31,4.43c2.61-2,5.56-3.36,5.41-4.22-.43-2.42-2.12-4.62-3.38-7,3.16-3.24,9.17-4.72,8.1-11.48-6.23,1-4.92-2.23-1.74-7.1l-7.86,4.1a9.36,9.36,0,0,1-1.79-2.3,52.06,52.06,0,0,1-1.13-5.13,20,20,0,0,0,4.47.34c4.25-.61,8.45-1.47,12.68-2.24-2.07-1.28-5-1.59-5-1.84.09-4-2.79-5.3-5.55-7a3.81,3.81,0,0,1-1.22-3.16c.07-.64,1.55-1.55,2.44-1.59,1.43-.07,2.9.48,5.18.93-2.68-3.18-4.86-5.78-7.25-8.63l8.55-4.8c-.17-.53-.33-1.06-.49-1.59-2.88-.33-8.26,1.49-4.47-4.5-4.21.87-8.51-3.68-12.72.09l-.61-.62a22.63,22.63,0,0,1-1.09-3.08,49.48,49.48,0,0,1,7.76-3.4c1.71-.53,3.64-.36,5.48-.51v-2.4c-1.88-.1-3.83-.56-5.64-.24-4,.7-6.19-1-5.21-4.45,1.05-3.75,2.27-7.46,3.62-11.87-7,5.42-7.52,5.37-11.41-.77,1-.91,2.46-1.68,2.94-2.85,1.08-2.64.23-6.26,4.18-7.36.22-.06.35-2.14,0-2.37a3.69,3.69,0,0,0-2.81-.23c-1.17.41-2.17,1.31-4.38,2.75-.55-1.36-1.13-2.76-1.7-4.16l-.86.51V528l-.79,1.53c-3.38-5.84-8.09-6-13.27-5-.79.14-2-2.07-2.84-3l-6.32,1.09c.27-6.14,9.53-3.77,7.64-10.93-4.24,2.19-7.87,4.48-11.82,5.86-1.22.43-3.31-1.57-5-2.45,1.06-1.39,1.84-3.33,3.24-4,1.8-.89,4.09-.79,6.43-1.16-.63-1.91-.94-3.16-1.45-4.3-.6-1.33-1.38-2.57-2.09-3.85a16.22,16.22,0,0,0-2.56,3.19C477.52,509.86,471.34,512.68,467.76,510.21ZM48.29,604.78l.8-1.54a9.82,9.82,0,0,1,2,0c11.23,2.39,22.35,5.62,33.7,7,13.66,1.66,27.51,1.92,41.29,2.48,15.72.64,31.46,1,47.2,1.34,18.95.39,37.92,1.19,56.85.69,13.83-.36,27.65-2.3,41.42-4,10.83-1.3,21.57-3.31,32.37-4.91,6.87-1,13.77-1.86,20.66-2.79a4.67,4.67,0,0,0-3.21-2c-15.46-1.93-30.93-3.76-46.38-5.73A135.1,135.1,0,0,1,261.34,593c-1.13-.26-1.93-1.92-2.88-2.94,1-.49,2.1-1.49,3-1.37,15.23,2,30.42,4.15,45.65,6.09,5.83.74,11.73,1,18.07,1.47.29-2.77.51-4.83.62-5.89-18.6-3.53-36.36-7.12-54.22-10.19-9.63-1.67-19.4-2.73-29.14-3.54-7-.59-14.14-.18-21.2-.44-25.13-.92-50.26-2-75.39-2.85-5.34-.18-10.72.77-16.08.87-13.91.28-27.83.19-41.73.62-6.81.21-13.6,1.24-20.4,1.9l-.6-2.34c6.27-2.09,12.4-5.32,18.82-6,11.37-1.24,22.91-1.23,34.38-1.22,21,0,42,.25,63,.64,20,.38,39.94,1.06,60,1.61a19.53,19.53,0,0,0-2.44-.84c-9.79-2-19.54-4.29-29.4-5.84-13-2-26-4.48-39.06-4.91-14.58-.47-29.22,1.21-43.83,1.79-30.95,1.24-62,1.15-92.72,5.8-5.36.81-10.73,1.56-17.19,2.5C22,571.18,24.31,573.79,27,576a86.35,86.35,0,0,0,9,6.56c6.93,4.45,7,4.79-.1,8.76a4.63,4.63,0,0,0-1.57,1.51c-4.36,7-6.14,18.81,3.9,23.65,4.31,2.08,8.41,4.8,12.93,6.16,8.48,2.55,17.16,4.58,25.85,6.36,9.41,1.92,18.93,4.59,28.42,4.63,16.39.07,32.81-1.5,49.2-2.66,7.76-.55,15.52-1.48,23.2-2.73,9.36-1.51,18.64-3.54,27.95-5.35l-.21-1.66c-5.79.26-11.6.88-17.38.69-9.81-.33-19.6-1.31-29.41-1.76-12.61-.58-25.24-1-37.86-1.3-6.64-.17-13.49,1-19.9-.2-16.31-3.16-32.44-7.3-48.61-11.2C50.87,607.13,49.64,605.71,48.29,604.78Zm275.52-186,1.26-.81c-.56-1.07-1.14-2.13-1.67-3.21-4.53-9.1-9.19-18.14-13.52-27.33-2.42-5.14-3.59-11-6.63-15.69-3.29-5.07-8-9.24-12.27-13.64-10.21-10.53-21.14-20.43-30.63-31.57-14.11-16.57-30.59-30.13-48.63-42-1.55-1-3.55-1.35-5.34-2l-1.33,1.29L212.59,302l-1.32.8c-8.85-9.53-20.4-13-32.88-16.1a42.38,42.38,0,0,0,.49,5.52A252.11,252.11,0,0,0,199.48,346c10.85,21,22.58,41.65,34.6,62a116,116,0,0,0,17.74,23.45c13,12.86,26.84,24.81,40.61,36.83,7.52,6.56,15.6,12.48,23.43,18.69l.95-1c-4.38-4.68-9.12-9.08-13.07-14.09-17.95-22.73-39.66-42.12-56.49-65.95a612.44,612.44,0,0,1-39.89-64.17c-.6-1.12.12-3,.23-4.48,1.23.76,2.95,1.22,3.61,2.31,5.4,9.06,10.11,18.56,16,27.3,11,16.44,22.19,32.84,34.27,48.51,9.78,12.69,21,24.27,31.58,36.36,4.36,5,8.64,10.08,13,15.05,6.22,7,12.31,14.21,18.82,21,9.74,10.1,19.79,19.9,29.65,29.76l5.31-4.72c-11.67-13.2-23.32-26.32-34.9-39.49s-22.94-26.23-34.4-39.34l1.59-1.8c1.88,1.38,4.05,2.51,5.6,4.19,9.82,10.6,19.45,21.37,29.24,32,12,13.05,24.26,25.94,36.2,39.09,2.52,2.77,4.63,2.43,7.2.76,2.84-1.84,1.79-4,.43-6.21-10.08-16.6-19.81-33.43-30.28-49.79-7.5-11.71-15.58-23.11-24.11-34.09-18.46-23.73-36.8-47.6-56.33-70.43-12-14.06-26.22-26.28-39.37-39.39a42.28,42.28,0,0,1-3.83-5.18l1.43-1.72c2,.88,4.46,1.31,6,2.72,7.33,6.84,14.7,13.68,21.55,21Q265.6,346.37,284.76,368c6.39,7.19,12.5,14.66,18.34,22.3C310.22,399.66,316.93,409.29,323.81,418.79ZM336.36,519.7l1.25-1.71c-11.08-8.54-22-17.29-33.3-25.56-6.35-4.66-13.55-8.15-19.9-12.81-16.58-12.18-33-24.63-49.28-37.17-3.68-2.83-6.7-6.5-10-9.78.41-.51.82-1,1.22-1.55l12.36,8.06a190.3,190.3,0,0,0-20.19-17.4c-11.67-8.36-23.76-16.12-35.68-24.14-1.8-1.21-3.44-2.9-5.43-3.54q-31.93-10.26-64-20.17c-1.6-.49-3.54.13-6.22.28,3.27,4.18,8.21,6.35,5.65,12.62-7.09-6.89-14.37-4.28-23-1.29,2.34,4.07,4.32,7.68,6.47,11.19,1.06,1.72,2.66,3.12,3.61,4.88,1.47,2.73,2.08,6.07,4,8.38,4.46,5.43,9.41,10.45,14.26,15.53,8.32,8.71,16.37,17.72,25.18,25.9,7.82,7.27,16.36,13.8,24.87,20.28,8.34,6.36,16.41,13.57,25.73,18.05,20.47,9.84,41.66,18.18,62.56,27.14,1.3.56,2.58,1.15,3.87,1.72-9.17-6.62-18.9-12.2-28.5-18-14.58-8.81-29.54-17.09-43.45-26.86s-26.74-21-39.91-31.8a135.9,135.9,0,0,1-12.17-11.47c-1-1.05-.85-3.19-1.23-4.83a34.45,34.45,0,0,1,4.3,1.3c.8.36,1.36,1.25,2.06,1.86,11.87,10.37,23.2,21.46,35.77,30.9,13.43,10.1,27.79,19.06,42.19,27.78,18.52,11.22,37.15,22.35,56.36,32.3,16.58,8.58,34,15.46,51.12,23.08,3.75,1.67,7.52,3.3,11.46,5,1.19-7.33.13-12.46-6.48-15.69-4.62-2.25-8.73-5.56-13-8.57a20.49,20.49,0,0,1-3.14-3.52l1.09-1.1c7.22,4.45,14.41,9,21.7,13.3,1.34.8,3.1.91,4.67,1.33-.8-1.52-1.22-3.61-2.48-4.47-9.19-6.27-18.67-12.13-27.83-18.43-20.63-14.21-41-28.83-61.74-42.86-16.9-11.41-34.24-22.17-51.31-33.34-1.42-.93-2.23-2.78-3.32-4.2,1.86.17,4.07-.27,5.51.59,10.35,6.12,20.78,12.16,30.75,18.87,19.55,13.15,38.73,26.85,58.24,40.07C306.07,500,321.27,509.78,336.36,519.7ZM86,711.68c-.16-.85-.32-1.7-.47-2.55,4.2-.83,8.36-2,12.6-2.43,8.29-.89,16.7-.89,24.91-2.21,7.44-1.19,14.68-3.71,22-5.55,14.31-3.59,28.84-6.5,42.91-10.87,10.74-3.34,21-8.3,31.33-12.87,20.52-9.1,40.86-18.62,61.42-27.61,17.92-7.82,35.6-16.52,55.53-18.34a7.59,7.59,0,0,0,2.51-1.16c-3.1-9.74-9.95-8.46-17.18-6.55-6.66,1.75-13.41,3.22-20.12,4.82l-.6-2L330.56,615c-2.84-5.33-3.15-5.74-7.23-4.9-23.56,4.84-47.05,10.1-70.67,14.61-15.94,3-32,5.78-48.14,7.38-12.88,1.28-25.39,2.47-36.18,10.51a118.19,118.19,0,0,1-11.23,7.26c-16.33,9.48-32.74,18.86-49.09,28.31-5.56,3.22-11,6.55-16.57,9.83,2.59-4.61,5.59-9.08,9.73-11.81,11.19-7.39,22.8-14.17,34.37-21,10-5.88,20.13-11.46,30.21-17.17L165,636c-7.85,2.19-15.87,3.91-23.52,6.67-13.6,4.9-26.95,10.46-40.43,15.66-10.85,4.19-22.18,7.39-32.5,12.61C56.34,677.09,45,684.87,33.39,692.18c-1.77,1.12-2.72,3.52-4.05,5.33,2,1.19,3.8,3,5.94,3.48,6.5,1.58,13.12,2.67,20.59,4.12-2,1.36-3.56,1.92-4.27,3-1.13,1.76-2.45,4-2.19,5.82.15,1.09,3.05,2.24,4.86,2.58a55.8,55.8,0,0,0,10,.85c16.55.07,33.49,5.75,49.44-3.3.16-.09.59.3,1.1.58-.1,1.31-.21,2.66-.36,4.55,22.75-3.05,43.64-10,62.91-21.77C147.32,705.21,117.56,714.66,86,711.68ZM682.93,878.85l1.88-2.08c2.83,1.85,6,3.35,8.41,5.62,3.76,3.49,7.13,1,10.16-.52,1.1-.54,1.38-4,1-6a23.27,23.27,0,0,0-3.31-7.6c-14-21.61-27.8-43.39-45.2-62.51-11.09-12.18-22.28-24.31-34.06-35.82-6.22-6.07-13.81-10.76-20.77-16.07l-.92,1.27c35.43,38.26,66.33,82.31,66.08,95.57-1.85-1.88-3.34-3-4.3-4.43-6.54-9.86-12.41-20.21-19.54-29.61Q622.72,790.85,601.84,766a148,148,0,0,0-21.6-20.64C570.93,738,560.66,731.86,551,725a80.16,80.16,0,0,1-10.15-8.62c-5.12-5.08-9.95-10.46-14.9-15.72l-1.24,1.15q17.13,23.45,34.25,46.88l-1.27,1.45c-2.59-1.72-5.61-3-7.68-5.25-4.28-4.57-8.07-9.6-12-14.46q-17.22-21.07-34.42-42.19c-2.93-3.6-2.89-3.62-6.88-2.17,6.06,8.39,12.2,16.77,18.2,25.24q14.07,19.91,28,39.92c4,5.73,7.8,11.6,11.78,17.35q7.24,10.45,14.63,20.82c3.1,4.36,5.84,9.12,9.57,12.86,6.89,6.88,14.43,13.11,21.62,19.68,10,9.13,19.78,18.49,29.92,27.46,7.31,6.47,15,12.49,22.59,18.65,4.34,3.53,8.71,7,10,13-5.82-2.58-11.6-5.16-16.33-9-9-7.37-17.43-15.47-26.07-23.29-14.85-13.44-30.7-26-44.21-40.63C563.6,794.28,552.9,778.46,542,763c-16.13-22.93-31.63-46.32-47.4-69.51,4.38,11,8.88,21.86,14.91,31.79,11,18.16,22.62,36,34.58,53.54,11.35,16.64,23.22,32.93,35.32,49a204.06,204.06,0,0,0,35.51,37.09c14,11.26,28.13,22.14,44.23,30.4,9.24,4.75,17.83,8.23,26.53-.53a4.74,4.74,0,0,1,1.85-1.23c3.3-1,2.69-2.82,1.24-5.07C686.74,885.34,684.88,882.07,682.93,878.85ZM424.07,490l2.46.37c1-4.23,2.21-8.41,2.81-12.68,2.2-15.8,3.59-31.73,6.42-47.4,3.67-20.28.63-40.72,2.6-61,.12-1.21-.6-2.5-.84-3.77-3.7-19.48-4.6-39.25-1.71-58.73,2-13.59,7.12-26.73,11.06-40,.32-1.07,2.35-1.64,3.59-2.45.43,1.38,1.49,2.92,1.19,4.12-1.74,7-3.31,14.11-5.85,20.84-6.55,17.37-5.89,35.31-4.7,53.26.66,10,2.9,19.84,3.26,29.8,1.23,33.69-2.45,67-8,100.22-.37,2.21-.66,4.43-1,6.64a146.7,146.7,0,0,0,9.29-24.83c1.88-7.15,2.52-14.61,3.87-21.91.85-4.56,1.76-9.18,5.37-12.35l1.71.58c-4.07,24-8.14,48-12.39,73.08,1.42-1.19,2.78-1.81,3.25-2.83,1.55-3.37,3.31-6.78,4.05-10.37,4.29-20.82,9.12-41.58,12.16-62.6,2.66-18.31,3.49-36.91,4.57-55.42,1.42-24.24,2.33-48.51,3.38-72.77.26-6.13.09-12.28.42-18.41.07-1.28,1.46-2.49,2.25-3.73.83,1.18,2.25,2.3,2.38,3.54.32,3.32.07,6.69.08,10,0,12.4.38,24.8,0,37.18-.39,13.85-1.42,27.69-2.18,41.53q-1.08,19.95-2.18,39.91A6.77,6.77,0,0,0,474,396c1.51-6.62,2.79-13.29,4.35-19.89,2.6-11,6.34-21.77,7.82-32.88,2.68-20.07,4.2-40.29,5.92-60.48,1.64-19.19,3.21-38.4,4.2-57.64.37-7.15-.92-14.4-1.61-21.59-.24-2.51-1.66-5-4.3-2.74a142.68,142.68,0,0,0-13.9,13.48c-3.91,4.33-7.23,9.2-10.81,13.83l-2-1.38L475,207.46c-2.84-.89-6-1.14-8.28-2.74-6-4.25-6.84-4.6-11.7.71a31.21,31.21,0,0,0-6.12,9.16c-6.13,15.51-12.79,30.89-17.47,46.84a155.41,155.41,0,0,0-6.59,38.73c-.56,18.3,1.25,36.68,2.19,55,.49,9.47,1.45,18.91,1.89,28.38.55,11.82,1.15,23.65,1.05,35.46-.07,7.75-1.4,15.48-2.08,23.23q-1.71,19.65-3.32,39.3C424.37,484.37,424.25,487.2,424.07,490ZM788.43,634.35c.81-4.28,2.5-7.1,6.86-7,9.92.24,17.81-5.51,26.47-8.94,3.52-1.4,4.64-4.49,2.09-7.69-3-3.74-5.93-7.74-9.69-10.56-11.5-8.64-25.8-9.92-39.14-13.39-7.18-1.87-15.38-3.15-22.41-1.54-11.61,2.65-23,6.38-34.85,8.29-2.45.4-5,.39-8.63.65,15.93,2.64,30.66,5,45.34,7.6,3.91.71,7.64,2.45,11.46,3.71-.11.83-.21,1.66-.32,2.49-2.35.25-4.77,1-7,.68-12.11-1.71-24.12-4.25-36.27-5.47-25.2-2.54-50.44-5.2-75.73-6.28-14-.59-28.05,2.05-42.1,3-18.32,1.29-36.65,2.31-55,3.67-1.79.13-3.46,1.81-5.19,2.77.23.62.46,1.24.7,1.86,3.09,0,6.18-.06,9.27,0,2.84.06,5.66.25,8.49.38v2.17l-20.54,2c.8,1.51,1.56,2,2.38,2.09,18.61,3.05,37.17,6.38,55.84,9,16.3,2.28,32.69,4,49.09,5.46,16.81,1.48,33.66,2.35,50.5,3.42,24.26,1.55,48.52,2.93,72.76,4.68,2.18.16,4.21,2.47,6.32,3.77-2,.77-4.08,2.25-6.09,2.19-16.15-.52-32.29-1.71-48.45-1.94-14.56-.21-29.15,1.14-43.69.68a328.87,328.87,0,0,1-37-3.78c-9.87-1.45-19.51-4.42-29.38-6-18.64-2.92-37.37-5.28-56-7.94-4.2-.59-8.35-1.58-12.56-2.15-4.71-.65-6.71,1.73-6.69,6.49,15.34,1.35,30.48,2.18,45.48,4.1,21.65,2.78,43.23,6.11,64.77,9.67,11.49,1.9,22.76,5.22,34.26,7.07,9.94,1.6,20.1,1.73,30.1,3.06,10.81,1.44,21.51,3.7,32.3,5.27,18.89,2.76,36.77-2,54.32-8.16,1.7-.6,3.21-3.89,3.44-6.08.38-3.55-.36-7.21-.64-10.92ZM501.13,502.28l1,1.83c14.68-5.11,27.22-14.07,39.26-23.52,13.65-10.72,26.29-22.71,40-33.4,18.27-14.27,36.72-28.38,55.82-41.51,15.4-10.58,30.88-21,41.78-36.31,6.82-9.6,12-20.38,17.61-30.8,1.78-3.33.68-7.07-3-8.31-1.57-.54-4.11,1.64-6.14,2.7-.63.33-1,1.24-1.6,1.52-2,.87-4,1.57-6.05,2.33.3-2,0-4.4,1-5.91,5.55-8.11,11.49-15.95,17.11-24,1-1.48,1.21-3.55,1.78-5.35-1.72-.13-3.59-.77-5.14-.32-22,6.38-43.29,14.34-62.22,27.51-13.69,9.53-26.68,20.1-40.74,29-20,12.7-34.28,31.11-49.43,48.53-10.92,12.54-20.22,26.51-29.94,40.06-5,7-9.33,14.42-14,21.65a6.6,6.6,0,0,0,4.08-2.65c16.7-18.89,31.23-39.71,50.15-56.62,12.58-11.24,25-22.69,38.28-33.08,11.66-9.14,24.46-16.83,36.59-25.38,8-5.67,16.7-9.34,26.58-9.57.81,0,2.65,3.08,2.36,3.45-2.12,2.73-4.29,5.72-7.15,7.51-4.84,3-10.37,4.94-15.3,7.84-23,13.55-46.56,26.21-66.51,44.55-22.23,20.45-42.15,43-61.34,66.12-6.85,8.28-11.82,18.11-17.65,27.23l1.86,1.54c14-14.52,27.92-29.2,42.18-43.51s29-28.38,43.51-42.54l1.3,1.21c-5.59,15.77-19.1,25.34-30.2,36.68-11.35,11.6-23.42,22.51-35.17,33.72.48.55,1,1.1,1.45,1.66,10.91-7.54,22.27-14.51,32.63-22.74,13-10.36,25.23-21.76,37.79-32.7,4.6-4,9.15-8.1,13.89-11.94.82-.66,2.5-.25,3.78-.33a18,18,0,0,1-.37,4c-.24.8-1.14,1.43-1.83,2-8.4,7.56-16.75,15.17-25.24,22.62-10.27,9-20.23,18.49-31.14,26.68C529.35,483.85,515.06,492.82,501.13,502.28ZM301.42,673.64l-.45-.84c-13.45,5.9-27.06,11.46-40.29,17.81a237.7,237.7,0,0,0-28,15.62c-7,4.64-13.34,10.52-19.6,16.24q-30.59,27.94-60.87,56.23a293.27,293.27,0,0,0-21,21.18,156.33,156.33,0,0,0-14.56,20.24c-3.21,5.14-.79,9.63,4.76,9.69,4.92.05,6.49,2.23,6.26,6.87-.16,3,1.67,4.55,4.73,3.41,11.77-4.37,23.87-8.09,35.16-13.48a379.6,379.6,0,0,0,37.34-20.93c14.92-9.34,31-17.57,39.38-35.77-8.9,5.55-17,10.92-25.47,15.8-8.22,4.76-16.23,10.12-25.9,12.09a5.83,5.83,0,0,1,2.32-3.62c13-8.21,26.07-16.31,39.1-24.48,6.91-4.33,14.39-8,20.55-13.26,10.46-8.87,20.07-18.73,30-28.17,6.31-6,12.47-12.13,19-17.87,12.21-10.75,24.51-21.42,37-31.81,6.87-5.7,14.29-10.73,20.55-15.39l-8-4.21c-10.94,5.35-20.06,16-32.16,21.85l-1.6-2.26,33-25.15L351.53,652A821.48,821.48,0,0,0,138.78,809.69c.68-3.62,1.66-7.05,3.79-9.47,7.72-8.75,15.38-17.63,23.89-25.58,9.74-9.1,20.49-17.1,30.57-25.85,19.46-16.89,39.25-33.29,61.25-46.88,9.27-5.72,18.07-12.2,27.16-18.21C290.69,680.23,296.09,677,301.42,673.64Zm118.05,31.53h-1.81c0,3.78.2,7.58,0,11.36-.92,14.72-1.77,29.44-3,44.14-1.46,17-3.28,34.05-5.05,51.07-1.38,13.25-2.9,26.49-4.46,39.72-.32,2.76-1.08,5.46-1.65,8.19l-1.49.13c-.72-1.36-2-2.7-2.06-4.07-.11-7.05-.05-14.11.26-21.15.18-4.26.92-8.49,1.42-12.73,2.52-21.16,5.08-42.3,7.54-63.46.83-7.14,1.73-14.3,2-21.48.4-9.06.25-18.15.31-27.22,0-6.12,0-12.23,0-18.34l-.84-.06q-2.91,16.71-5.81,33.42l-2.11-.27c1.14-12.24,2.29-24.47,3.52-37.6-6.11,4.33-27.72,66.77-27.13,75l3-4.54,1.58.46c.16,2.07.77,4.23.4,6.21-3.49,18.89-7.36,37.72-10.68,56.64-2.94,16.72-6,33.47-7.74,50.34-1.25,11.93-.81,24.08-.47,36.1.29,10,1.6,19.94,2.26,29.91.07,1.17-1.08,2.41-1.66,3.62-1.28-.74-3.13-1.17-3.71-2.28a16.45,16.45,0,0,1-1.74-6.41c-.69-9.06-1.89-18.16-1.57-27.2.65-18.14,1.17-36.38,3.6-54.33,2.56-18.85,7.4-37.39,11-56.12,1.21-6.31,1.67-12.77,2.47-19.17-1.56,3.67-2,7.51-3,11.17-3.19,11.37-7.26,22.53-9.79,34-3.26,14.77-5.59,29.76-7.88,44.73-1.62,10.56-3.58,21.25-3.44,31.85.17,12.47,2.14,24.95,3.95,37.34a142.51,142.51,0,0,0,5.09,20.53c.49,1.62,2.81,3.84,4.27,3.82,7.46-.09,11.41-3.46,13.34-10.43,1.27-4.56,2.94-5.28,7-2.71-4.63,8,1.08,15.31,1.88,23,.23,2.23,2.54,5.69,4.32,6,2.41.38,6.45-1,7.62-2.94a67.59,67.59,0,0,0,7.56-17c1.87-7,2.65-14.24,3.33-21.44,1.45-15.33,2.81-30.67,3.68-46,.81-14.25.65-28.55,1.44-42.79,1.16-20.57,3.48-41.09,4.05-61.67C420,756.77,419.47,731,419.47,705.17Zm-102.62-446-1.05,0c-.44-2.64-1.41-5.32-1.24-7.93.59-9-5.56-13.41-11.53-18.08-2.45-1.92-4.29-1.5-5.93,1.16-5.86,9.54-10,19.9-8.55,31,2.5,19.43,5.88,38.76,9.54,58,1.68,8.88,4.88,17.47,7.39,26.19,3.54,12.26,6,25,10.88,36.67,6,14.47,13.61,28.34,21.26,42,12.21,21.88,24.93,43.46,37.68,65,2.22,3.75,5.68,6.76,9.3,11-4.58-9.52-8.55-17.83-12.59-26.11-4.56-9.33-9.39-18.53-13.71-28-4.08-8.9-7.41-18.15-11.51-27-6-12.95-13-25.45-18.39-38.63-7.19-17.65-13.66-35.62-19.57-53.73-3.89-11.92-6.28-24.33-9.3-36.52-1.06-4.29.92-6.12,5.32-6.34.42,1.48.84,2.67,1.1,3.91,2.22,10.5,3.34,21.39,6.83,31.45,7.91,22.86,13.36,46.58,25.46,68,8.16,14.47,14.08,30.21,21.12,45.32q8.08,17.34,16.48,34.54c3.8,7.81,7.69,15.59,11.83,23.23,1,1.84,3.13,3.08,4.75,4.59,1.07-1.83,1.1-2.4.92-2.89-7.14-18.88-14.33-37.73-21.41-56.64a53.94,53.94,0,0,1-2.52-9.61c-.16-.91,1.13-2.07,1.75-3.12,1,.67,2.48,1.15,2.79,2.05,2.84,8,5.13,16.19,8.22,24.09,5.38,13.75,11.19,27.33,16.87,41,1.3,3.14,3.33,4.67,6.94,2.23-2.68-8.08-5.23-16.22-8.08-24.25-5.45-15.35-11.3-30.56-16.56-46-4.61-13.46-8-27.35-13-40.64-11-29.16-22.75-58-34.21-87-1.22-3.1-3.21-6.06-3.64-9.25-.27-2,1.67-4.35,2.62-6.54,1.36,1.13,3.38,2,4,3.44,6.29,14.79,12.29,29.71,18.55,44.53,1.47,3.48,3.57,6.7,5.38,10.05l1.41-.61c-1.89-11.78-3.87-23.55-5.65-35.35-1.34-8.87-2.23-17.82-3.71-26.67a30.81,30.81,0,0,0-3.51-10.34c-3.36-5.75-7.51-11-11.12-16.63-2.36-3.67-4.7-8-9.58-7.14s-9.46,3.23-9.88,9.55C318.81,255.24,317.58,257.2,316.85,259.2ZM538.92,556.82c.37,4.33,2.06,5.71,5.92,4.61,5.87-1.67,11.82-3.07,17.74-4.56,14.91-3.74,30-6.86,44.69-11.35,17-5.18,33.52-11.69,50.34-17.35,4.55-1.53,9.24-2.32,11.85-7.06a6,6,0,0,1,2.67-1.93c12.91-6.36,26-12.38,38.73-19.1,10.63-5.62,21-11.82,31.2-18.16,10.4-6.44,20.57-13.26,30.7-20.12,6.2-4.2,12.14-8.78,18.71-13.55-2-1.63-3-3.16-3.87-3.12-11.88.49-23.75,1.2-35.62,1.86.07-1.59,1.73-2.17,2.79-3.3,1.25-1.34,3.11-3.5,2.74-4.7-.88-2.88-2.35-6.05-6.54-5.51-12.84,1.65-25.85,2.47-38.48,5.12a316.21,316.21,0,0,0-38.84,11.18c-9.7,3.38-19.63,7.14-28.14,12.74-25.68,16.89-50.75,34.71-76,52.3-8.82,6.15-17.38,12.66-26,19l-10.73,7.84,1,1.52c1.81-.73,3.8-1.17,5.39-2.23,9.5-6.34,18.6-13.35,28.43-19.14,16.09-9.49,32.53-18.42,49.07-27.12,4.35-2.28,9.59-2.85,14.42-4.21.37.76.73,1.53,1.1,2.3-2.25,1.55-4.34,3.39-6.75,4.59-9.79,4.83-20.15,8.68-29.42,14.34-15.15,9.27-29.56,19.75-44.41,29.55-5.12,3.38-10.59,6.25-16.12,9.48,13.66-3.38,27.2-6,40.24-10.15,14.08-4.5,27.85-10.06,41.44-15.89,12.22-5.25,23.84-11.85,36-17.22,16-7.09,32.61-13.07,48.51-20.45,15.42-7.16,30.26-15.57,45.46-23.24,2.39-1.2,5.32-1.36,8-2l.75,2.16c-2.48,1.84-4.78,4-7.47,5.47-12.55,6.78-25,13.89-37.9,19.88-17.1,7.93-34.75,14.68-52,22.41-15.54,7-30.52,15.23-46.25,21.7-13.64,5.61-27.93,9.64-42,14.12C559.9,550.83,549.41,553.73,538.92,556.82ZM329.58,575.66c-1.19-2.07-1.63-4.08-2.75-4.59-4-1.82-8.29-3.14-12.47-4.64C296.44,560,278.5,553.57,260.62,547c-1.14-.42-1.83-2-2.74-3.11l1.06-1.42c3,1.08,6,2.23,9,3.24,18.43,6.18,37,12,55.24,18.67,5.18,1.87,7.41.58,9.93-4.82-4.4-.93-8.37-1.39-12.08-2.61-13.72-4.52-27.26-9.58-41.05-13.88-13.39-4.18-27-7.72-40.51-11.46-12.09-3.35-24.29-6.31-36.3-9.93-13.23-4-26.34-8.41-39.41-12.9-12.73-4.38-25.31-9.19-38-13.61-5-1.75-10.22-3-15.36-4.4-7.67-2-15.37-4-23-6a17.74,17.74,0,0,1-3.66-2l.45-1.45c1.57-.13,3.22-.63,4.7-.31,13.36,2.88,26.91,5.13,40,9.07,17.43,5.26,34.33,12.27,51.7,17.77,21.31,6.74,42.86,12.71,64.32,19,13.25,3.86,26.52,7.62,39.77,11.43-19.11-9.56-38.55-18.16-58.09-26.5-30.27-12.92-60.49-26-92-35.8-3-.93-6.06-1.63-9.08-2.46-5.89-1.62-12-2.63-17.61-5-15.81-6.77-32.41-8.69-49.32-9.23a15.29,15.29,0,0,0-3.45.73l-.3,1.29L69,467.37l-.26,1.89a51.84,51.84,0,0,1-5.92,2.05c-4,.9-8.29,1.09-12.16,2.41-8.2,2.78-8.06,4.22-3.76,11.95,5.57,10,15.68,14.24,24.49,19.55C90,516.38,109.1,526.62,128.59,536c9.11,4.38,18.35,9.64,29.09,9.84,4.45.08,8.9.48,13.33.84,5.76.47,11.51,1,17.26,1.57l.29-1.42c-11.43-4.68-22.89-9.28-34.26-14.08-4.46-1.88-10.33-2.08-12.05-9.86,3.25.53,5.93.46,8.15,1.43,18.68,8.11,37.11,16.68,56.79,22.44,16.66,4.87,33.13,10.25,50.19,13.68C280.9,565.17,304.34,570.32,329.58,575.66Zm143,220.14c0,7.54-.24,13.51.05,19.46.48,10-.09,20.27,5.11,29.56,4.78,8.56,9.28,17.29,14,25.87,8.76,15.87,17.15,32,26.56,47.44,10,16.47,25.34,27.84,40.55,39.07,6.75,5,11.91,2.76,13.77-5a12,12,0,0,1,1.8-3.05,13.83,13.83,0,0,1,3,2.1c2.8,3.31,5.43,6.76,8.2,10.26,5.51-4.41,3.44-9.11,2.3-13.41-3-11.25-6.33-22.4-9.32-33.64-1.61-6-4.86-8.73-11.83-8.77-1.67,8.84,6.15,14.48,8.41,23.64-7.16-6.12-11.94-12-13.87-19.71-1.07-4.33-2.57-7.73-7.6-9-3.14-.77-6-2.94-8.77-4.78-.76-.5-.83-2.06-1.21-3.14,1.08-.35,2.18-1,3.25-1,.88,0,1.73.9,2.6,1.4l.83-1-5-3.19.67-1.18,7.7-.62c-.95-3.73-1.59-7.13-2.7-10.37-6.13-18-12.26-36-18.63-54-4.77-13.44-9.64-26.85-14.93-40.09-6.87-17.2-13.93-34.34-21.41-51.28-5.23-11.87-11.27-23.39-17-35-1.27-2.57-2.78-5.07-7.15-2.25L482.69,721l-1.09.52L477.44,717c5.14,18.34,10.53,35.4,9.66,53.56A8.79,8.79,0,0,1,484,766c-2.94-10.3-6.07-20.57-8.58-31-2-8.25-2.92-16.74-4.82-25-1.35-5.88-3.52-11.57-5.33-17.35l-2,.55c.69,4.85,1.44,9.7,2.05,14.56,2.06,16.68,5.2,33.32,5.75,50.05.42,12.93,3.8,24.95,8.13,36.47,7.35,19.59,16.41,38.56,25.35,57.5,6.7,14.19,14.12,28,21.63,41.82,7.33,13.48,15.24,26.64,22.76,40,2.53,4.48,4.66,9.18,7,13.77L554,948.81c-1.59-1-3.63-1.63-4.68-3-5.1-6.84-10.72-13.45-14.72-20.92-12.68-23.7-25.16-47.53-36.87-71.72C488.92,834.87,481.38,816,472.58,795.8ZM394.53,202.54c-8.4,4.28-9.64,7.73-9.42,14.07.28,8.17-.72,16.38-1.16,24.58l-2.29.18-2.74-20.06c-2.38,1-5.11,2.82-8.08,3.35-5.18.93-7.78,4.45-9.31,8.67a46.06,46.06,0,0,0-2.84,13,220.28,220.28,0,0,0,7.45,72.7c1.08,3.87.89,8.07,1.43,12.1,1.57,11.57,2.38,23.33,5,34.66,3.94,16.93,9,33.61,13.94,50.29,3.46,11.71,7.46,23.25,11.4,35.46-3.32-18.7-6.78-36.7-9.67-54.79q-6.28-39.27-11.86-78.65c-2.11-14.86-3.73-29.8-5.14-44.75-.16-1.75,2.42-3.75,3.73-5.64,1.06,1.46,3.09,3,3,4.36-.91,19.62,3,38.73,6.05,57.9,4.6,29.25,9.84,58.39,14.43,87.63,3.18,20.28,6,40.59,15.12,60.66-2.28-18.63-4.46-36.08-6.52-53.54Q403.91,397.88,401,371c-.13-1.26,1-2.67,1.58-4l2.22.13C407,384.43,409,401.72,411.33,419s5.16,34.43,7.94,52.8a29.19,29.19,0,0,0,1.32-4.71c.85-11.28,1.7-22.57,2.37-33.86.74-12.5,2.39-25.08,1.67-37.51-1.32-22.76-4.74-45.39-6.07-68.14-1.14-19.29-.33-38.64,4.75-57.55a13.13,13.13,0,0,0-.33-6.45,166.39,166.39,0,0,0-17.65-41.71C401.63,215.57,398.21,209.14,394.53,202.54ZM522.24,663.06c-.33.54-.67,1.07-1,1.6a3,3,0,0,0,.34,1c.73.84,1.49,1.65,2.28,2.44,10.34,10.37,20.41,20.89,33.39,28.37,11.35,6.54,21.49,15.17,32.83,21.74,21.45,12.45,43.24,24.33,65.14,36C675.63,765,695.9,776.27,718,783.61c4.41,1.46,8.09,5.11,12.11,7.75-.31.62-.61,1.24-.91,1.86-3-.59-6.18-.69-8.92-1.85-15.61-6.65-31.44-12.89-46.56-20.54q-35.91-18.18-70.94-38.09c-15.89-9-31-19.47-46.46-29.25-10.55-6.66-20.74-13.67-28.56-23.69-2.81-3.6-6.41-6.58-9.43-9.64l-5.31,4.4c6.44,11.34,15,20.08,24.05,28.67,16.28,15.36,33.82,28.8,53.63,39.1,10.87,5.65,22.42,10,33.43,15.39,21.27,10.43,42.25,21.45,63.6,31.71,15.84,7.6,32.11,14.29,48.11,21.57,5.38,2.46,10.17,1.07,14.78-1.51,6.29-3.52,6.79-11,1.33-15.26a3.9,3.9,0,0,1-1.25-2.6c0-.37,1.44-1.24,2.14-1.15,1.77.23,4,.32,5.15,1.42,4.88,4.88,11.86,3.43,17.43,6.15,1.15.56,3.08-.48,4.64-.79-.47-1.47-.59-3.22-1.48-4.38-13.51-17.63-28.9-33.38-47.14-46.15-4.09-2.87-8.34-6.24-14.12-4.4l3.52,5.1-1.23,1.6c-3.19-1.52-6.79-2.53-9.47-4.68-4.06-3.25-8.48-4.81-13.46-5.84-9.24-1.9-18.38-4.33-27.55-6.57a263.5,263.5,0,0,1-54.47-20.36c-12.63-6.26-25.81-11.67-37.67-19.15-15.62-9.86-30.15-21.42-45.25-32.1-1.76-1.25-4.14-1.61-6.24-2.38l-.58,1.49,39.16,30.64-1.41,1.85Q542.48,677.48,522.24,663.06ZM350.48,688.53l-1.73-1.83c-10.2,8.94-20.45,17.84-30.6,26.84-5.69,5.05-10.78,10.88-16.9,15.3-18.61,13.46-35.38,28.65-48.92,47.31-5.44,7.5-11.87,14.31-17,22-7.6,11.4-14.5,23.26-21.59,35Q200,856,186.39,878.85c-5.36,9-4.23,18.19-.65,28.32,3.07-2.52,5.72-4.49,8.12-6.72,2.62-2.45,5.2-4.49,9.39-2.93-.9,1.93-1.61,3.45-2.34,5,7.29,3.88,12.28-.74,17.06-4.11,9.52-6.72,18.68-14,27.85-21.17,11.51-9.06,23-18.15,34.23-27.55a34.26,34.26,0,0,0,8.32-10.1c5.14-9.88,9.6-20.1,14.35-30.17,1.09-2.32,2.2-4.63,3.36-6.91s2.35-4.46,3.54-6.69c-20.2,20.1-37.54,42.64-60.4,60-.35-2.36-.19-4.42.86-5.82a87.28,87.28,0,0,1,7.07-7.85c12.14-12.75,24.5-25.3,36.4-38.27,7.49-8.15,14.55-16.74,21.37-25.47,10.81-13.85,21.31-27.95,31.85-42,1.88-2.52,3.11-5.53,5-8.07,12-16.46,24.19-32.85,36.24-49.31a10.33,10.33,0,0,0,1-3.08l-1.76-1.14c-4.36,5.27-9,10.3-13,15.84-13.83,19.29-27.32,38.83-41.2,58.09-2.29,3.18-5.9,5.41-8.9,8.07l-1.74-1.62q28.13-40.23,56.24-80.48a5.71,5.71,0,0,0-3.42,1.59q-15.58,16.22-31.08,32.51c-6.59,7-12.95,14.14-19.57,21.08-8.13,8.51-16.65,16.67-24.58,25.36-7.26,7.95-13.94,16.42-20.93,24.63-11.5,13.52-23.21,26.86-34.5,40.55-9.89,12-19,24.61-29.07,36.45-7.82,9.2-15.79,18.14-20.11,29.66-.38,1-1.06,2.31-1.92,2.65a22.5,22.5,0,0,1-5,.84c0-1.35-.53-3,0-4,6.23-11.57,12.17-23.33,19.12-34.46,5.24-8.41,11.84-16,17.8-23.92,9.33-12.45,18.24-25.23,28-37.3,12.6-15.53,25.31-31.05,39.06-45.54,12.22-12.87,26.05-24.22,38.93-36.48C338,702,344.13,695.14,350.48,688.53ZM280.29,933.76c.29-3.11.18-6.1.89-8.88,3.69-14.32,7.19-28.72,11.55-42.84,3.59-11.68,7.21-23.56,12.7-34.4,13.66-27,28.45-53.38,42.67-80.08,10.38-19.49,23.43-37.56,31.16-58.47a44.38,44.38,0,0,1,2.41-4.36c.65-1.28,1.15-2.63,1.72-4l-1.5-.78c-3.21,4.68-6.39,9.39-9.65,14-6,8.49-12.34,16.7-17.87,25.45-7.61,12-14.73,24.39-21.81,36.74q-13.8,24-27.15,48.34c-4,7.32-7.07,15.14-11.06,22.46-9.43,17.26-13.3,36.22-16,55.26-1.84,12.94-1.17,26.25-1.5,39.4-.16,6.54,0,13.1,0,19.65,4.46-4,7.67-8.09,14.14-8.61a22.7,22.7,0,0,1-1.07,2.79c-3.19,5.29-2.51,9.25,2.84,11.62,4.1,1.82,6.31-1.8,8.5-4.52.69-.86,1-2.08,1.75-2.83a37.67,37.67,0,0,1,3.87-3c.26,1.68,1.07,3.5.67,5-.79,3-2.7,5.78-3.23,8.81a8.43,8.43,0,0,0,1.8,6c.58.72,3.8.28,5-.67a34.18,34.18,0,0,0,6.31-7c8.87-12.55,17.62-25.19,26.36-37.83a4.12,4.12,0,0,0,.77-2.55c-.76-7.44-1.64-14.88-2.53-22.81-4.25,9-8,17.35-12.14,25.57-8.54,17-11.64,21.07-16.73,21.67,1.89-4.66,3.46-9.1,5.46-13.33,6.89-14.57,14.15-29,20.77-43.65,2.17-4.8,3.14-10.24,4-15.49,1-5.8.61-11.87,2-17.56C351,839.4,357,815.86,363,792.31c1.73-6.83,3.65-13.62,5.48-20.42a2.53,2.53,0,0,0-1.95,1.66c-5,12.76-9.92,25.55-15,38.28-.69,1.73-2.23,3.12-3.38,4.68l-1.66-.8c.61-3.4.77-7,1.91-10.16,3.91-11,7.9-21.9,12.35-32.64s9.33-21,14.12-31.4c1.91-4.13,4.07-8.14,6.12-12.21l-1.35-.73a67.92,67.92,0,0,0-4.05,5.86c-6.79,12.31-13.43,24.69-20.22,37C347,786.51,338,801.27,330.39,816.68a453.47,453.47,0,0,0-20.6,47.18c-7.79,21.61-14.12,43.74-21,65.68C287.58,933.45,285.3,935,280.29,933.76ZM660.06,446.21a32.5,32.5,0,0,0,4-.76c12.41-4.3,24.72-8.91,37.23-12.89,9.91-3.16,16.45-10,21.35-18.5q13.33-23.15,25.8-46.78c1.17-2.19,1.5-6.5.18-7.89-1.55-1.63-5.4-1.71-8.12-1.39-2,.24-4.07,1.92-5.59,3.46-3.9,4-7.33,8.38-11.34,12.2-1.42,1.34-4,1.46-6,2.14.26-2.1.15-4.33.87-6.26,1.27-3.42,3.23-6.58,4.55-10,1.4-3.61.38-6.31-3.34-8.23-4-2.07-22.41,3.13-25.69,8.05-13.08,19.69-28.79,36.36-49.21,49-14.92,9.22-28.55,20.58-42.42,31.41q-20.34,15.9-39.93,32.72c-13.07,11.29-25.62,23.17-38.39,34.79l-9,8.13,1.32,1.53c5-4,10-7.84,14.88-12,13.22-11.37,25.89-23.43,39.6-34.17,17.07-13.37,34.86-25.85,52.62-38.32,3-2.09,5.76-6.64,12.32-3.85-17.62,17.61-39,28.66-57.36,43.58s-36.14,31-54.16,46.57l1,1.33,16-9,1.22,1.8c-4,3-7.86,6.14-12,8.83-6.79,4.37-7.19,8.4,0,14.51,18.33-14.27,37-28.6,55.39-43.17,9.89-7.82,19.49-16,29.19-24.09,16.14-13.4,32.79-26.25,48.21-40.43,13.39-12.29,25.31-26.17,38.06-39.18,2.22-2.27,5.3-3.69,8-5.51l1.86,2.16C697,408,676.65,424.85,660.06,446.21ZM469.77,977.65c.36-2.21,1.08-4.35,1-6.45-.35-7.73-.91-15.44-1.51-23.15-.92-11.75-2.43-23.48-2.81-35.25-.71-21.52-.72-43.06-1.11-64.58-.16-9.16-2.31-18.05-1.77-27.46.51-8.83-2.95-17.89-4.66-26.85-2.19,12.76-3.92,25.46-3.84,38.15.1,13.85,2.32,27.68,2.83,41.54q1,28,.71,56c-.07,6.55-1.88,13.1-3.23,19.59-.26,1.26-2.08,2.2-3.18,3.29-.58-.81-1.66-1.63-1.64-2.43.15-5.93.6-11.86.79-17.79.27-8.11.89-16.25.46-24.33-.7-13.31-2.24-26.58-3.19-39.88-.38-5.38,0-10.8-.18-16.19-.37-13.91-1.16-27.82-1.18-41.72,0-11.5,1.48-23,1.14-34.49-.56-19.07-2-38.13-3.21-57.17-.42-6.45-1.34-12.87-2.32-19.26-.19-1.25-1.7-2.29-2.6-3.43a5.33,5.33,0,0,0-1.19,4c1.23,9.73,2.58,19.44,3.69,29.18.16,1.36-.8,2.85-1.31,4.47-.56,23.94-1.12,48.22-1.69,72.49l-2.18.27c-1.11-4.88-3-9.74-3.16-14.65-.31-10.31.26-20.65.57-31,.12-3.87.89-7.75.75-11.61-.43-11.5-1.06-23-1.82-34.47-.34-5.18-1.16-10.32-1.82-15.48-.61-4.86-3.89-5.92-8.69-6,.57,13.58,1.11,26.72,1.68,39.85.48,11.07,1.23,22.13,1.45,33.2.14,7-.52,14-.73,21-.5,17.38-.82,34.77-1.47,52.15-.79,21.27-1.59,42.54-2.86,63.78-1,16.28-2.76,32.5-4,48.77-.25,3.33-.31,7,.9,10,2.64,6.52,5.5,13.16,9.53,18.86,2.68,3.8,7.2,7.73,11.5,8.59,5.42,1.09,8.5-4.35,10.61-9s3.7-9.72,6-14.34c.82-1.63,3.08-2.54,4.69-3.77.54,1.83,1.7,3.74,1.5,5.49C461.55,973.72,462.38,975.18,469.77,977.65Zm1.8-513.83,2.61.84-5.46,23.18,1.58.71c3.49-7.35,7.24-14.59,10.41-22.08,5.43-12.79,9.75-26.1,15.9-38.52,8.26-16.68,17.62-32.75,23-50.77,4.3-14.35,10.61-28.15,14.15-42.66,4.93-20.14,8.17-40.7,12-61.11.89-4.74.86-9.64,1.77-14.37.26-1.39,2.27-2.44,3.48-3.65.7,1.33,2,2.67,2,4-.11,7.24.26,14.62-1,21.68-3.09,17.14-7,34.13-10.7,51.79a41,41,0,0,0,3.38-4.87c5.7-11.58,15.7-20.55,18.07-34.34,2.68-15.63,8-30.79,11.49-46.31,1.4-6.22,1.19-12.84,1.32-19.29,0-1.53-1.53-3.08-2.37-4.62-1.53.91-3.34,1.54-4.56,2.77-5.11,5.16-10.35,10.27-12.81,17.43-.35,1-1.25,1.83-2.58,3.72-.35-2.44-.64-3.65-.68-4.87-.17-5.57.14-11.19-.49-16.71-.77-6.8-4.09-8.44-9.56-5.3a8.46,8.46,0,0,0-2.56,2.78c-4.44,6.86-9.09,13.61-13.16,20.69-8.49,14.77-16.71,29.7-24.92,44.64-1.48,2.69-3.06,5.62-3.43,8.59-1.42,11.59-1.7,23.35-3.66,34.83q-4.77,27.92-11.23,55.52c-3.15,13.54-7.59,26.78-11.31,40.18-.9,3.24-1.23,6.63-1.83,9.95a79.47,79.47,0,0,0,7.21-16.75c3.82-12,6.75-24.3,11.31-36,8.37-21.45,17.68-42.53,26.56-63.78,4.69-11.21,7.54-23.31,16.33-32.48,1.52-1.58,2.47-3.69,3.69-5.56l2.15,1c-29.81,65.87-55,133.42-74.27,203.09Q467.45,475.52,471.57,463.82Zm210.92,62.81c17.33-.72,35.62-1.7,53.92-2.14,12.21-.3,24.44,0,36.65.41,3.64.12,7.23,1.5,10.85,2.31,0,.67,0,1.34.05,2-1.92.48-3.84,1.36-5.76,1.37-14.1,0-28.21-.59-42.29-.06-17.92.67-35.88,1.62-53.69,3.59-13.3,1.47-26.75,3-38.43,11.34-4.42,3.13-10.62,4.18-16.18,5.2-18.52,3.4-37.45,4.5-55.46,10.69-7.35,2.52-15,4.12-22.48,6.32-2.43.71-5.66,1.67-4.25,5.09.49,1.2,3.53,1.82,5.42,1.87,4.15.1,8.31-.33,13.54-.6-7.19,5.29-17,1.24-23.6,9.18,7.8,0,13.93.45,20-.08,16.22-1.44,32.38-3.73,48.62-4.84,14.38-1,28.83-.91,43.26-1.2a236.19,236.19,0,0,0,61.36-9c17.74-5.16,35.73-9.49,53.56-14.37,16.22-4.45,29.21-13.53,38.34-27.83a46.07,46.07,0,0,0,2.27-4.74c-1.41-.63-2.52-1.52-3.67-1.59-13.28-.78-26.56-2.06-39.84-2-18.91.1-37.82,1.49-56.73,1.78C698.16,519.53,689.11,520.88,682.49,526.63Zm-184-72.08.87.65c2.62-4,4.95-8.27,7.91-12,15.23-19.37,30.94-38.38,45.88-58,17.23-22.61,40.13-38.29,63.45-53.52,6.65-4.34,11.57-9.62,14.1-17.17,1.18-3.49,2.83-6.83,4.12-10.29,4-10.78,8-21.54,11.67-32.42.5-1.47-.63-3.92-1.72-5.38s-3.22-2.56-4.71-3.67c-1.87,3.17-3.64,6.15-5.4,9.14l-2.32-1.06c1.34-4,2.11-8.37,4.19-12,2.35-4,1.84-6.81-1.55-9.79a10.93,10.93,0,0,0-2,.83c-9.89,6.85-20.06,13.34-29.55,20.7-9.94,7.71-20.58,15.12-28.55,24.65C554,320.2,540.09,349.43,527,379c-7.34,16.63-15.45,32.92-23.28,49.33-2.55,5.36-5.29,10.62-7.95,15.92a4.35,4.35,0,0,0,2.68-2.34c12.16-21.47,23.59-43.41,36.67-64.3,11.19-17.86,24.05-34.7,36.62-51.66,8.37-11.29,17.54-22,26.34-32.95,1.6-2,2.83-4.5,4.84-5.88,1.21-.83,3.6.06,5.45.18-.43,1.4-.49,3.11-1.36,4.14-3.1,3.66-6.79,6.84-9.69,10.64-7.41,9.73-14.57,19.65-21.72,29.58-12.81,17.76-26.52,35-38,53.52C523.58,407.73,511.44,431.39,498.51,454.55ZM343.16,638.36c-3.67-3.23-6.8-3.57-11.13-1.78-13.14,5.4-26.84,9.06-39.46,16.19-16.88,9.53-35,16.7-50.94,28.18-19.84,14.3-40.16,27.94-60.41,41.67-6.57,4.46-13.6,8.24-20.37,12.41-6.62,4.08-13.28,8.11-19.75,12.42-9.32,6.23-18.48,12.69-27.71,19,.71-2.67,1.73-5.81,3.87-7.56,9.09-7.45,17.84-15.7,28-21.4a397.66,397.66,0,0,0,42.22-27.26c16.23-12,33.3-22.88,50-34.25,2.54-1.73,5.06-3.49,7.59-5.23-11.1,5-21.88,10.29-32.58,15.75-5.78,3-11.45,6.13-17.11,9.3-13.07,7.29-25.89,15-39.2,21.87-14.48,7.41-29.77,13.29-44,21.16-9.46,5.24-17.74,12.67-26.3,19.43-1.62,1.28-3.41,5.22-2.83,5.86a15,15,0,0,0,7,3.8c2.47.69,5.2.43,8.45.63-.9,1.54-1.28,2.14-1.6,2.77-1,1.93-1.93,3.86-2.89,5.8,2.54.32,5.07.72,7.61.93,1.8.15,3.62,0,7,0l-7,8.89c7.92-1.26,14.48-2.14,21-3.37,11.55-2.21,22.78-4.87,30.68-15,3.84-4.93,8.78-9,13.43-13.29,10.25-9.39,20.65-18.6,30.94-27.94,9.2-8.34,17.55-17.89,27.69-24.87a532.44,532.44,0,0,1,51.57-31.41c20.56-11,42-20.36,63-30.48A26,26,0,0,0,343.16,638.36ZM818.59,545c-5.93-2.5-9.84-4.8-14-5.59-1.74-.33-4,2.69-6.18,4-1.25.74-2.86.87-4.12,1.61s-3,1.85-2.91,2.71c.23,4.32-2.78,5.41-5.82,6.32-22.47,6.78-44.92,13.62-67.46,20.15-20.16,5.85-40.62,10.06-61.75,10.33-7.79.1-15.6.41-23.35,1.15-17.14,1.63-34.23,3.68-51.36,5.38-11.76,1.16-23.55,2-35.53,3-.2,3.45,2.08,3.84,5,3.65,15.89-1,31.79-1.75,47.66-3,20.85-1.62,41.68-3.62,62.51-5.46,5.53-.48,11.08-.78,16.59-1.44,10.35-1.25,20.68-2.63,31-4.07,16.16-2.24,32.83-2.8,48.32-7.35,17.31-5.09,33.65-13.58,50.13-21.2C811.28,553.36,814.16,549.12,818.59,545Zm-305,213.4c3.64,7.83,7.58,15.39,10.72,23.28,5.6,14,11,28.22,16,42.49,5.08,14.49,9.68,29.15,14.34,43.78,2,6.35,3.69,12.81,5.54,19.22,1,3.51,6.82,7,10,5.81,4.6-1.78,1.61-5.19,1-7.6-2-8.25-4.38-16.4-6.71-24.56C561,848.91,557.76,837,554,825.13c-3.56-11.3-6.43-23-11.75-33.5-6.39-12.59-15-24-22.47-35.61Zm-61.05-65.83-1.59,1.09Q456,736,461.13,778.23c.2-13-.72-25.88-1.55-38.74-.81-12.68-1.28-25.39-2.51-38C456.77,698.39,454.11,695.54,452.53,692.58ZM327.91,582.83c.11-.53.23-1.07.34-1.6L258.4,566.48C280.54,576.66,304.13,580.19,327.91,582.83Zm170.89,136c2.42,11.58,9.75,26.5,14.85,28.69Zm22-20.53,1.16-.91q-7.85-9.17-15.68-18.35l-1.45,1.25Z" transform="translate(-10.09 -193.91)"/><path d="M432.16,551.17c-.72-5-.3-9.76-2.22-13.26s-6.17-5.58-10.18-9c.65-3,4.37-3.14,6.68-1.47a109.3,109.3,0,0,1,14,12.7c.76.78.32,3.83-.62,4.91C438,547.22,435.38,548.71,432.16,551.17Z" transform="translate(-10.09 -193.91)"/><path d="M510.55,570.85l-15.17,9.44c.83,5-.83,7.49-5.89,8.19a3.71,3.71,0,0,1-2.47-.63c-.35-.26-.31-1.41-.07-2,.87-2.27,2-4.43,2.84-6.72,2.15-6,8.13-7.62,12.7-10.65C503.74,567.63,506.91,569.68,510.55,570.85Z" transform="translate(-10.09 -193.91)"/><path d="M389.25,571.42c.37-1.87.18-3.83,1-4.36,2.23-1.5,9,3.28,12.27,9.15h-7.22c3.78,4.56-2.32,4.91-3.66,7.56-.13.26-1.45.3-1.51.15a64,64,0,0,1-3.61-9.66C386.31,573.46,388.57,572.09,389.25,571.42Z" transform="translate(-10.09 -193.91)"/><path d="M442.16,581.57c-.43-6.41,4.6-7.73,6.6-11l5.33,3.94c3.51-9,7.77.52,11.76-1.68.13.67.27,1.35.4,2-1.44.6-3.16,2-4.27,1.65-4.54-1.56-4.21.75-3.71,3.85.19,1.2-.33,2.52-.52,3.78-1.35-.55-2.73-1-4-1.69a4.32,4.32,0,0,1-1.59-1.47C448.36,574.9,447.34,574.82,442.16,581.57Z" transform="translate(-10.09 -193.91)"/><path d="M460.22,527c-5.05-.7-10.3-1.29-15.48-2.27-1.28-.24-2.32-1.75-3.46-2.67,1.14-.64,2.23-1.65,3.44-1.82,1.77-.26,4-.54,5.36.29,3.9,2.34,6.63,2.44,9.05-2,.5-.92,3.35-.57,5.12-.8-.25,1.67-.2,3.46-.85,5S461.41,525.4,460.22,527Z" transform="translate(-10.09 -193.91)"/><path d="M448,616.31c4.65-3.43,4.61-6.58-2-10.12,3-.54,5.26-1.21,5.39-.92,2.21,4.87,6.33,4.52,10.52,4.21.45,0,.93.45,1.38.68C461.36,618,454.13,621.2,448,616.31Z" transform="translate(-10.09 -193.91)"/><path d="M495,616.08c-.12,2-.26,4.39-.45,7.42-4.49-2.15-6.73-4-4.31-8.45.68-1.27-.43-3.48-.66-5.26-.17-1.28-.26-2.57-.38-3.85a21,21,0,0,1,3.44,1.65c4.05,3,8,6,12,9.06l-.42,1.61Z" transform="translate(-10.09 -193.91)"/><path d="M443,645.26c-.71.88-1.69,2.59-2,2.47-1.17-.42-2.76-1.31-3-2.31-.71-2.9-.89-5.64-5.2-4.69-.78.17-2.89-2-2.92-3.11,0-1.53.93-3.83,2.17-4.51,3.82-2.1,8.56,1.27,9,5.78C441.22,640.86,442.18,642.75,443,645.26Z" transform="translate(-10.09 -193.91)"/><path d="M479,656.71c.67-1.22,1.35-2.44,2.39-4.31l-6.87-3.64c.71-2.41,1.43-4.84,2.26-7.68,2.42-.39,5.12-1.06,3.83,3.49a3.41,3.41,0,0,1-.23.49c6.55,3.38,3.45,10.14,5.54,16.9-2-.86-3.53-1.18-4.6-2a15,15,0,0,1-2.42-3.32Z" transform="translate(-10.09 -193.91)"/><path d="M462.52,599.54c3,1.11,6.59-4.06,9.39,1.36.22.43,2.61-.39,4-.39,2.09,0,4.18.19,6.27.3l.34,1.53-13.59,6.24-6.94-7.8Z" transform="translate(-10.09 -193.91)"/><path d="M388,591l4.76,1.39L390,597.48c-2.26-.58-4.43-.69-6-1.68-1.18-.72-1.85-2.54-2.34-4-.28-.84.52-2,.37-2.94a30.46,30.46,0,0,0-1.3-4.28c2.24.36,4.68.31,6.62,1.27C388.1,586.21,387.76,588.83,388,591Z" transform="translate(-10.09 -193.91)"/><path d="M380.27,566.36l-7.39,5.83a2.36,2.36,0,0,1,.92,1.4c.15.91-.41,1.93-.67,2.9-.79-.26-2.28-.55-2.27-.79.15-5.05-9.37,1.63-6.74-5.46.52-1.4,4.23-1.53,6.39-2.44,1.35-.56,2.49-1.63,3.83-2.22a48.57,48.57,0,0,1,4.78-1.57C379.5,564.8,379.88,565.58,380.27,566.36Z" transform="translate(-10.09 -193.91)"/><path d="M423.43,563.43l-8.13-6.7c2.25-4.8,5.05,1.64,7.68.86,1.56,5.43,3.82,2.86,6.41.76,1.07-.87,2.86-.86,4.32-1.24-.58,1.36-.78,3.39-1.81,4a97.49,97.49,0,0,1-9.79,4.32Z" transform="translate(-10.09 -193.91)"/><path d="M396.91,606.94c-2.53-1.12-5.13-2.11-7.53-3.46-.52-.3-.31-1.89-.44-2.89a12.54,12.54,0,0,1,3.28-.11,26.1,26.1,0,0,1,5.83,1.94c1.72.88,4.67,2.76,4.48,3.37-.77,2.39-2.47,4.51-4,6.57-.23.29-2.06-.06-2.41-.59a3,3,0,0,1-.15-2.79c.62-.77,1.94-1,3-1.41Z" transform="translate(-10.09 -193.91)"/><path d="M439.24,587.09c4.23.2,8,.21,11.8.64,1.21.14,2.29,1.4,3.43,2.14-1.23.89-2.34,2.15-3.72,2.57-1.66.51-3.55.19-5.32.43C440.91,593.46,439.18,591.78,439.24,587.09Z" transform="translate(-10.09 -193.91)"/><path d="M415.05,664.53l12.27-9.63c-1.13,5-1.54,9.05-3.08,12.65-.73,1.7-3.53,3.51-5.23-.36C418.53,666.09,416.7,665.59,415.05,664.53Z" transform="translate(-10.09 -193.91)"/><path d="M429,583.21c-3.81,8.68-6.16,9.24-11.6,3.32-.49-.54.18-3.16.41-3.18C421.33,583.15,424.87,583.21,429,583.21Z" transform="translate(-10.09 -193.91)"/><path d="M413,638.24c-1.28-2.56-1.88-3.78-2.2-4.42l-11.54,2.86c4.45-6.87,11.6-7.75,17.41-3.26Z" transform="translate(-10.09 -193.91)"/><path d="M369.94,580.9c-2.1,2.92-5.4,3.28-7.65.45-1.11-1.4-2.71-2.57-3.33-4.14-.46-1.17.28-2.83.48-4.27a21.82,21.82,0,0,1,3.72,1.94C365.38,576.66,367.42,578.65,369.94,580.9Z" transform="translate(-10.09 -193.91)"/><path d="M403.94,606c3.35-1.73,6.67-3.54,10.12-5,.26-.11,2.06,2,2.15,3.19.11,1.47-.8,3-1.34,4.81l-10.75-1.59Z" transform="translate(-10.09 -193.91)"/><path d="M409.86,617.8a34,34,0,0,1-5.36,1.71c-1.05.17-2.24-.5-3.37-.8.38-1.1.56-3,1.16-3.16A110.34,110.34,0,0,1,414,613.67c.28,0,1.22,1.92,1,2.08a52.75,52.75,0,0,1-4.48,3.5Z" transform="translate(-10.09 -193.91)"/><path d="M412.86,643.4l-6.24,4.23L399,640.75C405.06,638.89,409.19,639.37,412.86,643.4Z" transform="translate(-10.09 -193.91)"/><path d="M392.66,636.5l-10.21-7,10.44-3.06c.39,2.83.76,5.55,1.14,8.28Z" transform="translate(-10.09 -193.91)"/><path d="M430.78,551.4c-3.64.6-6,1.25-8.26,1.14-.47,0-1.63-3.51-1-4.34,1.37-1.86,3.65-3.06,5.56-4.53Z" transform="translate(-10.09 -193.91)"/><path d="M418.52,574.82c4.55-3.22,8.47-5,11.84-.67.66.85.65,2.21,1,3.33-1-.09-2.07-.16-3.09-.29a54.1,54.1,0,0,1-5.57-.79A30.62,30.62,0,0,1,418.52,574.82Z" transform="translate(-10.09 -193.91)"/><path d="M452.87,623.82c1.45,3.54,2.79,6.11,3.47,8.84.26,1-1,2.41-1.62,3.63-2-2.38-5.09-4.5-5.79-7.22C448.32,626.7,450.22,623.45,452.87,623.82Z" transform="translate(-10.09 -193.91)"/><path d="M518.37,565.22l-4.29,5.47-3.18-3.62a6.39,6.39,0,0,1-1.12-1.22c-.52-1.13-.9-2.32-1.34-3.48a34.28,34.28,0,0,1,4.31.53c1.7.43,3.34,1.12,5,1.7Z" transform="translate(-10.09 -193.91)"/><path d="M407.87,540.24l3.94,3.4c.22-1.57,0-3.07.64-3.69s2.24-.66,3.41-.94c-.36,2.42-.72,4.83-1.09,7.25-2.25-.4-4.68-.43-6.7-1.36-1-.45-1.24-2.55-1.83-3.91Z" transform="translate(-10.09 -193.91)"/><path d="M479.7,672.57c-.94,3-1.57,5-2.21,7-1.51-2.27-3.37-4.41-4.33-6.89-.29-.72,2-2.43,3-3.69Z" transform="translate(-10.09 -193.91)"/><path d="M364.67,566.32l-3-3.57c2.89-1.62,5.73-3.34,8.72-4.74.37-.17,1.54,1.36,2.35,2.11Z" transform="translate(-10.09 -193.91)"/><path d="M461,544.57c-2,6.27-5.94-.13-8.61,1.26.18-1.78.05-3.7.72-5.27.24-.56,2.76-.84,3.64-.28C458.35,541.29,459.51,543,461,544.57Z" transform="translate(-10.09 -193.91)"/><path d="M460.47,661.14c2.58-4.73,4.42-8.13,6.27-11.52l2.52,1.23c-1.33,3.43-2.53,6.93-4.14,10.22C464.87,661.58,462.7,661.14,460.47,661.14Z" transform="translate(-10.09 -193.91)"/><path d="M355.46,558.77c.27-3.81.41-5.86.66-9.47l8.82,4.72Z" transform="translate(-10.09 -193.91)"/><path d="M467.11,552.75c2.22-2.9,3.29-5.52,4.48-5.58,2.19-.09,4.5,1.21,6.61,2.24.24.11-.37,3.14-.76,3.18C474.66,552.88,471.84,552.75,467.11,552.75Z" transform="translate(-10.09 -193.91)"/><path d="M387.05,519.58c2.44,4.16,8.69-1,8.84,5.87C386.69,526.7,386.69,526.7,387.05,519.58Z" transform="translate(-10.09 -193.91)"/><path d="M467.76,510.21c1.07,3.83-1.23,4.63-4.32,5.27-3.29.69-5.59.18-7.17-4l11.57-1.18Z" transform="translate(-10.09 -193.91)"/><path d="M478.92,656.61c1.23,4-3.36,5.89-4.2,5.42-2.26-1.28-3.63-4.13-5.35-6.35l1-1.73,8.62,2.76Z" transform="translate(-10.09 -193.91)"/><path d="M379.09,534.88c3.56,0,6.58-.1,9.58.09a2.56,2.56,0,0,1,1.66,1.84,3.06,3.06,0,0,1-1.17,2.3C385.62,541.75,381.26,540.06,379.09,534.88Z" transform="translate(-10.09 -193.91)"/><path d="M437.66,627.56c-4.58.52-8-1.27-9.31-5.66-.42-1.39.85-3.29,1.49-5.43l7.74,11.17Z" transform="translate(-10.09 -193.91)"/><path d="M463.69,525.48c5.94-1.31,7.79,0,6.79,4.31-.33,1.42-1.44,2.65-2.2,4-.78-1.17-1.64-2.31-2.32-3.54S464.6,527.4,463.69,525.48Z" transform="translate(-10.09 -193.91)"/><path d="M372.73,602.85a83.28,83.28,0,0,1-8,4.41c-.74.32-2.15-.92-3.25-1.44a25.83,25.83,0,0,1,2.59-2c1.05-.63,2.67-.76,3.27-1.63,2.49-3.6,4-1.84,5.44.75Z" transform="translate(-10.09 -193.91)"/><path d="M457.94,567.14l7-4.75c.86,2.31,2.51,4.57,2.18,6.5S460,569.61,457.94,567.14Z" transform="translate(-10.09 -193.91)"/><path d="M437.58,627.64c1.43-1,2.73-2.43,4.32-3.06a4.75,4.75,0,0,1,3.8.46c.51.33.48,2.78-.1,3.23a16.32,16.32,0,0,1-5.71,2.78c-.41.1-1.47-2.26-2.23-3.49Z" transform="translate(-10.09 -193.91)"/><path d="M473.4,621.73c-.86.57-1.88,1.81-2.84,1.76a20.85,20.85,0,0,1-6.91-1.44c-.65-.27-.48-2.48-.69-3.8,3.34.64,6.68,1.27,10,2C473.13,620.26,473.17,620.88,473.4,621.73Z" transform="translate(-10.09 -193.91)"/><path d="M373.7,631.86l-7.95,1c2.21-3.35,3.71-5.83,5.45-8.12a2.53,2.53,0,0,1,2.41-.52,3.38,3.38,0,0,1,1.25,2.54A31.67,31.67,0,0,1,373.7,631.86Z" transform="translate(-10.09 -193.91)"/><path d="M406.44,623.65c1-.85,1.67-1.79,2.56-2.1a25.53,25.53,0,0,1,6-1.4c1-.09,2,.76,3,1.19-.45,1-.74,2.82-1.38,3a52.29,52.29,0,0,1-8.48,1C407.74,625.28,407.23,624.39,406.44,623.65Z" transform="translate(-10.09 -193.91)"/><path d="M407.65,533.48l-2.7,2.83c-1.23-1.27-3.35-2.46-3.47-3.83-.16-1.77,1.29-3.68,2-5.52Z" transform="translate(-10.09 -193.91)"/><path d="M450.58,638c1.48,1,4,1.73,4.22,2.94.5,2.54-.19,5.32-.4,8l-2.35.19-2.79-9.71Z" transform="translate(-10.09 -193.91)"/><path d="M391.74,555.18c-2.1,5.66-4.68,6.48-7.71,4.82-.74-.4-.4-2.75-.56-4.21Z" transform="translate(-10.09 -193.91)"/><path d="M441.52,570.12a37.09,37.09,0,0,1-4.68,3.85c-.3.18-2.54-1.64-2.41-2a21.57,21.57,0,0,1,3.31-6.73c.3-.37,3.36,1.49,5.15,2.32C442.43,568.38,442,569.25,441.52,570.12Z" transform="translate(-10.09 -193.91)"/><path d="M454.05,663.24,446.7,662l-.8-1.49c1.74-1.3,4-4,5.12-3.57,1.83.66,2.93,3.35,4.34,5.18Z" transform="translate(-10.09 -193.91)"/><path d="M485.47,574.48l-7.14-.88c3.39-2.24-.49-7.8,5.21-7.15C484.37,566.55,484.69,571.06,485.47,574.48Z" transform="translate(-10.09 -193.91)"/><path d="M455.09,506.94a72.25,72.25,0,0,1,7.26-2.65,4.1,4.1,0,0,1,3,.6,2.93,2.93,0,0,1,.42,2.33,18,18,0,0,1-5.82,2.08C458.69,509.41,457.33,508.09,455.09,506.94Z" transform="translate(-10.09 -193.91)"/><path d="M388.55,542.36c1.89.88,4,1.52,5.59,2.76.67.52.34,2.33.47,3.56-2.44-.79-5.1-1.23-7.22-2.54-.79-.49-.31-3-.41-4.61Z" transform="translate(-10.09 -193.91)"/><path d="M476.64,561.34c-1.19.5-2.47,1.57-3.55,1.4a32.85,32.85,0,0,1-7.21-2.22c-.51-.2-1-2-.73-2.26a3.58,3.58,0,0,1,2.69-1.16c2.58.56,5.08,1.52,7.61,2.32Z" transform="translate(-10.09 -193.91)"/><path d="M370.49,612.91c2.92-.74,8.59,2.22,8.44,4.15a4,4,0,0,1-1.57,2.65c-.48.34-1.69-.15-2.47-.5-.42-.19-.63-.88-.94-1.33Z" transform="translate(-10.09 -193.91)"/><path d="M418.79,674.1a45.92,45.92,0,0,1,5.75-2.57,3.17,3.17,0,0,1,2.77.86,3.3,3.3,0,0,1,.41,2.91,3,3,0,0,1-2.44,1.33,65.31,65.31,0,0,1-6.62-1Z" transform="translate(-10.09 -193.91)"/><path d="M392.8,594.7l8.9.66c-.42,1-.59,2.74-1.3,3C397.84,599.36,394.72,601.35,392.8,594.7Z" transform="translate(-10.09 -193.91)"/><path d="M484.18,613.55c.24,3.67-4.3,7.55-6.91,6.32-.58-.28-1.36-1.08-1.3-1.54a3,3,0,0,1,1.27-2.12C479.32,615.23,481.54,614.53,484.18,613.55Z" transform="translate(-10.09 -193.91)"/><path d="M485.86,535.41c-1.62-1.7-3.27-2.89-3.08-3.33a48.09,48.09,0,0,1,3.42-6.14c.75.83,2.25,1.8,2.13,2.47C487.94,530.5,487,532.49,485.86,535.41Z" transform="translate(-10.09 -193.91)"/><path d="M446.4,676.59c-4.32-.61-6.58-2.35-5.2-6.65.27-.84,1.53-2,2.27-1.9s1.79,1.27,2,2.17A47.63,47.63,0,0,1,446.4,676.59Z" transform="translate(-10.09 -193.91)"/><path d="M433.79,649.26c-5.44,4.2-6.93.33-8.89-1.5-.36-.34.57-2.07.9-3.15Z" transform="translate(-10.09 -193.91)"/><path d="M343.81,618.25a18.52,18.52,0,0,1,2.64-1.82c1.59-.75,3.27-1.31,4.91-2-.8,1.89-1.19,4.21-2.55,5.5-.94.9-3.22.37-4.91.48Z" transform="translate(-10.09 -193.91)"/><path d="M437,533l6.42-6.84v9.61Z" transform="translate(-10.09 -193.91)"/><path d="M525.65,620.29l-10-1.62C522.37,613.77,523.48,613.94,525.65,620.29Z" transform="translate(-10.09 -193.91)"/><path d="M487.83,599.93c2.53-.22,5.05-.47,7.58-.54.08,0,.21,1.83.32,2.81l-7.63.68Z" transform="translate(-10.09 -193.91)"/><path d="M413.91,571.69c0,3,.26,6.18,0,6.23a40,40,0,0,1-7.11.23c0-.64-.07-1.29-.1-1.93Z" transform="translate(-10.09 -193.91)"/><path d="M381,601c4.3-2.77,6-1.13,6.5,1.92.17,1.09-1.12,2.43-1.75,3.65Z" transform="translate(-10.09 -193.91)"/><path d="M395.86,553.42c3.06,1,6.14,2,9.15,3.09.41.16.75,1.31.62,1.88s-1.13,1.48-1.37,1.37c-3.15-1.33-6.22-2.82-9.31-4.28Z" transform="translate(-10.09 -193.91)"/><path d="M424.52,630.71l-2.8,6.25-1.53.34c-.45-2.07-1.48-4.26-1.1-6.17.18-.89,3.05-1.26,4.7-1.86C424,629.75,424.28,630.23,424.52,630.71Z" transform="translate(-10.09 -193.91)"/><path d="M413.59,597.61l-5.95-2.37,5.9-6.36,1.29,1.09Z" transform="translate(-10.09 -193.91)"/><path d="M406,589.15a64.21,64.21,0,0,1-5.49-4c-.62-.53-1.13-2.22-.8-2.58.6-.66,2.46-1.27,2.74-1,1.9,2.15,3.53,4.55,5.24,6.86Z" transform="translate(-10.09 -193.91)"/><path d="M372.78,603l1.3-7.6c2.46,1.16,4.25,8.88,2.31,9.53-.89.31-2.42-1.29-3.66-2Z" transform="translate(-10.09 -193.91)"/><path d="M463.61,631.29c-1.62-.46-4-.42-4.68-1.48-.88-1.38-.38-3.63-.47-5.5l6,4.38C464.21,629.55,463.91,630.42,463.61,631.29Z" transform="translate(-10.09 -193.91)"/><path d="M449.38,530.77c1,1.24,2.63,2.39,2.81,3.74.49,3.64-1.61,4.52-5.15,3.34.35-2,.69-4.08,1-6.12Z" transform="translate(-10.09 -193.91)"/></svg>