<svg id="Layer_1" data-name="Layer 1" xmlns="http://www.w3.org/2000/svg" viewBox="0 0 763.94 1024.39"><title>Leaf</title><path d="M410.83,158.87l6.34-.57c11.8,9.6,18.09,21.79,24,34.36,5.2-.94,6.33-4.9,7.64-9.21l4.85-1c.75,10,2.82,19.15,7.74,27.3l2,.22,4.78-12.26,3.43-.37c.88,3.24,1.34,6.16,2.47,8.8,4,9.34,8.09,18.66,12.52,27.8,1.37,2.85,3.27,6.35,8.25,4.32q2.5-6.11,5.33-13h5.9c-.39,18.2,10.17,30,23,41.81,3.59-9.9-2.56-17.49-2.43-27.13,2.15,1.08,4.1,1.49,5.14,2.69,6,7,12.11,13.88,17.5,21.3,3.17,4.35,5.07,9.63,7.56,14.47.43.83,1,1.59,1.67,2.65,8.3-1.87,6.44-12.08,13.29-15.77.64,1.31,1.49,2.31,1.56,3.36.48,7.08,3.66,12.43,8.4,17.82,7.12,8.09,12.88,17.37,19.2,26.16,1.67,2.32,3.26,4.7,4.92,7.1,5.29-1.1,6.23-12.27,14.11-5.58-1,8.75,2.45,15.86,7,22.77,5.82-2,6.6-6.75,7.83-11.27,1.34-4.91,1.71-5.15,6.86-4.87.62,6,1.5,12.14,1.82,18.31s.07,12.1.07,17.89c6.48,1.17,11.38-2.09,13.22-7,.88-2.37,2.89-4.32,5.37-6.13,4.2,14.58,9.13,28.6,3.72,43.72a30.25,30.25,0,0,0,17.17.84c7.5-1.78,9.65-.61,11.17,7,1,5.07,1.71,10.2,2.52,15.1,13.93,4.08,13.74,4.14,18.49-4.13H720c1.08,14.17,2.15,28.18,3.23,42.18l-1.23.82,6,3.6,3.78-5.07,7-.62c4.71,12.16-.29,22.88-1.82,34.78l7,3.52c2.09-3.23,3.72-5.77,5.74-8.91h6.41c2.89,11.87-2.09,21.76-6.63,31l4.21,8.27c8.33,2,7.77-5.72,10.59-10.23h8.55c-2.29,6.63,1.79,12.74-1.72,19.42-4.32,8.21-9.58,16.29-10,26.09,0,1,0,1.93,0,2.85,7.34,3.38,14.27-.31,15.47-7.9.75-4.7,2-9.32,3.11-14h8.15c1,20.73-8.79,37.77-16.58,55.15,3.4,3.14,3.4,3.14,8.15-2.44h8.15c.21,4,.39,7.32.54,10.22L776.53,620.4l15.28-1c-4,9.46-7.6,17.19-10.59,25.13-2.83,7.51-5,15.24-8,24.3,6.07-2.5,9.32-9.77,16.39-5.57-1.18,2.46-2,5.15-3.58,7.27A112.41,112.41,0,0,0,772,695.88c-3.77,9.26-10.36,17.38-15.41,25.49l13.39-4.45,1.36,2-8.11,10.41-.63,4-.95-.86c-11.93,12.45-23.9,24.85-35.76,37.36-4.56,4.82-2.2,11.6,4.34,13,2.15.45,4.31.8,6.46,1.2l.27,1.32c-1.76.83-3.44,2.1-5.29,2.43q-10.29,1.78-20.67,3.06c-10.38,1.3-17.77,7.69-25.63,13.64,3.61,6.74,10.16,3.43,15.87,6-2.9,2.83-4.87,6.42-7.59,7.11-9.17,2.32-15.23,9.05-22.41,14.19-8.42,6-16.76,12.18-25.11,18.3a17.75,17.75,0,0,0-1.71,2l20.32,1.76c.12.59.24,1.17.35,1.75-1.51.75-2.95,1.89-4.55,2.19-9.88,1.85-19.8,3.45-29.69,5.26s-18.28,6.88-25.46,14.57l7.83,6.78,5.61,1.62-.12,1.42A26.59,26.59,0,0,1,598.81,889a25,25,0,0,0-7-1.32c-11.31-.13-22.61-.06-33.93-.06l4.63,5.87c-2.78.25-4.84,1-6.54.47-5.25-1.53-10.39-3.49-15.55-5.36-6.7-2.41-13.43-4.74-20-7.38-18.19-7.28-36.32-14.7-54.47-22.08-5.51-2.25-11-4.64-16.5-6.83a23.46,23.46,0,0,0-4.41-.89c-5.51,5.25-5,12-5.44,18.07-1.39,20.69-2.22,41.42-3.21,62.13-1,20.08-2.31,40.16-2.66,60.25-.32,18.65-.16,37.35.91,56,.92,16,3.53,31.9,5.13,47.86.29,2.88-.68,5.88-1.25,10.19-4.61-2.19-8.08-3.79-11.49-5.49-1.73-.85-3.38-1.86-5.05-2.84a12.34,12.34,0,0,1-6.37-9c-3-14.36,1.36-28.42.84-42.63-.21-5.64.07-11.3,0-16.94-.06-12.79-.6-25.6-.17-38.37.62-18.11,2.07-36.2,2.9-54.31.39-8.56-.22-17.17.31-25.71.5-8.21,1.93-16.35,2.89-24.53,1-8.45,1.92-16.91,2.94-26-1.91.35-2.75.3-3.36.65-7.51,4.45-14.79,9.34-22.53,13.35a137.66,137.66,0,0,1-21.87,9.26,228.87,228.87,0,0,1-31.07,7.8c-16,2.64-32.09,4.74-48.23,6-12.26,1-24.65.15-37,.36-8.6.14-17.19.54-25.77,1.11-2.57.17-5.08,1.3-7.61,2l-1.06-1.27L235,886.34l-86.46-21.17L168,855.9c-20.65-9.16-38.73-21.07-61.4-21.67.22-.61.43-1.22.65-1.84l14.32-6.32.15-1.9L91.58,810.11l17.64-5.4c-8.49-8.11-19.26-8.56-30.28-11.56l24.87-9.37L103.6,782c-9.07-6.83-17.8-14.11-29.57-16.48-3.59-.72-6.82-3.21-10.21-4.88l.65-1.58,13.25-1.59c-4.14-20.63-20.16-24.27-36.35-28.1,8.12-3.69,16.32-4.13,25.8-1.57-2.11-7-4.51-11.81-10-14.88-5.34-3-10.38-6.47-15.55-9.74.24-.57.47-1.15.7-1.72l21.21,3.36c-2.9-6.58-5.6-12-7.69-17.67A23.64,23.64,0,0,0,49,677.53C44.32,673.26,40.53,668,36.19,663c3.86-2.69,6.35-.42,8.63,1.36,5.55,4.36,11.91,6.38,19.59,7.51-2.66-9.41-3.87-18.49-12.54-24.51-5.1-3.53-9.19-8.55-13.59-13-.9-.92-1.18-2.45-1.24-4.32,7.9,1.63,14,6.52,20.94,10.37C51.76,628,51.82,612.39,37.5,605c.14-2.23.26-4.12.39-6.24,5.59-2.11,11.29,4.22,16.18-.42-1.58-8.86-2.26-17.86-5.07-26.13C47.6,568,42.46,565,38.7,561.85c-2.57-2.16-5.75-3.58-8.53-5.53-.94-.66-1.46-1.92-2.31-3.1,3.33-2.68,5.79-1,8.26.51,5.8,3.55,11.68,2.17,18.81.57-2.36-8.15-5-15.6-6.62-23.26-1.84-8.58-11.58-10.15-15.09-18.52L55,515.7c-1-13.57-3.37-25.33-8.14-36.65-1.85-2.17-3.7-4.33-6-7.05,10.35-2.07,14.43,9.18,23.22,9.32,1.71-3.61,1-6.7-1-10-3.13-5.19-5.81-10.64-8.68-16l1.32-1.9,9.76,2.12c.29-11.9,1.82-24.3-7.63-35.43,8-1.66,11.47,4.2,16.59,7l.5-2.42c-2.67-7.86-4.92-14.52-7.43-21.94l4.27-.41c6.63,8.72,12.61,16.6,18.59,24.48,3.21-6.26.71-10.58-2.09-15-1.19-1.86-1.54-4.26-2.23-6.3,7.7-4,12.65,2.53,19.59,2.49-1.91-3.74-3.42-6.7-5-9.76,1.33-3.79,4.37-5.4,7.6-3.71,5.36,2.79,10.25,6.48,15.27,9.89,2.62,1.77,5.09,3.75,8.7,5-.34-2.49-.81-5-1-7.45-.17-2.34,0-4.71,0-7.89l10.56,1.26c.25-15-2.94-28.85-11-41.16,3.14-4.42,5.24-4.71,8.83-1.41,4.25,3.9,8.5,7.65,15.41,6.35,3-4.38.75-9.13-.12-13.64-.53-2.78-2.2-5.39-3.57-7.95-1.52-2.85-1.5-5.39,1.21-7.32s5.66-1.49,7.75,1.2c3.69,4.79,8,8.38,14.78,8.9-.51-5.7-1-11.11-1.56-17.35l6.86-2.32c5.94,13.38,19.41,13.24,29.56,18.57,6.1-5.51,6.34-6.62,3.25-13.22-1.24-2.63-3-5.17-3.54-7.95-.44-2.18-.15-5.34,1.2-6.76.92-1,4.36,0,6.41.73s3.82,2.38,6.38,4.06c1.21-5.65,3.07-10.19,2.87-14.64-.19-4.18-2.56-8.26-4-12.54,2.89-3.09,5.79-2.87,10.23.23,3.85,2.68,8.08,4.81,12,7.11,4.74-6.45,7.65-11.82,3.11-18.38-.76-1.09-.24-3.06-.33-5,9.56-4.2,12.34,7.13,20.14,7.95,2.42-4.51,6-9,7.3-14.16,1.28-4.93.28-10.46.28-16.4l7-1.22c1.35,2.57,2.61,5,4,7.6,6.72-8,4.31-13.67.53-19.16.38-1.86.73-3.59,1.13-5.58,5.12-1.37,7.53,1.77,9.73,5.29,4,6.34,8.11,8.08,15,5.56.85-6.91,1.75-14.27,2.66-21.62l-1.59-.24,1.55-4c-.36-1.52-.72-3-1.12-4.71,4.16-1.86,5.7.42,7.15,3.51,2.09,4.42,3.23,9.72,9.45,11.48,1-1.15,2.05-2.29,3-3.56q4.08-5.64,8.05-11.38a14.09,14.09,0,0,0,2.48-10.45c-.57-4.63.66-9.47,1-14.23.15-2.06.05-4.14.06-6.21v-5.66l1.59-1c1.2,1.16,2.91,2.11,3.48,3.52,1.26,3.14,1.58,6.68,3,9.74,1.07,2.34,3.21,4.19,4.84,6.22,4-2.93,4.9-21.62,2.42-28.79,1-4.64,1.87-8.29,2.74-12.17,4.64-2,4,2.68,5.3,4.61,1.56,2.28,2.75,4.81,5.13,6.86,0-9.45.31-18.9-.09-28.33-.37-8.73-1.71-17.28,2.89-25.61,2.95-5.35,2.71-11.57,1.35-17.61a24.55,24.55,0,0,1-.62-6.27c.19-4.65,2.11-6,7.28-5.09,3.44,13.09,6.17,26.54,10.58,39.41S405.51,146.37,410.83,158.87ZM376.27,835.49a17.74,17.74,0,0,0-18.32,2c-1.3,2.75-2.61,5.5-4.1,8.63l-4.47-.24c.22-2.08.37-3.51.51-4.79l-2.24-3.63c.39-1.85.72-3.41,1.1-5.19-6.37-2.1-12.27-5.4-19.07-4-2.31,3.43-2.75,8.47-8.74,7.66,0-1.82-.06-3.53,0-5.24.09-1.87.33-3.74.48-5.45-9.52-3.43-9.83-3.19-15.67,3.71-1.52,1.81-4.22,2.62-6.49,4-3.86-5.73,2.11-8.22,1.74-12.89-2.13-.58-4.57-1.87-6.95-1.78-8.61.34-15.32,5.45-21.15,10.82-4.52,4.16-7.5,10.15-10.58,15.65-3.33,5.94-7.87,9.66-14.2,12.42-7.42,3.25-16,4-22.28,10-.53.51-2.14-.1-3.73-.22,1.52-6.19,5.33-8.74,10.34-9.91,12.72-3,23.07-8.55,26.18-22.7a11.24,11.24,0,0,1,3.31-5.77c4.12-3.54,8.66-6.59,13-9.89,1.6-1.22,3.08-2.59,4.92-4.15-17.14-5.83-33.59-11.24-49.9-17-21.29-7.54-41.31-17.86-61-28.79-10.3-5.71-20.85-10.48-32.65-12a34.55,34.55,0,0,1-5.22-1.65c1.51-1.07,2.16-1.93,2.72-1.87,8.89.93,18.46.23,26.5,3.4,13.32,5.26,25.43,13.52,38.46,19.62,15.12,7.07,30.59,13.44,46.09,19.63s31.69,10.26,48.72,9.45c2.32-.11,4.75.84,7,1.61,2.58.87,4.95,2.38,7.55,3.1,12.79,3.58,25.58,7.21,38.47,10.35a137.13,137.13,0,0,0,18.55,2.75c7.53.79,15.13,1,22.66,1.82,8.59,1,17.14,2.38,25.71,3.59a11,11,0,0,0-4-4.33c-5.86-3.7-11.6-7.64-17.74-10.8a38.31,38.31,0,0,0-12.36-3.73c-5.11-.68-10.38-.15-15.56-.44a53.47,53.47,0,0,1-7.52-1.49l0-1.91,12.29-3.1a64,64,0,0,0-5.73-4.51,111.75,111.75,0,0,0-12.31-6.87,19.88,19.88,0,0,0-9.09-2c-10.67.77-21.29,2.16-31.94,3.19a32.7,32.7,0,0,1-5.73-.41c0-.52-.05-1.05-.07-1.58,10.66-5.29,23-3.36,35.59-6.74-7.58-4.72-13.74-8.73-20.07-12.46-5.71-3.37-11.45-6.72-17.44-9.53-3.72-1.75-7.93-3.49-11.9-3.43-5.59.08-11.12,2.18-16.74,2.79-9.71,1-19.14,5-29.23,2.6-4-.94-8.26-.81-12.37-1.36-6-.81-12.23-.93-16.79-6.25a11.8,11.8,0,0,1,5.15-.54c9.72,1.23,19.4,3.22,29.15,3.64,7,.3,14.15-1.24,21.16-2.38,4.05-.65,7.95-2.14,13.35-3.65-3.3-1.7-5.36-2.53-7.18-3.73-14.65-9.64-29.48-19-41.58-32-6.61-7.11-13.77-13.7-20.45-20.74-4.67-4.93-8.62-10.55-13.44-15.31a227.6,227.6,0,0,1-33.63-43c-5-8.11-10.5-15.93-15.71-23.92-6.45-9.91-12.94-19.8-19.21-29.82-7.68-12.26-15.14-24.65-22.57-36.77-.45,4.58-.2,9.51-1.55,14-1.93,6.33-6.85,8.19-11.62,4.92.94-1.27,1.78-2.59,2.8-3.76,2.61-3,3.79-6.28,2.74-10.32-1.39-5.34-2.69-10.71-.63-16.25.33-.87-.2-2.26-.71-3.21-2.78-5.13-5.55-10.27-8.59-15.25-1.74-2.85-4.1-5.32-6-8.09-3.9-5.69-7.67-11.47-11.49-17.22l-1.06,1.47-13.14-3.51c.22,2.86.4,5.73.67,8.6.68,7.15,1.4,14.29,2.13,21.7l-8.92,1.64c3.58,11.87,7.09,23.46,10.74,35.54L52,562.29c5.33,4.73,6.41,10.49,7.13,16.58.62,5.22,2.13,10.33,3.14,15.51.48,2.46.7,5,1.08,7.84l-9.84,4.21c3.31,8.92,6.36,17.6,9.75,26.14C64.65,636,66.71,639,71,640c1.63.37,2.85,2.54,4.26,3.88l-.71,1.83L64.21,647c3.38,9.65,6.75,19.28,10.59,30.22h-15c1.91,5.34,3.16,10.81,5.75,15.55s6.57,8.79,9.94,13.14l1.35-.81c-.15.92-.1,2.54-.49,2.65-3.64,1-7.36,1.84-10.89,2.67,2.6,3.84,5.38,7.41,7.56,11.33,2,3.54,3.37,7.26,7.67,8.92,1,.4,1.41,2.6,2.76,5.33l-10.15-1c2.63,4,5.16,8.23,8,12.22,2.66,3.73,5.64,7.24,8.63,11l-5.8,3.12,26.61,17.38c.34,2,.72,4.12,1.09,6.22l-11.15,7,20.77,12-10.41,7.19c5.39,7.39,15.91,6.92,20.51,15.27l-4.88,3.81L180.07,856l-.09,1.74-11.8,4.39c1.76,1.18,2.46,1.95,3.31,2.19,12,3.42,23.94,7,36,10.06,10.51,2.66,21.21,4.57,31.76,7.1,2.8.67,5.35,2.38,8.17,3.68L243.63,892c3.05,0,5.11.07,7.17,0,6.32-.25,12.66-.26,18.94-.91,6.75-.69,13.92,2.11,20.28-2.45.81-.58,2.51.19,3.8.15,6.3-.19,12.82.52,18.85-.87,14.81-3.42,29.42-7.73,44.06-11.86,12.28-3.46,24.66-6.62,35.17-14.59a39.69,39.69,0,0,1,23-8.29c1.53-.05,3-1.24,4.67-2-.87-3.3-1.56-5.94-2.3-8.76-5.19-3.1-9.93-2.09-14.53,1.14-2.81,2-5.5,2.64-8-.69l1.91-5.32-10.09-.92c-4.76,7.25-7.13,8.46-12.4,6.38C374.78,840.7,375.47,838.28,376.27,835.49ZM331.51,308.34c-2.12-2.72-4.78-5.48-6.69-8.7q-10.14-17.11-19.76-34.53c-1.11-2-.89-4.76-1.27-7.08,5-1.24,5-1,6.94,2.28,2.86,5,6,9.89,8.86,14.66l6.93-1.26c2.08,8,4.09,15.77,6.09,23.5a13.58,13.58,0,0,0,3.25,5.11c7.94,8.51,15.61,17.14,26.53,22.4s21.23,11.8,31.84,17.73a38.74,38.74,0,0,0,4.42,1.76c.47-1.59,1-2.5,1-3.39q-.48-8.91-1.19-17.82c-1.28-16-3.07-32-3.75-48-.45-10.75-3.33-20.27-7.84-30-6-13-9.89-27-14.79-40.56-.73-2-2.06-3.79-3.46-6.3-4,6.31-8.76,7-14.09,4-1.9,4.35-3.44,8.61-5.56,12.54-2.61,4.8-6.14,9.14-8.45,14.07-1.57,3.36-3.6,4.74-7,4.74H322.69c-.52,2.82-1.13,5.26-1.41,7.74-.65,5.93-2,7.45-7.74,7.9-4.17.33-8.35.42-12.36.61-6.46,3.64-3.06,10.53-5.1,16.79l-11.68-1.83c.23,8.89-10.85,13.78-6.88,23.83-6.5,3.42-11.79-1.91-19-.91-1.6,5.7-3.31,11.84-5.13,18.32H248c.12-.28.23-.57.35-.85l-11-5c-5.8,8.06-3.73,15.92-2.15,24.14a29.23,29.23,0,0,1-5.44,1,39.83,39.83,0,0,1-6.09-1c.26,2,.43,3.57.67,5.12,1.42,9.32-6.84,17.68-15.95,15.8-3.44-.71-6.62-2.57-10-3.77-4-1.43-8-2.71-13-4.4l1.23,7.37c5.71-1.18,8.05,2.32,10.13,6.23,8.51,16,17.16,31.95,25.51,48.05,5.67,10.91,10.29,22.41,16.6,32.91,4,6.66,10.2,12,15.52,17.84,6.54,7.16,12.73,14.75,19.91,21.22,14.3,12.9,29,25.36,43.89,37.59,10,8.22,19.93,16.78,31,23.34,16.28,9.64,33.53,17.64,50.38,26.32,2.17,1.12,4.4,2.14,6.93,3.35a16.46,16.46,0,0,0,.6-2.69c-.05-16.88.23-33.77-.29-50.63-.57-18.45-2.1-36.87-2.73-55.31-.17-4.88-2.22-7.79-6.12-9.48-10.39-4.51-20.88-8.81-31.42-13q-10.41-4.12-21.06-7.59a55.83,55.83,0,0,0-9.25-1.68c-2.24-.34-4.5-.49-7-.74.39-2.5.63-4,.85-5.47-7.22-3.75-13.44-8.13-17.78-15-4.14-6.54-8.79-12.75-13.31-19s-10.88-8.73-18.66-7.53q-18.5,2.85-37,5.38c-2.19.29-4.49-.23-6.74-.38l-.11-1.95c15.57-6.09,33-4.22,48.56-10.36,0-.26.06-.66-.09-.87-9.25-12.47-18.66-24.82-27.68-37.45-2.45-3.44-3.72-7.74-5.53-11.64l1.75-1.36c1.76,1.09,4,1.8,5.22,3.33,11.94,14.86,23.68,29.89,35.59,44.79,2,2.53,4.59,4.62,7.47,7.49,2.56-6.74,5.08-12.18,6.65-17.88,1.51-5.52-2.91-11.78,3.24-18.7a10.11,10.11,0,0,1,2,4.13c2.31,8.85,4,17.32-.5,26.47-3.67,7.5-4.52,16.14,2,23.26,9.17,10,16.61,21.26,31.06,26,16.73,5.5,32.74,13.18,50.2,16.58,5.22,1,6.87.09,6.7-5.11-.15-5-1.48-9.9-1.66-14.87-.56-14.75-.7-29.52-1.25-44.27a124.3,124.3,0,0,0-1.54-12.44c-9.72-5.63-18.1-10.47-26.48-15.31l-1.53.69c2.3,11.66-1.11,21.35-9.91,30L355,367.54c1.5-3,2.7-5.05,3.56-7.22,1.39-3.54,3.24-7.1,3.67-10.79.62-5.35.16-10.83.16-16.56a4.46,4.46,0,0,0-.78-.73c-7.72-5-15.42-10-23.22-14.91a10.4,10.4,0,0,0-5.38-1.92c-8.22.24-16.42.93-24.63,1.27a44.52,44.52,0,0,1-6.85-.73c0-.86,0-1.73,0-2.59Zm91,408.6c-2.14-.9-3.91-1.65-5.68-2.38-6.9-2.84-14-5.3-20.66-8.59-15.13-7.44-30.12-15.16-45-23a120,120,0,0,1-16.87-10.39c-8.5-6.46-16.57-13.5-24.73-20.41-12-10.14-24.32-19.91-35.66-30.73-9.77-9.31-18.43-19.79-27.41-29.9-5.24-5.91-10.14-12.11-15.63-18.71-1.43,1.39-3.22,2.45-4,4a110.16,110.16,0,0,0-4.25,10.78c-3.08,8.42.11,18.32-7.36,25.93-4.27,4.35-6.43,10.72-9.75,16.05-1.58,2.52-3.87,3.19-6.68.84,3.86-7.22,7.42-14.43,11.53-21.32a26.29,26.29,0,0,0,3.95-13.22c.32-10,2.29-19.67,10.28-26.92a12,12,0,0,0,2-3.08c-4.53-15.51-18-23.71-24.53-35.25-8-.83-12.41,6.59-19.94,5.19,2.41-8.23,11.41-6.73,15-11.93C188.41,510.67,179.92,497.68,171,484l-26.33-3.77c-1.05,2.66-1.51,4.6-2.52,6.2a41.47,41.47,0,0,1-5.32,7c-2.24,2.26-5.16,3.86-7.38,6.13-5,5.15-17.73,6.57-24.32,1.57,2.9-.51,5-.72,7-1.26,3.69-1,7.61-1.64,10.91-3.42s5.72-4.59,8.42-7.1a15.18,15.18,0,0,0,3.24-4c1.86-3.65,3.45-7.44,5.57-12.09-1.9-1.35-4.26-3.65-7.07-4.93-7.06-3.21-14.34-5.92-21.5-8.92-1.69-.71-3.24-1.76-5.59-3.05,5.2-3.4,9-1.36,12.7-.14,11.61,3.81,22.6,8.67,31.91,17,4.48,4,10.36,5.6,18.28,4.59L139.3,424.17,115.57,407.9c-.56,2.65-1,4.49-1.63,7.65l-13.32,1c.6,6,1.43,12,1.7,18.09.11,2.47-.41,6.68-1.68,7.12-2.23.77-5.41-.37-7.89-1.42s-4.87-3-6.43-4.05L76.65,440c-3.14,5.51-3.69,10.88-.33,16.61,1,1.62.15,4.26.15,6.24l-7.87,1.62c7.62,7.39,3.46,16.43,4.86,24.11,2.74,1.06,5.34,1.34,6.84,2.77a158.39,158.39,0,0,1,13.4,14.26c2.32,2.83,3.56,6.52,5.48,9.7,7,11.65,14,23.31,21.2,34.86,6,9.61,12.5,18.88,18.18,28.65,5,8.55,9.2,17.46,17.17,23.89,2.46,2,4.23,4.86,6.16,7.44,5.92,7.9,11.77,15.85,17.63,23.79,6.35,8.6,13.09,16.93,18.9,25.88,6.81,10.47,13.26,21.11,22.56,29.66,6.07,5.59,11.76,11.62,18,17q14.78,12.6,30.14,24.47c3.57,2.77,7.84,4.63,11.8,6.91l.53-.77-6.15-8.2,1.86-3.63c-10.85-25.8-21.33-50.68-32.21-76.53,2,.43,3.73.28,4.45,1.06a68.84,68.84,0,0,1,7.8,9.76c3,4.77,5.46,9.87,8.07,14.87,1.42,2.7,2.76,5.45,4,8.24,3.44,7.84,6.44,15.89,10.3,23.52,3.49,6.92,7.76,13.47,11.91,20,3.17,5,5.7,11.24,10.26,14.4,15.66,10.85,32,20.69,48.25,30.7,6.32,3.91,13,7.18,19.48,10.89s13.07,7.73,19.58,11.65c9,5.41,18.68,9.54,26.13,17.42,3.23,3.42,7.85,5.53,12.26,8.51.33-12.71.66-23.94.88-35.16.07-3.71.06-7.45-.24-11.15q-1.23-15.48-2.75-30.95C424.52,734.11,423.48,725.8,422.48,716.94ZM305.39,629.23c4-2,5.69-.3,7,2.91,2.06,4.91,3.61,10.34,6.82,14.4,11.76,14.83,26.6,25.91,43.7,34.09,11.37,5.44,22.5,11.39,33.81,17,6.53,3.21,13.19,6.16,19.85,9.07,1.35.58,3,.46,5.26.76-1.08-4.39-2.45-7.9-2.72-11.49-.65-8.57-.72-17.17-1.13-25.76-.62-13.09-1-26.2-2.15-39.25-.52-6.06-3-11.94-3.73-18-1.41-11.89-2.07-23.87-3.41-35.77a9.23,9.23,0,0,0-3.51-6,170,170,0,0,0-16.83-9.57c-5.48-2.78-11.49-4.6-16.74-7.73-17.37-10.37-34.54-21.08-51.7-31.79-4.22-2.63-7.92-6.13-12.25-8.55-7.4-4.13-14.37-8.53-19.8-15.32-5.84-7.3-12.22-14.18-18.54-21.09q-9.81-10.72-20-21.13c-5.08-5.22-10.37-10.23-15.61-15.29A16.28,16.28,0,0,0,231,439l-3.7,5.24h-5.43L220.71,443l7-10.41c-3.48-6.61-7.12-13.45-10.67-20.34-4.35-8.46-8.48-17-13-25.43-3.22-6-5.36-13.12-13.25-15.16a17.25,17.25,0,0,1-3-1.42l.93-1.54,7.8-1.49-9.46-19.38c-4.39,4-8.27,2.57-12.44.4-2.74-1.43-6-1.92-10.18-3.19.2,3.65.44,6.1.46,8.56,0,9.27-1.31,16-13.29,12.13a22.61,22.61,0,0,0-4.36-.46c1,13.63,5.6,26.5,2,39.65l-7.14,1.94v13.89l1.8-1.89c1.72,2.75,3.5,5.47,5.15,8.26q5.42,9.19,10.71,18.46c11.58,20.19,22.61,40.73,34.91,60.47,8,12.84,15.71,26.1,26.93,36.71a57.72,57.72,0,0,1,8.09,9.68c6.51,9.66,12.58,19.63,19.17,29.23,2.66,3.89,6.25,7.14,9.55,10.85l3.74-6.43c5.64,3.61,5.44,9.05,7.16,13.62,1.32,3.53,2.92,7.28,5.42,10,6.3,6.74,13.1,13,19.86,19.32,3,2.75,6.34,5,10.06,8C305.07,633.48,305.23,631.3,305.39,629.23ZM552,775.07l64.73-33.56-7.39-6.28,1-2c2.45.27,5.15,0,7.32.91,9.68,4.15,19.11.07,22.71-10a86.16,86.16,0,0,1,3.9-8.14l5.49.38,2.14,4.8a21,21,0,0,0,4.11-1.52c8.69-5.59,17.6-10.9,25.9-17,12.11-9,23.9-18.36,35.59-27.87,7.75-6.31,15-13.26,22.64-19.67,3-2.51,6.69-2.57,11.14-.4l-41.24,37.4,5.29.27c10.53.56,21.08,1,31.59,1.79,2.56.2,5,1.71,7.51,2.62-.13.74-.27,1.48-.41,2.23-2.95,0-5.9.11-8.84,0-10.53-.5-21.05-1.11-31.58-1.58a9.27,9.27,0,0,0-4.28.73c-7.88,3.76-15.93,7.24-23.46,11.61-16.52,9.58-32.54,20.06-49.2,29.39C621,748,604.76,755.76,588.77,764c-2.83,1.46-5.58,3.09-9.23,5.11l59.24,2c1.17-1.77,1.85-2.86,2.6-3.91,6.82-9.63,13.57-19.3,20.52-28.83,2.44-3.35,5.68-5,10.32-2.69-7.24,11.47-16,21.41-21.82,34.27,9.24.7,17.58.26,23.64-5.11,10-8.83,22.23-15.36,29-27.61a4.7,4.7,0,0,1,1.79-1.63c2.77-1.6,5.56-2.18,9.06.47L691.2,761.53c6.92,1.66,14.46-5.89,22.15-.31a170.39,170.39,0,0,1-20.76,6.47c-7.08,1.75-14.2,3.39-21.38,4.64-9.38,1.64-18.82,3.89-28.27,4-20.09.34-40.21-.67-60.32-.76-5,0-10.41.31-14.82,2.3-13.55,6.09-26.83,12.82-40,19.76-9.16,4.84-17.79,10.7-26.91,15.64-9.69,5.25-19.74,9.83-29.5,14.94-4.43,2.31-8.54,5.22-13.91,8.55l26,5.92c8.06-12.43,20.28-18.94,31.21-27,2.22-1.64,4.59-3.18,8-.35-2.24,2.33-4.16,4.7-6.44,6.64-6.4,5.47-13,10.7-19.4,16.2-1.52,1.31-2.45,3.3-4.15,5.67,3.9.41,6.53.4,9,1,7,1.73,12.15.28,15.79-6.59,1.93-3.64,5.82-4.78,10.41-2.54L521.81,846c17.63.71,34.28.57,50.76-3,4.38-.94,8.93-2.36,14.67.67-13,4.77-25.33,6.37-38.84,7.41L558.79,856l-.52,1.54c-5.81,1.7-11.64.09-16.44-2.75-8.82-5.2-17.88-3.44-27-2.66-3.28.29-6.51,1.15-9.76,1.75l-.49,1.62,12.59,9.85c-.18.5-.37,1-.56,1.48-1.48.22-3.36,1.13-4.4.55-5.63-3.18-11.06-6.73-16.56-10.16-2-1.23-3.8-3-6-3.61-6.41-1.73-12.93-3-19.43-4.38-2.24-.46-4.57-.53-6.86-.77,25.33,12,50.15,24.59,76.62,33.14l4.12-4.4c14.81,2,29.63,9.94,45.37,3.36l1.81-5.75,39.49-22.42c5-8.83,16.33-11.82,24.51-18.67,8.41-7,17.24-13.52,25.94-20.29,0-.05,0-.29-.06-.36-1.51-1.19-3.06-2.33-4.57-3.53-3.17-2.52-3.28-5.57-.12-8.07,10.1-8,20.41-15.63,33.86-17a19.87,19.87,0,0,0,3.53-1c-2.23-10.2-1.9-12.46,2.86-17.66,2.19-2.39,4.72-4.46,6.86-6.88C731.52,750,739.31,741,747.19,732c-2.53-3.21-7.77-4.39-6.14-9.66,11.56-12.28,25-37.34,24.08-44.76l-6.68-3.31c4.29-13.58,8.52-27,12.84-40.68-1.77-1.18-4.66-2.54-6.71-4.69-1.33-1.39-2.36-4.16-1.93-5.92,1.57-6.37,3.87-12.56,5.79-18.86a36.26,36.26,0,0,0,.74-4.91L763,597.8,743.4,618.18c.25,1.44.5,2.83.74,4.23l1.32,1.55-19.61,17.6,5.28,3c-.09.49-.17,1-.25,1.45-2.79.24-5.59.35-8.36.76s-5.61.49-7.91,1.71c-21.35,11.31-42.58,22.82-63.83,34.29-2,1.11-4,2.33-6.47,3.74l5.88,3.31-.12,1.39c-2.45.36-5,1.35-7.33,1-7.35-1.25-13.78,1.33-20.16,4.16-21.93,9.71-43.86,19.44-65.68,29.39a68,68,0,0,0-14.62,8.45c-7,5.7-13.11,12.58-20.1,18.34C510,762.55,499.31,774,489.17,786c-5.16,6.12-10.85,11.78-16.3,17.64l-9.48,10.2.82,1c9.83-4.53,19.79-8.78,29.43-13.66,8.92-4.53,17.53-9.13,27.5-11.75,9.51-2.49,20.61-5.22,21.34-19.41.37-7.1,3.34-8.21,8.79-6.75C551.5,767,551.74,770.74,552,775.07ZM566.5,661.71c-3.58,13.87-7,26.95-10.34,40l1.5.66c10.56-14.21,24.79-25.24,34-40.66,6.23-10.43,13.68-20.15,19.5-30.78,7.91-14.45,14.82-29.45,22.1-44.24,3.56-7.25,7.16-14.48,10.46-21.84,4.82-10.78,9.11-21.8,14.13-32.49,5.78-12.3,12.23-24.29,18.17-36.51,6.64-13.65,13-27.44,19.57-41.1,2.16-4.47,5.24-8,10.46-9.47,1.55-.42,3.78-2.5,3.77-3.81-.07-7-.75-14.07-1.24-21.45L686,416.31c-1-7.48-1.89-13.59-2.78-20-5.12-.49-9-1-12.79-1.21s-5.92,2-7.38,5.24c-5.41,11.91-10.43,24-16.43,35.64a330.19,330.19,0,0,1-18.84,32.15c-11.62,17.36-23.84,34.33-36,51.31-12,16.71-24.23,33.23-36.35,49.85q-12.58,17.25-25.12,34.54a22.51,22.51,0,0,0-1.8,3.87c12.46,2.61,24.3,1.73,36.3.4-7.49,4.75-14.63,9.22-24.14,7.42-7.78-1.47-16.09-3.63-22.39,4.33-7.81,9.88-16.53,19.11-23.63,29.46-12.13,17.67-28.38,31.51-42.24,47.54-4.64,5.36-9.46,10.56-13.12,14.64.7,21.24,1.64,40.81,1.9,60.38.18,13.26.19,26.43,4.69,39.57a16.79,16.79,0,0,0,3-2c4.51-4.85,9-9.76,13.4-14.68q13.51-15,27-29.92c5.08-5.62,9.63-11.88,15.4-16.68,9.19-7.65,19.3-14.2,28.82-21.47,2.77-2.11,6-4.7,7.08-7.75,4.06-11.45,7.6-23.11,10.8-34.83,2.19-8.05,4.86-15.73,10.1-22.65ZM552.26,425.22a51.09,51.09,0,0,0-3.41,4.24q-6,9.15-11.82,18.4c-7.7,12.18-15.71,24.19-22.94,36.65A124.91,124.91,0,0,1,489,515.24c-12.32,11-25.17,21.41-37.66,32.23-9.41,8.16-18.61,16.56-28.48,25.37a27.43,27.43,0,0,0,0,3.62c1.41,12.06,2.92,24.12,4.3,36.18,1.81,15.77,3.6,31.54,5.25,47.32,1.15,11,2,21.94,3.14,32.89.17,1.68,1.28,3.27,2,5.11a11.12,11.12,0,0,0,1.89-1.29c14.26-17.66,32.63-31.64,45.4-50.59,3.28-4.86,6.34-10.19,8-15.76,1.47-5,.75-10.56,1.17-15.87s1-10.31,1.51-15.46c1.11-11.94,2.05-23.89,3.34-35.81.29-2.72,1.72-5.32,2.59-7.87,4.68.75,4.11,3.75,4,6.21-.58,17.5-1.29,35-1.87,52.5a43.45,43.45,0,0,0,.64,6.2l1.49.33c7.11-9.39,14.29-18.73,21.3-28.18,8.3-11.2,16.28-22.64,24.74-33.71,7.85-10.27,16.58-19.89,24.14-30.37,8.77-12.14,16.52-25,25-37.36,7.7-11.23,16.07-22,23.59-33.36a304.6,304.6,0,0,0,17.28-29.17c5.75-11.25,10.47-23,15.47-34.2-.66-4.27-1.61-8.5-1.85-12.78-.15-2.69,1-5.42,1.19-8.17.52-7-2-9-8.91-7.86-3.71.61-7.54.51-11.34.74-1.59-7.1-2.94-13.17-4.25-19.06a19.9,19.9,0,0,0-3.81-.36c-5.42.86-9-1.19-11.14-6.29a43.12,43.12,0,0,0-5.28-9.21c-2.24-2.93-5.4-2.62-7.15.46-4.61,8.15-9.26,16.3-13.55,24.62-4.81,9.34-9,19-14,28.25-2.18,4-6.31,6.89-8.74,10.8-3.81,6.09-9.06,11.83-8.28,19.76.34,3.42,1.73,6.74,2.92,11.11Zm49-97.36-15.12-22.57c-3.75,4-7.32,5.18-11.78,2.71-2-5.94-4.13-12.05-6.45-18.82a24.76,24.76,0,0,0-2.25,2.63c-1.6,2.9-3.11,6-7.21,5.34s-7.27-2.85-8.24-7.17-1.44-8.63-2.53-12.85-2.78-8.25-5.85-9.54c-5.54,3.29-10.08,5.83-14.42,8.67a9.64,9.64,0,0,0-3.28,4c-2.69,6.06-4.77,12.41-7.75,18.31-7.59,15-15.29,30-23.41,44.75-7.47,13.57-14.23,27.52-26.5,38A401.77,401.77,0,0,0,419,430c-2.85,3.44-4.28,6.92-3.78,11.55,1.44,13.18,3,26.38,3.57,39.61.82,19.74.6,39.52,1.31,59.27.19,5.41,2.1,10.76,3.46,17.26,3.25-2.13,5.95-3.53,8.2-5.44C444,541.84,455.86,531,468.34,521c15.78-12.74,29.31-27.18,39.68-44.79,9.1-15.45,19.54-30.11,29-45.34,3.1-4.95,5.1-10.6,7.7-16.14-1.75-.83-2.88-1.42-4.06-1.91-9.1-3.81-18.25-7.51-27.29-11.46-1.73-.76-3.07-2.42-4.59-3.67l.84-1.63c1.89,0,3.95-.51,5.64.08,8.67,3,17.33,6.17,25.83,9.66,3.15,1.3,6.39,3.31,8.67-.16,3.6-5.48,6.42-11.47,9.66-17.43-2.56-2.34-4.6-4.15-6.58-6-7.52-7.15-15.25-14.16-19.47-24-.68-1.57-.59-3.47-.86-5.22l2.05-1.06c10,9.28,17,21.92,30.13,28.85a58.76,58.76,0,0,0,4.64-5.94c3.06-5.15,5.62-10.61,8.86-15.64,3.95-6.12,4.18-9-.41-14.87-3.13-4-6.53-7.85-10.2-12.24,9.59-4.05,13.21,3.87,18.5,9C592.81,338.37,592.4,328,601.26,327.86ZM746.44,524l0,1.6c-32.75,8.35-62.71,22.93-92.62,40.74l-27.31,59.91c3.61-1.37,6.2-2.16,8.63-3.29,6.3-3,12.5-6.17,18.81-9.12,9.23-4.31,19-7.66,27.67-12.93,10.66-6.5,21.78-12.62,28.56-24.28,3.67-6.32,9.52-11.41,14.64-16.81,3.91-4.12,9.09-4.8,12.81-2.24l-19.45,22.78.94,1.23c4.7-1.65,9.35-3.43,14.1-4.92s9.69-2.58,15.36.74a21.06,21.06,0,0,1-3.08,1.77c-20.47,6-39.15,15.09-55,29.78-5,4.67-11.37,8.75-18.8,8s-13.23,2.08-19.46,4.93c-9.56,4.38-19.31,8.32-28.92,12.59a14,14,0,0,0-5.43,3.72c-3.36,4.35-6.36,9-9.36,13.61-4.42,6.78-8.23,14-13.16,20.4-8.51,11-17.72,21.45-26.54,32.21-1.17,1.42-1.74,3.33-2.59,5l1.1,1c1.65-.44,3.31-.83,4.94-1.33,20.66-6.37,40-16,59.62-24.79,7-3.14,14.72-6.4,20-11.72,6.88-7,11.59-16,17.33-24.15,2.53-3.57,3.07-9.12,9.18-9.7,2.76,9.8-4.94,15.68-8.08,23.42,33.52-18.06,60-44.5,84.81-67.8,3.83-9.35,6.18-15.83,9.12-22,2.85-6,1-9.34-5.6-9.46-2.41,0-5.1.06-7.12-1-1.63-.84-3.7-3.52-3.42-5,1.63-8.53,3.89-16.94,6-25.38.47-1.92,1.06-3.8,1.73-6.18ZM450,293.21l18.38,8c-3.67,3.16-7.25,3.83-11,1.95-10-5-19.26.44-20.13,11.5l14.35,7.44c-4.46,3.93-8.18,2.5-11.67,1-4.5-1.9-8.39-1.37-11.34,2.48s-6,7.66-8,12c-3.59,8.07-9.75,14.92-8.89,25.07,1.27,15,.83,30.14,1.4,45.2.11,3,1.49,6,2.28,8.93l1.72.43c2.64-2.81,5.26-5.64,7.92-8.43,8.17-8.54,16.27-17.15,24.55-25.58,4.87-4.95,11-9,14.86-14.54,9.22-13.25,17.62-27.08,26-40.88,5.31-8.7,10.42-17.56,14.87-26.72,4.24-8.72,7.47-17.87,14.31-25.19,1.18-1.26,1.09-5.41-.09-6.9-5.83-7.33-12.22-14.22-18.43-21.27l-9.56,3.06-16.16-17.75c-4.85,21.91-10.2,42.77-25.21,59.27C449.79,292.81,449.87,293.79,450,293.21Zm-39.9,38.45,1.25.44c1.19-1.54,2.49-3,3.55-4.64s2-3.72,3.11-5.48c8.51-13.15,17.07-26.26,25.57-39.42,2.29-3.54,3.81-7.78,6.7-10.66a51.81,51.81,0,0,0,13.94-25.55,79.05,79.05,0,0,1,6.16-16.84c2.76-5.53,2.24-8.7-3.71-11.61-3.78,2.29-7.22,6.88-13.35,3.23-1.26-5.81-2.62-12.07-4.19-19.32l-14.81,2.87c-.34,1.5-.51,2.6-.84,3.66-1.5,4.86-2.4,10-4.69,14.5-5.61,10.92-12.35,21.26-17.69,32.29-3.3,6.82-6.76,13.79-5.84,22.16,1.75,15.76,2.71,31.61,4,47.42C409.47,327,409.82,329.35,410.1,331.66ZM662.17,552.42a12.2,12.2,0,0,0,2.65-.66c9.22-5.08,18.64-9.85,27.53-15.45,5.08-3.19,10.13-7.12,13.71-11.84,4.15-5.47,6.63-12.2,9.93-18.33,2.6-4.83,6.78-5.84,11.91-3.21l-12.18,24.63,1.19,1.57c8.15-3.94,16.4-7.36,25.73-5.07-2.81-9.52-8.1-18.11-2.31-28l-12.56-3.44c-.52-1.78-.51-3.21-1.22-3.88-4.65-4.39-2.39-8.89-1-13.83,1.29-4.66,1.17-9.7,1.55-13.43l-19.92-9.15c-2.53,5.07-5,9.78-7.27,14.62-4.78,10.37-9.37,20.84-14.17,31.2-1.14,2.47-3,4.62-4.16,7.08C676.3,516.16,670.9,527,666.1,538.15,664.23,542.48,660.76,546.67,662.17,552.42ZM388.54,145.34l1.46.29a755.12,755.12,0,0,1,12.38,104.13c3-4.62,5.45-8.38,7.91-12.12,6.23-9.46,12.55-18.93,14.87-30.24.89-4.39,1.18-8.75,6.67-10.33-1.41-7.95-3.89-14.72-9.16-20.22-3.27.31-6.29,1.22-9,.65-2.54-.53-5.91-2.07-6.89-4.13-2.61-5.46-3.88-11.53-6.11-17.2-4.79-12.16-9.81-24.24-14.82-36.31a15,15,0,0,0-2.38-3.1l-2,.52c.44,8.82.89,17.64,1.32,26.12Zm1,76.36c1.73-17.85-3.14-33.28-6.14-49.7l-2.72,7.83-10.11-1.93c-.67,5.82-1.47,11.31,2.23,16.74,4.26,6.26,7.74,13,11.63,19.54C385.77,216.36,387.31,218.38,389.58,221.7Z" transform="translate(-27.86 -81.44)"/><path d="M121.4,636.2,136.08,650l1.43-.9c.26-1.34.5-2.69.78-4,1.19-5.68,2.24-11.4,3.69-17,.29-1.14,2.06-1.9,4.42-3.92.63,3.44,1.29,5.43,1.31,7.42.09,15.88-10.2,28.42-13.79,43,6.45,11.76,16.33,20.13,26.82,28.17,4.54,3.49,7.57,9,11.28,13.52l-1.1,1.6c-1.77-.79-4.14-1.1-5.21-2.44-6.45-8.08-14.49-14.22-22.61-20.48-4.62-3.57-7.58-9.22-11.68-13.57-8.51-9-16.88-18.27-26.08-26.57s-19.15-15.43-28.83-23c-2.91-2.28-4.69-4.66-4.88-8.84-.15-3.38-2.62-6.66-4.47-10.94,8.32-.39,8.41,8.66,14.92,11.1-1.81-11.36-5.76-22.61,5.33-31.73l4.46.63v9.69l-5,2.54a18.51,18.51,0,0,0-.31,4.55c1.15,6.71,2.37,13.33.05,20.1a5.57,5.57,0,0,0,1.21,4.91c5.84,5,12,9.65,18.66,14.92,5.11-8.35,10.28-15.94,14.41-24.06,1.31-2.56-.32-6.54-.31-9.88s-.28-7.12.78-10.29c1.44-4.29,5.53-5,10.58-2.06-6.72,3.32-4.38,8.41-3.12,13.47,1.3,5.25-.45,9.9-3.48,14.19C124,632.06,122.73,634.14,121.4,636.2Zm-10,16,1.89-1.81,15.18,19.41c2.17-6,3.76-10.47,5-14l-15.14-14.39Z" transform="translate(-27.86 -81.44)"/><path d="M124.52,741.87c-2.21-.54-4.92-.45-6.54-1.73-3.63-2.87-6.62-6.52-10-9.67-6.78-6.27-13.67-12.42-20.52-18.62-2.46-2.22-4.94-4.43-7.61-6.83,3.89-3.58,6-.86,8.47.79s5.12,3.13,7.86,4.78c3.32-6,2.37-11.13,0-16.39-1.11-2.51-1.48-5.36-2.19-8.05l1.68-1.33c1.46.91,3.64,1.48,4.27,2.79a60,60,0,0,1,5.67,18.12c1.66,11.72,6.28,23.17,16.54,30.94a45.09,45.09,0,0,1,3.43,3.21Z" transform="translate(-27.86 -81.44)"/><path d="M153.37,652.68c3.95-4.76,5.11-5,8.42-2.83-.42,4-1.26,7.62-1.08,11.16.5,9.65-5.74,15.83-11.14,22.41-.76.93-3,.64-6.19,1.19,1.39-3.43,1.9-5.59,3-7.34C154,665.53,154,665.55,153.37,652.68Z" transform="translate(-27.86 -81.44)"/><path d="M168.36,806.32c-1.05,1.19-1.89,2.71-3.19,3.51-3.69,2.29-7.57,4.29-11.37,6.4-4.59,2.55-8.87,1.72-12.73-3.32q-4.45-6.46-8.91-13c5.15-1,10.45,3.86,14.33,13.83l20.21-9.51Z" transform="translate(-27.86 -81.44)"/><path d="M178.63,800.14c1.55-5.72,14.93-12.76,21.06-10.83-.77,1.48-1.15,3.59-2.22,4C191.42,795.86,186.36,801.57,178.63,800.14Z" transform="translate(-27.86 -81.44)"/></svg>