<svg id="Layer_1" data-name="Layer 1" xmlns="http://www.w3.org/2000/svg" viewBox="0 0 796.52 872.6"><title>Poppy</title><path d="M319.7,303a23.86,23.86,0,0,0,3.05-2.41c2.79-3.22,5.85-4.34,9.92-2.16,1,.52,3.51.16,3.9-.56,2.84-5.35,7.75-7,13.13-8.37,5.81-1.44,11.18-3.62,15.34-8.51,1.69-2,5.08-2.63,7.8-3.57,1.55-.53,3.41-.15,5-.68a8.08,8.08,0,0,1,8.62,1.83c2.39,2.18,3.91,1.15,5.25-1.08.79-1.33,1.47-2.74,2.3-4,2.8-4.45,5.77-5.42,10.56-3.4a46.38,46.38,0,0,1,4.14,2.15c4,2.18,8.05,4,12.92,3.35,2.32-.28,4.85.56,7.22,1.16,3,.75,5.63.42,6.79-2.7,1.56-4.23,5.16-4.14,8.31-3.75,3,.37,4.39-1.17,6.37-2.67a45.76,45.76,0,0,1,7.88-4.38c1.13-.55,2.64-.36,3.74-.94,3-1.62,5.55-.92,7.79,1.31,1.7,1.7,3.27,1.57,5.22.41a51.06,51.06,0,0,1,5.32-2.4c5.11-2.27,10.11-2.3,14.78,1,3.12,2.22,5.83,1.86,8.87-.29a43.82,43.82,0,0,1,7.9-4.18c3.45-1.49,7-1.76,10.5.13a45.93,45.93,0,0,0,5.8,2.21c2,.76,3.43.21,4.43-1.82,1.3-2.67,3-3,5.56-1.12,3.34,2.44,6.82,5.19,10.66,6.23,2.58.7,6.23-.76,8.8-2.28,3.86-2.28,7-5.68,12.2-3.82,4.22,1.51,8.62,2.5,12.86,3.93,4.08,1.39,8.22,5,12.4,1.95,3.69-2.66,6.12-4.7,10.52-1,1.87,1.6,5.83.52,8.71,1.22a10.68,10.68,0,0,1,5,3c2.13,2.3,3.51,5.37,5.81,7.46,1.51,1.36,4,1.86,6.18,2.16,1.65.23,3.41-.62,5.13-.71,7.56-.4,12.88,3.12,15.83,10.26,1.34,3.23,3.22,5.54,7.15,6.36,3.69.78,7.1,2.88,10.65,4.37a3.78,3.78,0,0,0,1.86.52c7.87-1.35,12.46,3.6,17.07,8.68,5.8,6.4,12,12.45,17.45,19.14,2.8,3.45,4.57,7.83,6.34,12,2.41,5.65,4.3,11.52,6.57,17.23a9.48,9.48,0,0,0,2.5,2.82c1,.93,2,1.74,3.48,2.95l-4,1.69c.26,1.22.56,2.43.78,3.66,1,5.84,2.18,11.66,3,17.53,1.31,9.49,2.75,19,3.44,28.52.53,7.33,0,14.73-.12,22.1-.05,2.59-.54,5.17-.6,7.76-.33,13.5-4.88,25.9-9.51,38.34-1.65,4.44-2.48,9.2-3.47,13.86-.57,2.72,1.1,3.64,3.62,3.63,2.71,0,5.42.25,8.13.21,6.38-.1,10,4.56,13.81,8.42,5.42,5.54,10.83,10.18,19.24,10.18,5.13,0,10.28,1.06,15.4,1.81a7.19,7.19,0,0,1,3.44,1.66c3.13,2.73,6.2,5.52,9.07,8.5a7.88,7.88,0,0,1,1.93,4.12c.67,4.73.92,9.53,1.63,14.26a6.31,6.31,0,0,0,2.26,3.76c4.57,3.43,5.51,6.05,3.61,11.55-.17.49-.36,1-.65,1.75.81.56,1.57,1.49,2.44,1.63,5.61.89,7.81,5.28,9.8,9.65.73,1.61,1,4.21.21,5.59a73.51,73.51,0,0,1-8.49,11.85c-2.48,2.76-2.77,3.53.65,5.28A14.12,14.12,0,0,0,805.2,599c3.6.5,4.6,2.85,4.73,6,.08,1.95-.09,3.91.14,5.84.16,1.35.41,3.07,1.3,3.87,4,3.62,3.13,7.82,2.1,12.25-.92,4-1.32,8.08-2.34,12a51,51,0,0,1-3.11,7.39c-.1.22-.38.34-.55.54-5,5.8-4.16,9.55,2.65,13.51a21.85,21.85,0,0,1,6,4.83c3.06,3.77,1.62,7.77,0,11.74-.8,1.91-.88,4.11-1.58,6.07-.5,1.4-1.59,2.58-2.24,3.94-1.71,3.64-3.21,7.38-5,11-1.68,3.35-3.61,6.57-5.47,9.83-2.91,5.12-6.26,10-8.66,15.4a11.32,11.32,0,0,0,.86,11.41,30.32,30.32,0,0,0,2.29,2.66c5.19,5.87,5.15,10.75-.51,16.31-3.06,3-6,5.8-4.58,10.69.22.78-.52,1.95-1,2.8-2.14,3.53-4.46,7-6.49,10.53a5.24,5.24,0,0,0-.23,3.34c.51,2.67-.46,4.4-2.64,5.93-1.29.9-2,2.64-3.21,3.67a59.18,59.18,0,0,1-8.86,6.59c-2.3,1.28-3.47,2.37-2.8,5.07s1,5.55,1.59,8.31c.77,3.6-1.27,7.1-5.22,8.46-6.26,2.16-12.59,4.1-18.82,6.33-7.88,2.82-13.59,7.84-15.68,16.29-.22.87-.38,2.16-1,2.45-3,1.51-3,3.66-2.22,6.51.24.85-.92,2.61-1.89,3.17-3.26,1.87-6.87,3.14-10,5.14a12.83,12.83,0,0,0-3.9,4.83,23.84,23.84,0,0,0-1.91,5.92c-1.43,6.19-5.85,9-11.6,10a24.85,24.85,0,0,1-8.53.43c-8.84-1.63-16.46,2.93-24.68,4.39a2.94,2.94,0,0,0-2,2c-.17,6.23-3.83,12.1-1.26,18.7,1.44,3.73-3.76,11.81-8.12,13.24-3,1-3.11,2.42-2.24,4.94,1.3,3.79.92,4.27-3.33,4.64-2.67.23-5.36.34-8,.4-4.11.1-6.17,2.36-6.52,6.52a44,44,0,0,1-2,11c-.58,1.63-3.1,3.39-4.91,3.61a181,181,0,0,1-18.63,1.11c-6.83.11-13.67-.15-20.51-.28a22.88,22.88,0,0,1-3.07-.34c-2.57-.43-4.23-.13-4.12,3.24.1,3-4.9,6.75-9.06,7.65-5.78,1.24-11.5,2.8-17.3,4-7.33,1.47-11.08,7.3-15.21,12.49-.9,1.14-.14,4,.49,5.85.79,2.36.83,4-1.79,5-.57.21-1,.83-1.51,1.18-7.16,4.64-7.38,5.5-2.83,14.16-1.68.71-3.29,1.42-4.93,2.07a62.06,62.06,0,0,0-7.17,2.82c-2.48,1.36-3.7,3.61-2.59,6.56.69,1.84,0,2.66-1.89,2.84a27.17,27.17,0,0,1-18.32-4.27c-5.4-3.52-11.64-5.87-17.7-8.26-5-2-9.79-.56-14,2.73-5.59,4.36-11.9,3.29-18.12,2.12a6.19,6.19,0,0,1-3.67-2.62c-2.35-3.86-5.62-3-8.89-2.1a37,37,0,0,0-6.67,2.37,22.75,22.75,0,0,0-4,3.1c-.48.39-.87,1.25-1.31,1.26-4,.08-3.62,3-3.5,5.54.22,4.58-.56,5.34-5.39,5.68-3.05.21-6.07.89-8.89,1.32-.22.69-.4,1-.35,1.16,1.55,7.21,1.13,7.66-6.34,7.49-2.26-.05-4.52.38-6.77.32-7.72-.24-13.49-4.58-19-9.39-9-7.88-18.42-15.12-29-20.91-3.75-2.06-6.63-5.64-10.14-8.21a10.12,10.12,0,0,0-5.57-2c-4.21,0-7.66-1.3-10.28-4.48s-6.32-4.64-10.06-3.39c-9.21,3.08-14.68-3.86-18-11.67a13.58,13.58,0,0,1-.55-2.06c-5.47-.69-11-.88-16.22-2.16-5.95-1.46-11-4.63-13.4-10.89-.37-1-2.47-1.95-3.6-1.78-5.54.86-10,.14-12.28-5.87a4.39,4.39,0,0,0-3-2.18c-4.28-.59-8.86-.1-12.86-1.41-3.56-1.17-6.63-4-9.7-6.45-2.38-1.87-4.11-5-6.73-6-2.12-.79-5.31.36-7.7,1.4-3,1.31-5.13,2.64-7.07-1.59-1.54-3.35-4.55-3.56-7.92-1.49-.55.34-1.12.62-1.7.91-.09,0-.24-.06-.95-.23l1-2.89c-1-.84-2.56-1.58-2.92-2.71-1.76-5.6-6.94-7.54-10.66-11.11-3.32-3.18-5.76-4.86-10.68-5.29s-8.41-5.43-9.08-10.89c-.46-3.79-1.68-5.73-5.9-5.77-5.43-.06-8.64-4.18-11.92-7.83s-4.47-7.86-3.94-13.13c.26-2.56-3-5.57-4.88-8.21-.78-1.1-2.16-1.77-3.27-2.64-3.86-3-4.12-4.35-.81-8.19,1.73-2,1.63-3.27.41-5.66-3.36-6.58-8.28-11.36-14.06-15.84-3.75-2.9-6.45-7.35-9.07-11.47a6.14,6.14,0,0,1,.37-5.58A7.55,7.55,0,0,0,99,807.7c-2.72-5.07-2.31-9.92-.07-14.88.85-1.89,1-3.26-.8-5.07A25,25,0,0,1,90.66,770c0-4.62-2.84-6.53-5.78-8.75-.71-.54-1.66-.76-2.37-1.3-5.79-4.36-5.1-11.63,1.3-15.23,1.19-.68,2-2.14,3.17-3.56A38.14,38.14,0,0,1,82.22,738c-7.1-6.5-14.29-12.93-21.13-19.71C53.77,711,45.94,704.13,40.64,695.1c-1.48-2.53-2.12-5.53-3.44-8.17a26.4,26.4,0,0,0-4-5.55c-2.91-8.46-.36-16.56,2.18-24.75a41.1,41.1,0,0,0,1.74-10.8c.18-5.71-5-7.56-8.48-10.58-1.82-1.56-4-2.92-5.29-4.85-3.16-4.65-2.48-8,1.75-11.71,1.15-1,2.21-2.14,3-3-1.4-4.5-2.73-8.73-4-13-.8-2.6.38-4.56,2.28-6.07,2.06-1.65,4-3.22,4.06-6.21,0-.59.77-1.29,1.34-1.73,3.75-2.92,5.39-6.55,4.5-11.37S35,568,30.73,564.74c-1.81-1.4-3.15-3.39-5-5.48,4.12-3,8.14-5.9,12.12-8.85a22,22,0,0,0,1.52-1.66c2-1.92,4.15-3.74,6.08-5.74,1.44-1.49,3.19-3,3.85-4.86,1.88-5.29,3.4-10.71,4.83-16.15a55,55,0,0,0,1.59-9.36c.28-3.5,6.47-12,9.86-13.35,4.36-1.67,8.24-3.92,11.08-7.93.7-1,3.32-.63,5.95-1,.28-4.12.73-9,.88-13.92.12-3.83,2.16-6.3,6.82-6.87,2.94-.36,4.2-.92,3.22-4.36-.39-1.4,1.15-3.64,2.32-5.09.9-1.12,2.92-1.34,3.86-2.45,1.2-1.42,2.93-3.72,2.49-5-1.37-3.9,1.06-6.53,2.45-9.37.42-.86,3.21-1,4.79-.74A74,74,0,0,1,118,445c0-3.26-.2-5.93.05-8.56.33-3.57.57-7.31,3.91-9.69.82-.59,1.89-.83,2.7-1.43,5-3.74,10.62-6.65,15.06-11.23,2.39-2.46,2.37-5,1.51-7.83-1.47-4.74-.18-6.36,4.78-5.93a60.24,60.24,0,0,0,10.47.38c1.15-.11,2.37-2.13,3.1-3.52,1.84-3.48,3.36-7.12,5.11-10.64,1.1-2.22,2.57-3.47,5.1-1.59,1.76,1.32,3.66,1.32,5.16-.46,4.86-5.75,9.88-11.38,14.38-17.41,2.07-2.78,3.46-5.49,6.94-7.39,2.44-1.32,3-6.05,4.46-9.24,2.61-5.76,2.65-6,8.17-4,2.51.87,5.64,3.1,7.4,2.3,3.08-1.39,5.45-4.52,7.88-7.13,1.83-2,2.87-4.95,5-6.26,4.05-2.49,8.65-.91,12.9.07,6.23,1.45,6.4,1.45,10.12-3.16,1.39-1.72,3.42-2.94,5.22-4.32a77.28,77.28,0,0,1,7.73-5.7c3.48-2,7.28-3,11-.35,2.52,1.81,4.31.16,5.65-1.39,4.45-5.17,8.18-11,13.1-15.68,3.1-2.92,7.69-4.48,11.85-6C311.66,297,316.55,297.05,319.7,303Zm61.94,339.56a50.82,50.82,0,0,0,3.4-5.06c2.41-4.62,1.55-5.92-3.63-5.88h-3c-.8,1.14-1.5,2.16-2.21,3.18l-.77-.42.17-3.18-.74-.48c-.51.57-1.38,1.1-1.47,1.73-.38,2.78,2.16,5.81,6,7.25a38.66,38.66,0,0,1,.86-5.36c.19-.68,1.27-1.1,2-1.65a9.28,9.28,0,0,1,.34,2.23c-.25,2.55-.62,5.09-.94,7.63l-6-1.4,3.36,6.41,1.24-.13C380.67,645.78,381.15,644.15,381.64,642.53ZM348.85,623c3.25,2.88,2.07,7.43,3.83,11.18l7.47-5.49a59.93,59.93,0,0,1-7.65-2.38c-1.42-.64-2.41-2.21-3.59-3.36-.55-2.15-.75-4.48-1.75-6.4-1.56-3-3.13-6.44-5.71-8.29a26.16,26.16,0,0,1-5.36-5.08c-1.68-2.11-2.72-5.44-7.47-4.9,2.13,2.89,3.9,5.31,5.69,7.7,1.18,1.57,1.92,3.72,4.82,2.52.66-.28,2.56,1.12,3.14,2.17,1.43,2.6,2.43,5.44,3.67,8.33l-4.15,1.87Zm15.67-14c-1.2-.08-2.52-.53-3.58-.18-2.75.89-3.7-.32-3.59-2.74.15-3.13.53-6.26.85-9.8l3.62,2.08c-1.1-5-2-9.33-3.1-14.16l-3.25,6.3,2.43,2.58c-3.49,3.15-2.85,9.78-8.91,9.56a50.4,50.4,0,0,0,2.2,5.67c.55,1,2.06,2.55,2.51,2.36,2.77-1.17,4.27.67,5.16,2.38,1.08,2,3.4,4.45.74,6.39l3.22,8.12c1.46-.62,3.08-1.4,4.77-2,1.39-.48,2.85-.72,4.28-1.07l-.32-.91c-5.7,1.54-6.36,1.16-8.07-5-.72-2.6-1.28-5.25-1.92-7.91l2.89-1.78c3.73-.17,4-4.24,6.49-5.91l-3.65.26C366.33,605.3,365.43,607.17,364.52,609Zm77.14,106.79,3.71-1.16c-1.31-3.38-2.55-6.56-3.75-9.64,4.77-3.92,7.67-4,11.55.15,3.17,3.42,6.66,1.15,9.94,2-1.59-2.55-3.37-4.52-4-6.8-.35-1.24,1.21-3,1.91-4.55a28.55,28.55,0,0,1,3.43,2.25,21.8,21.8,0,0,1,2.38,2.92l.91-.6L464.1,694c-5.73-.2-8.55-4.87-12.66-7.7a26.8,26.8,0,0,1,5.35-2c3.53-1.1,4.45-.47,4.75,3.2h12.9c-6-2.35-11.38-4.47-16.77-6.57-2.93-1.14-3.12-3-.69-6.07-4.45-.31-8.14-.43-11.8-.89a21.74,21.74,0,0,1-5.3-1.67c-1.46-.58-2.79-1.48-4.23-2.13-3.85-1.76-7.61.66-11.44.33-2.44-.2-4.89-.32-7.33-.47l-.21,1.27c2.67.6,5.36,1.08,8,1.83s4.92,1.72,7.37,2.6c5.1-.72,15.72,2.94,18.09,7.22L433.55,682l-2.43-3.38-5.79.69c4.89.4,5.8,5.57,8.78,7.44,1.36-1.08,2.78-2.86,3.42-2.61a71.84,71.84,0,0,1,10.18,4.94c1.39.81,2.27,2.46,3.51,3.59s3,2.06,4.12,3.4c.69.84.62,2.3.89,3.48a20.3,20.3,0,0,1-4.67.54c-.84-.08-1.65-1.14-2.35-1.88-1.51-1.62-2.6-2.49-4.5-.07-.79,1-3.31.89-5,.85a22.49,22.49,0,0,1-4.58-1.1,12.2,12.2,0,0,0,3.33,9.37c1.68,1.84,1.73,5.17,2.5,7.84h-6.11c.5,2.17,1.54,4.43,4.36,4.48C441.29,719.64,442.22,718,441.66,715.83Zm-68.2-22.93.08.08c.47-3,.94-6,1.42-9.08l-8.37-1.54c.79,2.39,2.21,4.71,2.16,7a32.13,32.13,0,0,1-2.12,9.37c-.31.9-2.44,2.07-3.09,1.76-1-.51-2.28-2.24-2.13-3.26a28.56,28.56,0,0,1,2.35-6.82c.67-1.58,2.06-2.79-.41-4.3a14.63,14.63,0,0,1-4.2-4.63,34.19,34.19,0,0,1-2.34-5.55l-3.92,2.79,3.56,4.28c-2.44,3.27-4.83,6.47-7.49,10.06l6.16-.6,1.24-6.9,1.31-.21c.26,1.14,1,2.4.7,3.39-2,7.4-4.37,14.74-.37,22.31.21-.06.57-.18.93-.26l3.08-.62a12.75,12.75,0,0,1-.19,2.78c-.88,3-1.89,6-2.85,9l2.84.78c4.7-3.72,2.63-11.6,9.57-14.3,0,2.86,0,5.22,0,7.58,0,4.54,0,4.54,4.27,3.56l2.36,3.46,1.15-.46c-.32-1-.34-2.27-1-2.85-5.1-4.43-4.89-10.2.66-14.64,7.37,3.66,7.56,4.71,3,12.38,1.44,4.18,2.65,7.73,3.94,11.5,2-3,3.51-5.23,4.93-7.33-.85-1.69-2.94-3.86-2.65-5.63.95-5.67-2-10.45-2.68-15.69-.09-.7-.86-1.32-1.41-2.11-3.79,6.46-4.81,6.69-7.67,1.79,3-2.79,1.74-4.76-1.49-6.26A9.56,9.56,0,0,1,373.46,692.9ZM193.58,368c-3.22,3.57-7.52,6.67-9.35,10.85-1.64,3.76-4.3,6-6.85,8.55-3.68,3.72-4.64,3.75-9.06,1.5-2,3.69-4,7.37-5.87,10.8,5.43,6.88,11,13.54,16.09,20.49,7.75,10.51,15.19,21.24,22.81,31.84,5.27,7.33,10.66,14.59,15.92,21.94a10.08,10.08,0,0,1,1,2.88l-1.14.5a36.19,36.19,0,0,1-2.82-3.39c-1.27-1.94-2.18-4.15-3.57-6-5.27-7-10.78-13.91-16-21-8.61-11.6-17-23.35-25.66-34.95-2.44-3.28-5.3-6.26-8-9.37l-1.12.65c.18,1.47-.07,3.2.62,4.37a85.1,85.1,0,0,0,6,8.55c6,7.83,12.33,15.44,18.1,23.45C192,450,199,460.55,206.16,471c8.29,12,16.67,23.95,25,35.93a9.68,9.68,0,0,1,.79,2l-.93.81a38.28,38.28,0,0,1-4.35-4.58c-4.38-6.38-8.44-13-12.89-19.31-6.47-9.21-13.21-18.22-19.76-27.37-6.45-9-12.77-18.08-19.19-27.1-5-7-10.19-14-15.11-21.09-2.88-4.16-5.88-7.28-11.45-4.63-.78.36-1.89.05-3.79.05,40.48,49.27,78.11,99.81,110.53,154.61-2.71.36-3.68-1.43-4.59-3-4.64-7.76-8.85-15.81-13.85-23.32-8.28-12.42-16.94-24.59-25.64-36.72-9.4-13.1-18.81-26.19-28.61-39-6.74-8.8-12.46-18.31-20.37-26.31-5.92-6-10.36-13.43-15.74-20.6-4.77,9.17-12.87,12.93-20.19,18,.81.74,1.52,1.47,2.3,2.11,5,4.13,10.16,8,14.88,12.41,6.8,6.32,13.3,12.95,19.84,19.55,3.07,3.09,6,6.36,8.8,9.68.61.72.54,2,.78,3.05l-.95.63c-14.66-16.92-31.5-31.47-48.47-46.28-1.86,4.9-1.79,6,.46,8,10.7,9.62,21.5,19.14,32.1,28.86,2.72,2.49,4.65,5.82,7.32,8.37,4.65,4.44,9.66,8.48,14.35,12.88,1.26,1.17,1.89,3,2.8,4.55l-1.27,1q-28.38-27-56.8-54.1a28.85,28.85,0,0,1-1,4.78c-1,2.7-.25,4.38,2,6.18,4.19,3.38,8.08,7.15,12.07,10.79,4.5,4.1,9,8.18,13.43,12.38s8.62,8.19,12.65,12.54c5.38,5.8,10.64,11.73,15.66,17.85,2,2.47,4.34,5.47,4.67,8.43.6,5.5,4.3,9.41,5.85,14.33a24.35,24.35,0,0,0,2.66,6c2.89,4.37,6.15,8.5,9.08,12.85,3.3,4.91,5.89,10.4,9.71,14.84,6.28,7.3,13.23,14,20,20.89,6.43,6.47,12.7,13.17,19.66,19a311.17,311.17,0,0,0,26.61,20.28c6.61,4.47,14.05,7.7,21.31,11.58-.57-2.27-1-3.95-1.52-6,2.65,1,5.2,2.65,5.83,2.1,3.35-3,7.06-1.64,10.56-1.39-.89-1.78-1.7-3.41-2.52-5l1-.78c1.08.59,2.15,1.21,3.24,1.77,2.24,1.17,4.6,3.37,6.72,3.15,1.85-.18,2.82,0,3.65,1.23,2,2.85,4,5.22,7.51,6.6,5.64,2.24,11,5.22,16.34,7.83l3.66-6.55L346,632.45c-.76,2.11-.9,4.48-2,5.1s-3.44-.19-4.75-1.07a50.74,50.74,0,0,1-6.36-5.57,19.4,19.4,0,0,1-2-2.7,32,32,0,0,1,3.49-1.2c3.71-.85,6.2,1.27,8.6,3.88.09-7.35-7.19-10.23-9.85-16.44l5.9,1.13c-1.9-4.19-5.82-6.89-7.68-5.32.33.84.68,1.73,1,2.67-4.49.82-5.58.11-6.9-4.12-.79-2.51-1.37-4.87,3-5l0-1.06-4-2.88-3.94,6.78-9.76-2.67-.48,1.16,4.41,4c2.37-1.63,7-1.22,8.1,1,2.2,4.38,5.84,7.23,9.59,10.09a18.75,18.75,0,0,1,2.72,3.25c-4.05,3.35-5.38,3.68-8,.74-2.78-3.14-5.76-1.58-8.79-1.38-1.13.08-2.7.21-3.34-.43a65.25,65.25,0,0,1-5.05-6.49c-1.08.82-2.84,2.23-4.7,3.49-1.56,1.05-2.87,3.13-5.26,1.35-5.64-4.21-11.38-8.3-17-12.55-6.5-4.91-13-9.86-19.34-14.92-5-3.94-9.86-8-14.62-12.17-1.73-1.51-3.07-3.54-1.6-6.54.74.38.93,1.22,1.44,1.73a136.88,136.88,0,0,0,9.85,9.58c5.77,4.75,11.93,9,17.75,13.73,4.23,3.42,4.63,3.46,6-1.43.12-.43.25-.87.41-1.47-2.33-1.06-4.53-1.86-6.53-3s-3.75-2.64-5.62-4l.77-1.18c2.71,1.5,5.39,3.06,8.14,4.49,5,2.62,6.55,2.19,10.23-2.81-5.13-6.34-12.82-10.54-16.83-19L290.07,587a56.5,56.5,0,0,1,2.36-5.77c.6-1.11,1.59-2.67,2.55-2.79,3.75-.44,3.6-3.26,3.88-5.88l3.63-.43c-1-4.72-1-4.72,3.61-6q-7.87-14.2-15.71-28.37l.85-.51c5.62,9.07,11.25,18.13,16.71,27a21.35,21.35,0,0,0,4.58-.52,5.6,5.6,0,0,0,2.59-2.18,44.14,44.14,0,0,0,2.42-4.87c-1.69-3.65-3.61-7.79-5.54-11.93l1-.5,7.08,11,5.46-2.87c-.28-1.74-.59-3.66-.89-5.57l.87-.14L330,552c1.11-4.79,1.31-4.86,5.5-3.31l4.57-4.15c-2.92-9.92-6.07-20.6-9.21-31.28l1-.3,11.56,34.59c.91-1.44,1.47-3.36,2.71-4.05,2.62-1.47,2.33-3.5,1.74-5.61-2.17-7.86-4.5-15.68-6.71-23.53-.46-1.64-.66-3.36-1-5l1.27-.45a93.68,93.68,0,0,1,3.83,9.18c4,13.09,7.39,26.36,11.76,39.31,3,9,4.26,18.54,8.56,27.12.68,1.36.57,3.59,1.57,4.22,4.86,3.06,5.47,7.57,4.8,12.73l1.28.23c1-2.68,2-5.36,3.08-8.39l2.06.18.44-.78c-.86-.55-1.9-1.73-2.55-1.55-3.81,1.08-3.95-1.56-3.18-3.58a20.46,20.46,0,0,0,.23-14.77,9.6,9.6,0,0,1-.2-4.62c.21-1.3,1.06-2.5,1.79-4.1,1.59,1.44,3.4,2.41,3.31,3.12-.65,5,1.47,9.2,3.35,13.53a28.29,28.29,0,0,1,1.18,4.63l1.22.26c2.37-5.62,4.73-11.24,7.17-17,3.22,3.66,5.65,7.08,3.39,10.52l3,5.71,4-4.36c.62-3.91,1.62-7.77,1.74-11.66.14-4.35-.51-8.73-.83-13.1-.6-8.1-.39-16.37-2-24.26-2.28-11.14-4.14-22.38-8.15-33.21a209.82,209.82,0,0,0-14.09-30.46q-8.07-14.28-16.09-28.6c-.85-1.52-1.38-3.22-2.27-4.72-2.24-3.75-4.72-7.36-6.89-11.14-3.07-5.34-5.49-11.1-9-16.11-4.85-6.92-8.13-14.11-6.62-22.63.79-4.45,1.83-9,7.44-10.58a8.26,8.26,0,0,0,6.42-8.93c-.14-3.09,1.33-5,4.06-6.8,7.57-4.92,15.57-8.28,24.61-9.17,1.15-.11,2.37-1.39,3.19-2.41,1.84-2.29,3.45-4.75,5.15-7.14l.58.17c-.15,1.54-.3,3.08-.4,4.18,5.48-3.62,10.62-8.22,16.64-10.72,10.55-4.38,20.49-10.43,32-12.39,5.81-1,7.41-.08,7.62,5.53,3.31-.67,5.78-3.25,5.57-6.43q-1.27-20.37-2.84-40.73c-.15-1.92.15-4.31-2.88-4.76-2.56-.38-4,.59-5.35,2.74-3,4.7-5.78,5.13-11.35,3.44-2.56-.77-5.49-.36-8.25-.45-1,0-2.15.34-3,0-4.35-1.86-8.67-3.83-12.92-5.92-2.49-1.23-4.48-1.11-6.06,1.31a51.32,51.32,0,0,1-3.8,5.84c-2.93,3.36-2.24,6.71-1,10.47,2,5.8,3.5,11.75,5.22,17.64a61.35,61.35,0,0,1-5.26-10.86c-1.2-3-2-6.22-3.62-9-1.89-3.3-3.88-7-6.86-9.05-1.86-1.26-5.63.55-8.55.59-3.85.05-6.14,2.14-8.11,5.07a7.46,7.46,0,0,1-2.91,2.91c-5.31,2.05-10.64,4.08-16.11,5.59-4.6,1.28-9.3,7.21-7.94,11.74,2.18,7.27,5,14.36,7.42,21.55,1.65,4.87,3.26,9.76,4.64,14.71.5,1.82.28,3.84.38,5.77l-1.6.37a20.05,20.05,0,0,1-1.42-3.19c-.34-1.34-.19-2.82-.6-4.13-1.76-5.67-3.56-11.33-5.53-16.92-1.71-4.87-4-9.54-5.44-14.48-1.52-5.26-2.19-6.6-7.38-7.21-1.55-.19-3.55.92-4.84,2-.64.55-.43,2.48-.14,3.67a29.12,29.12,0,0,0,1.94,5c5.05,11.09,9.15,22.5,11.31,34.53.14.78-.46,1.69-1,3.37a23.84,23.84,0,0,1-1.57-3c-2.56-8.12-4.63-16.43-7.76-24.33-2.69-6.81-4.42-14.25-10.93-19.18-4.55-3.43-5.24-4-11-1.16a6,6,0,0,0,.21,1.45c3.9,10.13,7.84,20.24,11.7,30.39a27.85,27.85,0,0,1,.79,4.67c-1.57-.76-2.29-.86-2.43-1.2-4.52-11.33-9-22.68-13.89-35.06-2.76,2.79-5.06,4.94-7.17,7.26-4.24,4.65-8.35,9.42-12.56,14.09-2.47,2.73-4.83,2.44-7.77.26-1.39-1-4.43-1.4-5.81-.57-4.38,2.66-8.82,5.57-12.31,9.25s-7,6.4-12.46,6.23c2.46,5.15,4.7,9.94,7,14.68,5.32,10.87,10.53,21.8,16.09,32.55,5,9.6,9.87,19.27,15.63,28.38,6.49,10.26,13.76,20.06,18.45,31.33a222.89,222.89,0,0,0,19.54,36.09,26.89,26.89,0,0,1,1.77,4,2.14,2.14,0,0,1-2-.82c-7.11-10.6-14.33-21.13-19.5-32.9-1.8-4.1-4-8-6.16-12-2.44-4.47-4.87-8.95-7.6-13.24s-6.11-8-8.54-12.34c-4.46-8-8.44-16.29-12.59-24.47-4.26-8.38-8.47-16.77-12.72-25.15-3.84-7.56-8-15-11.47-22.71-2.86-6.31-2.91-6.67-10-5.4,20.75,50.35,47.22,97.63,77.4,143.05a8.34,8.34,0,0,1-4.13-3.1c-6.19-9.06-12.27-18.2-18.44-27.28a289.69,289.69,0,0,1-18.47-32.14c-4.14-8.17-9.57-15.69-13.72-23.86-6.1-12-11.56-24.35-17.3-36.54q-3.94-8.38-7.93-16.75l-1.59.08c-.38,1.94-1.65,4.28-1,5.75,3.44,7.64,7.28,15.11,11.18,22.54,2.76,5.26,6,10.25,8.75,15.53,6.78,13.19,13.29,26.52,20.07,39.72,4.13,8,8.23,16.13,12.93,23.85,8.93,14.68,18.16,29.19,27.51,43.61,6.95,10.71,14.31,21.15,21.44,31.75a27.55,27.55,0,0,1,1.82,3.79l-1.71,1.43c-.56-1.07-1.08-2.15-1.67-3.2-1.82-3.27-3.44-6.68-5.54-9.77-6.06-8.95-12.59-17.58-18.42-26.68-10.19-15.89-20.33-31.85-29.86-48.15-7.37-12.59-13.78-25.74-20.59-38.65q-4.87-9.22-9.66-18.5c-4.55-8.79-9-17.61-13.61-26.39-1.81-3.48-3.72-6.9-5.57-10.33L216,354.88l51.41,92.65-1.33,1a18.68,18.68,0,0,1-2.9-3.16c-6-10.71-11.92-21.49-17.91-32.22C240.15,404,235,395,229.92,385.86c-2.67-4.85-5-9.89-7.66-14.74-2.42-4.41-5-8.7-7.7-13-.78-1.25-2.41-2.09-2.86-3.39-1.42-4-2.37-4.82-6.68-4.52-3,3.82-.89,7.29.9,10.56q6.42,11.7,13.24,23.17c4.08,6.87,8.43,13.57,12.62,20.37a33.49,33.49,0,0,1,1.56,3.25l-1,1a17.84,17.84,0,0,1-3.26-2.53,42.44,42.44,0,0,1-2.54-4.24c-2.18-3.36-4.64-6.57-6.62-10.06-6.16-10.83-12.15-21.76-18.17-32.6-1.5,1.7-2.62,4.18-4.2,4.52-2.8.59-3.33,2.38-4.07,4.4ZM240,764.64l-.31-1.21,46.92-25-.75-1.55c-3.91,1.9-7.79,3.88-11.74,5.7s-7.64,4.58-12.27,4.73c3.62-2.54,7.51-4.48,11.27-6.64,4.86-2.79,10.55-4.28,14-8.46-.45-2.33-.8-4.18-1.17-6.07-1.53-.59-3.13-1.32-4.81-1.81-3.9-1.14-4.33-2-2.2-7L265,720.34l-.22-.59,8.39-4-2.09-5.9-7.74,2.32c2.34-4.65,9.3-3.34,9.6-8.82l-93.07-.91c0-.44,0-.87-.08-1.3a20.92,20.92,0,0,1,4.36-.82c8.54.18,17.09.61,25.63.73q15.27.2,30.54,0c7.75-.11,15.5-.49,23.25-.9,2-.11,4.54-.15,4.59-4.11-14.25,1.18-28.3.91-42.36,1.17l0-1.57,41.89-2.11c.31-2.64.11-3.93-2.7-3.73-7.1.5-14.22.75-21.33,1-17.71.57-35.42,1.9-53.09-.54-2-.27-4.05-.2-6.07-.29,0-.48,0-1,0-1.43h76.15c-.51-2.37-.81-3.81-1.23-5.76l-19.61,1.32c.39-1.11.88-1.56,1.43-1.63,4.74-.6,9.5-1.09,14.23-1.75a10.62,10.62,0,0,0,2.81-1.26c-14.13-.4-27.79,1.4-41.48-.84a7.52,7.52,0,0,1,3.81-1c12.63-.55,25.3-.59,37.87-1.78,12.18-1.15,24.25-3.47,36.35-5.34,1.25-.2,3.12-.58,3.5-1.41,1.66-3.67,5.23-3,8-4,.17-.07.23-.43.44-.86-.31-.4-.66-1.27-1-1.28-4.12-.14-6.93-2.77-10.2-4.75-3.09-1.87-7-2.37-10.24-4-10.71-5.43-21.41-10.91-31.89-16.76-7.55-4.21-14.71-9.12-22.13-13.59C223.23,619,215,614.43,207,609.52c-6-3.65-11.67-7.68-17.52-11.49-7.62-5-15.28-9.9-22.92-14.86a36.56,36.56,0,0,1-5-3.45c-7-6.48-14-13-20.78-19.67-4.68-4.58-9.18-9.35-13.59-14.19a43.79,43.79,0,0,1-3.8-5.7c.42-.35.84-.7,1.27-1l5.44,5.3,1-4.84c2.6,3.53,4.39,6.86,7,9.32,5.43,5.14,11.61,9.5,16.88,14.78,8.79,8.78,17.85,17.14,28.17,24.13,11.77,8,23.21,16.45,35.12,24.21,9.18,6,19.14,10.81,28.27,16.89a312.6,312.6,0,0,0,39.81,22.4c4.29,2,8.9,3.4,13.36,5.08l.31-.83-17.1-10.95c-6.09-3.89-12.11-7.88-18.28-11.63-4.39-2.66-9.16-4.73-13.45-7.53q-18.66-12.18-37-24.76c-7-4.82-13.9-9.87-20.57-15.16-7.38-5.85-14.46-12.06-21.62-18.17a76.11,76.11,0,0,1-7.05-6.61c-4.85-5.35-9.55-10.85-14.21-16.36a12.63,12.63,0,0,1-1.45-3.23l1.43-1c2.33,2.35,4.82,4.57,7,7.09,4.4,5.18,8.19,10.95,13,15.66s10.59,8.16,15.81,12.33c8.36,6.68,16.36,13.84,25,20.16,11.26,8.26,23,15.92,34.5,23.77,2,1.37,4.21,2.44,6.33,3.65-6.94-6.88-14.24-13.14-21.46-19.49-6.4-5.63-13-11.07-19-17.09C201,575.34,190.23,564.32,180,552.91c-4.6-5.1-8-11.27-11.9-17-.37-.55-.18-1.48-.33-3,1.2.79,1.89,1,2.15,1.46,5.63,10.08,13.93,17.86,21.75,26.15,13.76,14.59,28,28.61,43,41.88a227.08,227.08,0,0,0,33.11,24.73c7.5,4.51,15.37,8.4,22.85,12.94,8.7,5.29,10.84,5.77,21.6,2.62-3.18-.71-6-2.15-8.5-1.7-4.2.78-7.79-.29-9.81-4a8.2,8.2,0,0,0-3.59-3.72c-12.12-4.6-22.38-12.23-32.51-19.95a250,250,0,0,1-23-19.43,318.68,318.68,0,0,1-25.95-27.82c-7.08-8.76-12.81-18.62-19.07-28-2.94-4.4-5.42-9.13-8.66-13.29-3.81-4.91-8.41-9.21-12.28-14.08a7.85,7.85,0,0,0-7-3.19c-6.79.24-11.72,4.11-15.54,9.09-4,5.2-8.11,10-14.09,12.88-3.8,1.82-7.84,3.18-11.51,5.24-7.06,4-13.9,8.33-20.9,12.41-2.46,1.43-3.17,4.32-1.09,6.15,3.29,2.9,6.69,5.67,10.06,8.47l17.61,14.56-.62.79L96.64,555.18c-.17,2.08-.39,3.69-.43,5.3-.18,8.08-3.17,14.81-9.9,19.45-4.53,3.13-9.36,5.82-14.94,9.26l32.17,13-.37,1L71.5,592.29l-.49.83a26.73,26.73,0,0,1,3,3.26c.89,1.34,2.23,3.1,2,4.35a22.88,22.88,0,0,1-3.34,7.64c-3.78,5.53-2.7,5.21,2,10a5.51,5.51,0,0,1,1.43,3.39,33.08,33.08,0,0,1-.74,5.51l43.84,2.47-.07,1.48-41.44-1.44c1.53,4.1,4.49,4.44,8.1,4.45,10.73,0,21.45.4,32.17.69a18.8,18.8,0,0,1,3,.52l-.11,1.07c-11.94,0-23.88,0-35.83,0-.9,0-1.81.75-2.71,1.15.76.77,1.47,2.12,2.3,2.2a51.7,51.7,0,0,0,6.92-.16c9.75-.32,19.5-.74,29.26-.9,6-.1,12.1.21,18.15.34v1.07c-3,.16-6.08.34-9.12.47-14.82.61-29.65,1.18-44.48,1.85a10.63,10.63,0,0,0-3.14,1.22l.34,1.11c8.28,0,16.56-.2,24.83,0,12.22.36,24.44.85,36.63,1.67,4.56.31,9,1.71,13.56,2.6l-.23,1c-25.61-3.79-51.35-2.61-77-2.49-1.16,3.71.17,5,3.39,5,1.17,0,2.34,0,3.51,0,11.17.13,22.34.23,33.51.42a18.34,18.34,0,0,1,3.77.87l-.15,1h-4.1c-11.78,0-23.56.07-35.35,0-2.28,0-3.35.74-3.64,3.13,26.54.09,52.62,2.94,78.81,4.09l-.11,2.05-80.73-3.7c-.17,1.47-.29,2.55-.43,3.89,13.46,1.31,26.55,3,39.69,3.74,13.33.77,26.73.35,40.08,1,13,.64,26-1.73,39-.54l0,1.77c-40.22,3.43-80.37,1.44-120.66-3.32.87,4.19,1.41,7.49,2.29,10.7.62,2.24,1.52,4.41,4.5,4.67a33.66,33.66,0,0,1,4.79,1.29c4.42,1.06,5.84,3.43,3.7,7.26-1.63,2.94-1,4.54,1.55,6.36,3.57,2.53,4.76,6.93,2.69,9.84-3,4.21-2.07,8.65-.82,12.89.64,2.19.25,3.14-1.44,4-3.07,1.65-6.23,3.16-9.2,5A4.32,4.32,0,0,0,83,732c-.06.64,1.32,1.92,2.17,2,6.87.91,13.75,1.74,20.64,2.34,4,.34,7.82.67,11.11,3l-26.53-1.48c1.88,4-1,6.68-3.45,8.73-2.72,2.31-3.69,5-4.56,8.38l5.3,3.34c4.18,2.64,7.38,5.41,7,11.37a18,18,0,0,0,5.52,14.42c3.7,3.45,3.36,7,2.1,11.2a20.93,20.93,0,0,0-.61,8.23c.52,4.38,1.66,8.68,2.6,13.33l29.88-7.28.24,1-33.56,9.46c3.41,4.48,6.31,8.8,11.07,11.89,6.89,4.46,10.21,12,14.46,18.74.36.58,0,1.58,0,3.1l30.15-13.79c-10.68,7.14-23,11.33-33.62,18.73,3,2.82,5.76,4.86,7.81,7.45,1.61,2,3.79,5.16,3.22,7.07-1.68,5.67.94,9.33,4.14,13.12,3.58,4.23,15.48,6.3,19.84,3.35,3.95-2.68,7.79-5.52,11.77-8.16,4.61-3,9.33-5.95,14-8.92a76.55,76.55,0,0,1-10.8,8.9c-5.13,3.69-10.39,7.22-15.4,11.06-1.29,1-2.63,2.86-2.66,4.35-.08,6.45,4.76,10.87,11.22,10.73,1.29,0,2.57,0,3.93,0,.94,4.42,3.84,6.72,7.82,8.72,3.53,1.78,5.92,1.16,8.54-1,4.93-4.14,9.88-8.27,14.78-12.45,6.68-5.69,13.29-11.47,20-17.08.53-.44,1.94.17,2.94.29.19.49.39,1,.59,1.46-1.08.71-2.19,1.38-3.23,2.16-2.8,2.08-5.66,4.1-8.33,6.34q-11.68,9.78-23.23,19.74c-1.76,1.52-3.83,3-4.83,5-.62,1.22.27,3.46,1,5,.22.43,2.82.39,3.55-.29,3.49-3.21,6.56-6.88,10.07-10.07Q219.33,897.6,239.16,880a28.78,28.78,0,0,1,3.55-2.36l.95.87c-.81,1.67-1.26,3.72-2.51,4.94-3.64,3.56-7.64,6.76-11.43,10.16q-15.12,13.57-30.18,27.21c-2.26,2.05-4.46,4.17-7.06,6.6l5.84,4c4.76-4.88,9.43-9.69,14.14-14.47,6.18-6.27,12.22-12.69,18.63-18.71s13-11.74,19.83-17.24c3.68-3,8-5.2,12.39-8-1,2.64-1.27,4.73-2.43,5.92-2.14,2.19-4.86,3.78-7.26,5.72-4.19,3.38-8.58,6.56-12.42,10.3-6.11,6-11.78,12.36-17.74,18.47C218.3,918.6,213,923.75,207.74,929l.42,1c2-.37,4.74,0,5.92-1.22,8.5-8.56,16.64-17.48,25-26.2,3.43-3.59,6.91-7.14,10.65-10.39,3.08-2.68,6.66-4.77,9.87-7.32,7.84-6.24,15.56-12.64,23.44-18.84,1-.78,2.57-.8,3.88-1.17l.56,1.37c-12.42,10.32-25.35,20.11-37.13,31.11s-22.53,23.31-33.81,35.13c.52,1.17,1.12,2.52,2,4.5,4.83-4.79,9.2-9.34,13.8-13.64,8.87-8.29,17.74-16.58,26.86-24.59,7.15-6.28,14.52-12.34,22.1-18.1,6.57-5,13.54-9.49,20.39-14.11,1.41-.95,3-2.55,4.86-.91-14.93,11.57-30.16,22.56-44.43,34.66-14.45,12.25-28,25.59-42,38.55,6,4.6,12.48,5.06,19,5.66,2.11.2,5.08,1.63,5.88,3.33,1.95,4.15,4.82,4.86,8.9,4.77,2.69-.06,5.48.5,7.11,3.61,3.08,5.86,8.18,9,14.8,9.66,4.36.41,8.73.81,13.11,1a3.64,3.64,0,0,0,2.5-1.31c4.9-5.81,9.7-11.7,14.56-17.55a30.2,30.2,0,0,1,2.3-2.22l1,.9c-4.36,5.72-8.85,11.35-13,17.21-1.87,2.61-4.92,4.8-4,8.81,1.3,5.86,6,9.1,12.59,8.44,5-.5,9.32,0,13.57,3.76,4.79,4.24,6.2,5.51,11.93,2,1.72-1,4.1-1.07,6.21-1.33,4.31-.54,8.71-.56,12.93-1.48,3.64-.8,7.08-2.55,10.67-3.9-1.66-15.87-1.35-25.69,1.2-30.08a17,17,0,0,1,0,3c-2,10.15-.24,20.1,1.7,30,.35,1.75,1.26,4.15,2.58,4.74,1.08.47,3.41-1,4.75-2.16,4.83-4,6.64-4.38,12.36-1.65,1-.61,2.27-1,2.95-1.84,1.45-1.82,3.86-4,3.66-5.81a135.64,135.64,0,0,0-3.81-20.7c-3.8-14-7.86-27.85-12.27-41.62-3.61-11.29-7.88-22.37-11.84-33.54-.34-1-.52-2-.77-3l1.54-.53c5.5,10.18,8.7,21.33,12.07,32.35s6.39,22.4,9.49,33.62,6.09,22.41,9.15,33.7l2.77-.35c-2.43-26.34-10.14-51.21-17.31-76.39a4.52,4.52,0,0,1,2.59,2.52c1.7,5.28,3.13,10.66,4.9,15.93.73,2.19-.26,5.84,4,5.68.32,0,.76,1.25,1,2,2.28,6.28,4.6,12.54,6.77,18.85,2.84,8.23,5.52,16.51,8.33,24.76,1.11,3.24,2.38,6.43,3.58,9.64l1.07-.3c.1-1,.2-2,.3-3.07l3,3,1-.78-15.09-43.3,1.12-.39c7,14.79,11.61,30.5,17.2,46.14l2-1a155.73,155.73,0,0,0-11.87-36c7.23,9.55,8.88,21.85,15.37,32.17,1.59-1.62,3.14-3.13,4.59-4.73s3-2,5.11-.81c5.47,3.12,9.31,2.47,13.08-2.54s8.51-6.94,14.65-6.06a5.6,5.6,0,0,0,4.12-.94c1.94-1.83,3.41-4.16,5.34-6.63,4,.67,5.83-.68,5-4.55a13.93,13.93,0,0,1-.68-3.41,3.07,3.07,0,0,1,1.33-2.32c4-1.7,8.08-3.2,12.15-4.72a6,6,0,0,0,4.13-5.15c.77-5.48,4-8.34,9.41-9.1a15.77,15.77,0,0,0,3.62-1.41,7.64,7.64,0,0,0,.1-1.23c-.05-.24-.27-.47-.29-.71-.34-6.3-1.78-12.55,3.53-18.08,2.53-2.63,3.08-6.68,1.27-10.83a107.66,107.66,0,0,0-17.49-28.13c-2.52-2.89-5.06-5.79-7.82-8.45-4.36-4.2-9.24-7.89-13.3-12.34-7.55-8.27-14.78-16.84-21.93-25.46-6.19-7.45-12.53-14.83-18-22.78-6.63-9.62-12.64-19.68-18.51-29.79-5-8.59-9.49-17.48-14.08-26.3-2-3.79-3.65-7.75-5.56-11.87-.84,3.54-1.6,6.75-2.47,10.45a90.76,90.76,0,0,0,3.21,10.22c2.83,6.52,5.82,13,9.19,19.25,6.94,12.84,14,25.65,21.39,38.22,3.2,5.41,7.36,10.27,11.22,15.27,9.35,12.1,18.41,24.46,28.32,36.09,7.09,8.34,15.49,15.54,23,23.49,3.87,4.06,9.13,7,11.33,13.91-1.7-1-2.74-1.32-3.44-2-3.37-3.36-6.59-6.87-10-10.2-6.46-6.35-13.44-12.24-19.41-19-8.7-9.87-16.83-20.26-25-30.61-6.36-8.09-13-16.06-18.37-24.82-8.19-13.46-15.76-27.35-22.84-41.43-5.89-11.72-10.69-24-16.07-36-.28-.64-1.41-.9-2.14-1.33a39.4,39.4,0,0,0,2.94,10.43c4,9.08,7.93,18.18,12.2,27.13,7.11,14.93,14,30,21.84,44.54,7.62,14.15,15.38,28.28,25.75,40.8,4.35,5.24,7.42,11.54,11.07,17.36-.92.34-1.34.3-1.52.08-2.37-3-4.83-5.92-7-9-6.33-8.91-13.19-17.53-18.66-26.95-9.71-16.75-19.15-33.72-27.59-51.13-7.81-16.13-14.15-33-21.18-49.47-1.38-3.24-3-6.39-4.64-10-21.5,40.89-30.51,84-30.19,129.41l-1.58-.11c-.37-3.37-.73-6.75-1.1-10.13a114.77,114.77,0,0,0-1.4,18.69c.15,7.24.76,14.48,1.51,21.69,1.05,10.16,2.45,20.29,3.63,30.45a42.12,42.12,0,0,1,0,4.9l-1.43.17a22.9,22.9,0,0,1-1.22-3.79c-.45-3.18-.7-6.39-1.05-9.59-1.27-11.31-3.35-22.6-3.6-33.93-.32-14,1.21-28.07,1.35-42.11.16-16.78,2.79-33.17,6.59-49.41.85-3.61-.22-6-2.48-8.76a9.41,9.41,0,0,0-.91,2c-2.42,14.89-5.24,29.74-7.05,44.71-1.47,12.28-1.91,24.7-2.45,37.08-.35,7.87-.17,15.77,0,23.65a29.44,29.44,0,0,1-2.76,14c-.12-3.39.77-6.8.3-10-1.39-9.3-1-18.58-.42-27.88.72-11.61,1-23.28,2.37-34.83,1.68-14.5,4.24-28.91,6.34-43.37a3.1,3.1,0,0,0-.77-2.52c-1.8-1.3-3.83-2.3-6.12-3.62L317.54,792.7l-.7-.37c3.83-7.7,7.67-15.4,11-22.09-1.79-1.88-3-3.24-4.29-4.47a7.22,7.22,0,0,0-2.44-1.6c-5-1.75-9.42-1.88-11.88,4-.08.21-.57.24-1.63.65l4.33-9.72L308.3,756l-5.05,3.54-.84-.87,4.26-6c-2.25.48-3.59.51-4.68,1.05-3.82,1.87-7.55,3.95-11.36,5.87a8.51,8.51,0,0,1-2.36.42l-.4-1.12L300,751.29l-3.8-2.49c-8.37,5-16.68,10.48-25.39,15.19-13.19,7.14-26.65,13.8-40,20.58-.9.45-2.14.23-3.22.32l-.27-1c2.32-1.33,4.58-2.76,7-4,9.4-4.77,18.93-9.29,28.23-14.25,7.72-4.12,15.22-8.64,22.73-13.13,4.32-2.59,9.43-4.44,11.2-11.17-12.37,6.75-23.42,14.53-35.93,19.38,9.49-7.08,20.34-12.08,29-20.29a73.59,73.59,0,0,0-10,4.86q-17.67,9.27-35.41,18.37A17.7,17.7,0,0,1,240,764.64ZM530.66,636c.29,2,.52,3.65.76,5.3,5.45-.77,11.15-2.23,16.83-2.18s11.76-1.3,17.81,2.33a45.56,45.56,0,0,1-5.7,0,60.64,60.64,0,0,0-24.93,2c-3.43,1-6.63,2.75-10,4.08s-6.63,2.48-9.94,3.73l-10.95,4.19,1.76-3.44-37.88,3.21c.54,2.51.7,4.93,4.48,4.09,1.4-.31,3.12.82,5.81,1.62l-8.08,4.23c.77.42,1.07.73,1.41.76,14.85,1.54,28.54,6.88,42.09,12.69,3.05,1.31,6.11,2.65,9.25,3.7,6.16,2,12.82,3.06,18.5,6,8.52,4.42,16.47,10,24.45,15.38,3.18,2.15,5.72,5.22,8.68,7.72,6.19,5.23,12.68,10.13,18.65,15.61,3.08,2.84,5.2,6.69,7.91,9.95,3.14,3.79,6.51,7.4,9.64,11.19a31.42,31.42,0,0,1,2.61,4.43c-1.36.3-2.25.26-2.69-.2-3.13-3.26-6.24-6.54-9.22-9.94-4.41-5.06-8.31-10.66-13.16-15.25-6.47-6.11-13.51-11.64-20.54-17.12-5.68-4.42-11.63-8.49-17.58-12.54a95.94,95.94,0,0,0-11.27-6.82,148.21,148.21,0,0,0-17.22-7.5c-8.38-2.87-17.32-4.32-25.39-7.82-9.51-4.12-19.54-5.29-29-7.87.46,2.09.89,4,1.28,5.79,4.48,1.81,9.3,3.81,14.14,5.71,3,1.17,6,2.71,9.09,3.2a63.78,63.78,0,0,1,26,9.75c13.06,8.81,25.63,18.32,36.42,30,2.18,2.35,5,4.08,7.28,6.35,2.9,2.91,5.21,6.48,8.36,9.06,12.29,10,19,23.74,24.65,37.92,4.27,10.61,6.33,21.88,7.71,33.3.85,7,1.21,14.69,7.51,19.47a235.06,235.06,0,0,0,23.65,16.28c7.75,4.51,16.41,4.56,24.88,1.37,3.71-1.39,6.18-2.51,2.41-7.18-3.32-4.12-2.47-5.58,2.82-7.14a65.69,65.69,0,0,0,6.79-2.83c-.83-1.69-1.35-2.71-1.84-3.75-2.8-5.89-2.05-7.53,4.17-9,4.54-1.09,9.07-2.29,13.66-3.14,4.75-.88,6.38-5.05,8.89-8.17.95-1.17.58-3.58.48-5.41-.42-8,4-14,11.78-16.13a51.07,51.07,0,0,0,7.62-2.86c.71-.32,1-1.45,1.57-2.21.85-1.24,1.46-2.87,2.63-3.63,2.58-1.68,3.56-5.38,1.47-7.68-5.2-5.73-10.6-11.28-15.71-17.08-3.5-4-6.77-8.14-9.91-12.4a6.34,6.34,0,0,1-.31-7.16c1.39,3,2.31,5.62,3.79,7.91a52.59,52.59,0,0,0,5.47,6.58c1.83,2,3.81,3.88,5.7,5.82,6.09,6.23,7.41,5.5,13.39,0a5.07,5.07,0,0,0,1-4.35c-1.35-4.49-.79-8.2,3.08-11.12,2.68-2,3-4.9,3.1-8,.06-2.69.45-5.37.74-8.52-3.86-1.52-8.5-3.48-13.24-5.18-5.38-1.93-10.79-4.69-16.62-.48,0-3.76,1.85-5.41,4.82-5.18a82.53,82.53,0,0,1,11,1.9,48.83,48.83,0,0,1,5.56,1.83,5.25,5.25,0,0,0-2.26-3c-4.13-2.68-8.72-4.82-12.39-8-11.88-10.37-26.77-13.06-41.21-17-6.46-1.78-12.93-3.54-19.36-5.44-.77-.23-1.3-1.25-1.94-1.9,1-.26,2.09-.9,3-.69a39,39,0,0,1,4.68,1.92c4.35,1.65,8.62,3.61,13.1,4.8,8.1,2.16,16.33,3.82,24.5,5.77a19.49,19.49,0,0,1,5.82,2c11.92,7.58,23.75,15.29,35.57,23,4.43,2.9,9.85,2.35,14-1.83a35.3,35.3,0,0,0-3.17-2.14c-6.41-3.42-13-6.52-19.25-10.2a130.83,130.83,0,0,0-41.95-15.8,61,61,0,0,1-10.3-3.08c-12.49-4.8-25-9.33-38.34-11.34a15.78,15.78,0,0,1-3.19-1.23l.23-1.34c1.67,0,3.43-.35,5,.06,6.75,1.78,13.5,3.61,20.14,5.74s13.12,4.7,19.7,7c4.26,1.46,8.58,2.75,12.89,4,9,2.69,18.4,4.55,27,8.17,9.15,3.84,17.6,9.34,26.37,14.08,1.82,1,3.72,1.84,5.62,2.66,1.74.76,2.74.07,3-1.79.76-6.38-1.8-11.93-8.09-14-10.64-3.54-21.61-6.09-32.41-9.17-4-1.14-7.88-2.47-11.74-3.92-4.84-1.8-9.62-3.76-14.37-5.78a15,15,0,0,1-2.87-2.16c1.2-.87,2-1.12,2.65-.91,5.17,1.71,10.7,2.79,15.38,5.41,12.39,6.93,26.53,7.71,39.61,12.12a22,22,0,0,0,3.37.59c.12-.26.24-.53.37-.79-2.4-1.36-4.67-3.06-7.21-4-9.46-3.53-19.3-6.15-28.44-10.34a162,162,0,0,0-35.81-11.36c-7-1.42-14-2.52-21-3.86a22,22,0,0,1-3.92-1.75c1.1-.53,1.32-.74,1.54-.72,15.1,1,29.7,4.71,44.12,9,8.68,2.55,17,6.38,25.51,9.54,2.17.8,4.47,1.25,6.71,1.86l.42-.85c-2.52-2.74-5.34-5.25-7.46-8.26-2.69-3.82-5.76-6.23-10.64-6.7-2.63-.25-5.13-2-8.2-3.29,4.44-2.82,8.53,3,12.44-1.51.65.42,1.74,1,2.73,1.75,1.59,1.16,2.95,2.89,4.71,3.53,7.92,2.89,16,5.47,23.93,8.19,5.85,2,11-1.15,12-7.29.46-2.92-.29-4.75-3.4-6-6.53-2.6-13.58-5.1-12.22-14.5a1.56,1.56,0,0,0-.14-.76c-2.43-5.15-.22-10.23.42-15.29.2-1.61,1.66-3.1,2.64-4.58,1.65-2.53,6.07-4,3.06-8.28-.09-.13,0-.54.18-.71,2.44-2.8-.18-5-.85-7.41-.71-2.63-1.95-5.67-1.25-8,1.79-6,2.11-6-2.49-10.65-1.71-1.73-3.69-3.4-2.24-6.39,2.29-4.7,1.91-8.93-1.47-13.33-3.82-5-6.05-11.12-12-14.45-1.92-1.07-1.92-3.39-.52-5.52,2.09-3.16,1.57-4.07-2.23-4.67a61.89,61.89,0,0,1-8.41-1.49c-1.43-.44-3.34-1.72-3.67-3-1.17-4.48-4.21-5.4-8.19-5.61-2.14-.11-4.62-.35-6.3-1.49-4.93-3.33-9.53-7.13-14.26-10.76-1.56-1.2-2.33-2.57-.48-4.13,2.24-1.9,1.27-3.67-.16-5.39-3.58-4.3-3.91-8-1.06-12.78,2.67-4.46,1.53-10.29-2.92-11.94-3-1.12-6.51-1.07-9.81-1.32-2-.16-4.14.35-6.16.08-2.63-.35-4-1.87-2.64-4.66s0-3.31-2.33-3a17.14,17.14,0,0,0-4,1.32c-3.06,1.34-5.89.6-7-2.45s-3.17-4-6-4.62a37.2,37.2,0,0,1-10-3.45c-2.45-1.39-4.43-2.24-7.21-1.25A14,14,0,0,1,607.87,463c-1.89-1.14-3.81-2.22-5.65-3.42-2.37-1.55-4.74-1.89-6.58.52-3.11,4.07-6.18,8.2-8.88,12.53-3.5,5.61-6.63,11.45-10.41,18.05-.16-4.55-.49-8,2.78-10.67a6.74,6.74,0,0,0,2-2.85c3-8.33,8.32-15.05,14-21.37-1-3-2.57-4.26-6-3.91-1.88.2-5.1-1.66-5.85-3.4a109.76,109.76,0,0,1-6.19-18.24c-1.09-4.56-1-9.43-1.26-14.17-.3-6,2.39-11.77.06-18-.92-2.43-1.49-4-4-4-9-.09-18,0-27.38,0-.5,15.78-.34,31.62-6.65,46.4-1.88-2-1.29-4.59-.75-7.23,1.33-6.6,2.75-13.18,3.85-19.82.37-2.21-.12-4.56-.22-6.85l-1.14,0a16.54,16.54,0,0,0-1,1.94q-10,26.08-20,52.17a64.59,64.59,0,0,1-2.68,6.86c-.39.76-1.84,1-2.8,1.45-.1-.88-.55-1.9-.26-2.63,4.31-10.8,9-21.46,13-32.37,4.64-12.63,8.7-25.47,13-38.21.9-2.64,1-5.11-1.11-7.48a63.21,63.21,0,0,0-3.68,10.07c-2.07,7.63-3.65,15.41-6.11,22.91-2.57,7.82-5.93,15.37-9,23-5.41,13.69-10.8,27.39-16.28,41.06-.29.72-1.29,1.17-2,1.74l-.88-.53a25.38,25.38,0,0,1,.83-3.93c7.4-19.1,15.37-38,22.12-57.33,5.33-15.28,9.32-31,13.53-46.69.8-3-.21-6.47-.38-9.72l-1.33-.23c-1,3.25-2,6.51-3.12,9.73-6.05,17.78-11.94,35.62-18.26,53.32-4,11.08-8.87,21.83-12.79,32.93-4.39,12.41-8.1,25.06-12.18,37.57a32.09,32.09,0,0,1-2.12,4.33l-1.19-.44a8.44,8.44,0,0,1,0-2.36c2.91-9.51,5.62-19.09,8.88-28.47q7.14-20.54,15-40.83c8-20.7,15.71-41.45,21.26-62.95.83-3.19,1.85-6.33,2.86-9.78-1.27-1.12-3.87-2.28-4.09-3.8-.76-5-4.57-7-8.07-9.32-1.93-1.26-2.58-2.37-2.06-4.72.91-4.14.13-5-4.07-5.71-1-.18-2.08-.22-3.09-.44-7.16-1.59-14.39-2.93-21.44-4.91-4.78-1.34-6.11-.85-6.67,4.23-.5,4.51,1.88,8,4.32,11.34,1.75,2.41,4.61,4.29,5.6,6.92a54.54,54.54,0,0,1,3.31,24.52,42.32,42.32,0,0,1-2-7.6c-1.14-7.34-3.06-14.2-7.88-20.22-5.1-6.38-9.57-13.29-4.64-22a7.92,7.92,0,0,0-1.12-.88,1.75,1.75,0,0,0-1.1-.28c-5,1.26-7.81-1.57-10.5-5.13-.63-.83-2.51-1.16-3.72-1a5.54,5.54,0,0,0-2.87,2.05,38.22,38.22,0,0,0-2.77,3.95l-1-.46c0,5.54-.63,11.16.14,16.58,1.23,8.54,3.35,16.95,5.21,25.39.58,2.63,1.62,5.16,2.33,7.78.78,2.93,1.42,5.91,2.12,8.87l-1,.28c-.73-1-1.47-2-2-2.72L464,386.1c-.39-.73-1.12-1.47-1.11-2.2.07-4.74-.58-9.24-3-13.47-2-3.49-3.61-7.17-5.4-10.76l-1.07.37c.14,1.35.18,2.73.45,4,1.95,9.79,4,19.57,5.89,29.37a14.26,14.26,0,0,1-.12,4.51c-.2,1.48-1,2.92-1,4.37,0,4.78.38,9.55.43,14.33,0,.83-.81,1.68-1.24,2.52l-1.13-.26c-.13-1.6-.26-3.21-.41-4.81-.78-8.75-1.37-17.52-2.41-26.24-.64-5.35-2.27-10.58-2.92-15.93-.78-6.37-1.17-12.8-1.41-19.21-.14-4-2.28-6.24-5.55-8.52a11.73,11.73,0,0,0-.22,1.92c1,9.4,1.59,18.86,3,28.2,1.95,12.84,5.54,25.45,5.17,38.62-.21,7.33-.15,14.67-.33,22,0,.76-.82,1.51-1.6,2.87a12.09,12.09,0,0,1-.76-2.28c-.06-1,.07-2.07,0-3.1-.41-10.47-.24-21-1.42-31.41-1.34-11.81-4.28-23.44-5.8-35.24-1.74-13.53-2.69-27.15-4-41.13a42.17,42.17,0,0,0-5.56,1.28c-7.13,2.71-14.26,5.45-21.3,8.37-9.67,4-18.42,9.28-24.16,18.62-.67-.16-1.34-.55-1.88-.41-4.56,1.15-9.43,0-13.9,2.74-4,2.48-8.79,3.61-13.09,5.65a4.63,4.63,0,0,0-2.36,3.38c.24,7.76-4.06,11.78-10.82,14.09-.87.29-2,1.07-2.21,1.83-.81,3.29-2.58,7.06-1.68,9.91A116.29,116.29,0,0,0,349.63,409c5,9.45,10.49,18.64,15.69,28,4.25,7.62,8.18,15.42,12.62,22.91,7.68,12.95,14.91,26.22,19.61,40.46,3.4,10.3,5,21.28,6.57,32.08,1.54,10.4,2.25,20.94,2.94,31.44.42,6.25.1,6.28,5.85,6.28.18,0,.37.31,1.34,1.2l-4.49,1.86c-.25,2.11-1.37,4.83-.64,6.9,1.31,3.76-.73,6.13-2.8,7.9s-2,3.13-.87,5.63l7.28-9.29.95.68c-.35,5.18-4.82,8.47-6.25,13.5l5.24-2.41-5.5,9.41c-2.56.24-4.26-3.12-4.18-9.23-1.2,5.81.69,12.23-2.94,17.29l1.49,1.26c2.38-1.14,4.53-2,6.56-3.18a4.25,4.25,0,0,0,2-2.15c2-7.12,3.29-14.51,6-21.34,1.55-3.94,1.28-7.21.84-11.1-1.39-12.19-2-24.48-3.39-36.66-1.27-10.77-3.37-21.44-4.89-32.18-1.06-7.51-1.38-15.15-2.74-22.6C404,475.05,401.5,464.51,399,454c-3.42-14.55-9.48-28.13-15.68-41.65-1.65-3.6-2.91-7.37-4.35-11.06l1.35-.63c2.23,3.57,4.93,6.94,6.61,10.75,4,9,7.47,18.12,11.11,27.21a141,141,0,0,1,8.55,34.07c1.54,11.62,3.73,23.16,5.52,34.76,1.17,7.52,2.25,15.06,3.18,22.62q1.69,13.63,3.05,27.31c.43,4.31.48,8.66.7,13a102.21,102.21,0,0,0,1.19-15.06c0-8.11-.1-16.22-.44-24.32-.3-7-1-13.91-1.53-20.86-.54-6.58-.67-13.24-1.85-19.7-2-10.92-4.81-21.68-7-32.57-.59-3-.09-6.21-.09-9.32h1c6.26,22,9.69,44.46,11.58,67.33s.91,45.76-1.06,68.68l3.9-1.92a462.64,462.64,0,0,0,.82-81c-2.08-27.25-11.26-52.47-19.14-78.24a42.85,42.85,0,0,1,5.42,10c3.2,8.14,6.74,16.18,9.23,24.54,3.53,11.86,5.48,24,6.95,36.42,1.76,14.89,1.61,29.71,1.78,44.58,0,2.68-.61,5.37-.72,8.06-.26,6.19-.29,12.38-.59,18.56-.25,5.31-.74,10.6-1.13,15.9l1.13.14c.5-2.73,1-5.46,1.52-8.18,1-5.17,2.5-10.29,3-15.51,1-10,1.72-20.06,2-30.11.22-9,.6-18.17-.77-27a282.23,282.23,0,0,0-8.51-38.13c-3.44-11.46-8.63-22.39-13-33.58-1.55-4-2.86-8.07-4.28-12.1l1.57-.9c1.14,1.44,2.71,2.7,3.34,4.34,5.52,14.25,11.34,28.42,16.15,42.91,5.85,17.61,9.49,35.71,8.91,54.44-.18,6.1,0,12.22-.48,18.3-.58,8.09-1.26,16.2-2.52,24.2-1.21,7.71-3.21,15.3-4.87,22.94a79.73,79.73,0,0,0,4.52-7.46c3.76-6.46,7.75-12.79,11.31-19.36,1.47-2.71,1.65-6.11,3.14-8.8,5.11-9.23,10.54-18.27,15.83-27.39q6.07-10.46,12.1-20.95l1.24.67C474,512.75,465.67,524,460.1,536.68c5.3,2,4.4-4.73,8.27-5.25-.53,2-1,3.75-1.47,5.58l12.73,3,6.23-8.87.78.59q-1.71,3.62-3.4,7.25c-1.85,4-1.07,5.75,3.25,5.83,5.46.12,7.91,3.38,9.79,7.75a31.13,31.13,0,0,0,2.4,3.89l17.5-20.5a5.92,5.92,0,0,1-1,3.57c-2.93,4.18-5.84,8.37-8.95,12.41-3.41,4.43-3.58,5.82-.19,11.41l12.16-12.74.84.77c-4.26,5.7-8.53,11.4-13,17.43,3.53.67,6.58,1.53,9.3-1.1q14.54-14,29.1-28c2.87-2.73,6-5.24,9-7.85l1,1c-1.26,1.34-2.56,2.64-3.76,4-7.89,9.06-15.93,17.91-25.27,25.61-4.42,3.64-10.24,6.87-10.35,14.09,0,1.13-1.51,2.24-2.33,3.35,5.83,6.77,5.83,6.77,4.14,12.5,1.4,1,3.5,1.73,3.7,2.81.28,1.51-.86,3.28-1.45,5.11l6.72,2.52c6.79-3.67,11.24-10.87,18.57-14.16-6.42,7.9-13.09,15.46-22.24,21.21,4.61,1.56,6,3.43,4.15,4.91-3.75,3.06-.74,6,.73,7.28,3.34,2.88,2.29,4.61,0,6.43l4.88,4.12c3.64-.78,6.56-4.52,11.18-2.52ZM331.23,990.21v1c1.34,1,2.67,2,4,2.94,11.89,8.52,23.94,16.83,35.63,25.62,8.41,6.33,16.9,11.47,28.12,8.3-.26-1.12-1-2.55-.77-3.84s1.07-3.34,2-3.56a36,36,0,0,1,8.68-.78c4.39,0,5.08-.67,5.35-5.13.12-2,.53-4.76,1.86-5.7,3.44-2.44,7.69-3.73,11.19-6.1,4.26-2.89,8.93-2.34,14.53-2.8-2.72-5.22-5.26-10.12-7.8-15,5.33,5,8.44,11.14,10.85,17.77.48,1.34,1.58,3.38,2.53,3.45,4.94.41,9.92.83,14.41-2.4,3.65-2.64,7.67-4.67,12.51-4.06a46,46,0,0,1,20.56,8.06,30.24,30.24,0,0,0,14.33,5.53c-3.62-10.63-9.63-19.28-15.41-28l1-.58c5.4,8.11,10.79,16.22,15.85,23.81a49.59,49.59,0,0,1,5.87-4.68,68.31,68.31,0,0,1,7.77-3.35c-4.48-14.18-15.88-24.74-19-39.31l16.61,29.58,10.75-7.5a17,17,0,0,0-1.13-3c-2-3.23-.57-5.62,1.75-7.86,2.48-2.4,4.72-5.1,7.46-7.16a29,29,0,0,1,8.85-4.89c5.53-1.62,11.31-2.39,17-3.62,3.19-.7,7-4.24,6.86-6.2-.25-4.51.6-5.47,5.23-5.39,4.39.08,8.77.5,13.15.55s9-.19,13.51-.29c5.39-.12,10.8-.06,16.17-.45,1.11-.08,2.69-1.65,3-2.83a13.69,13.69,0,0,0,.39-6.53c-1.49-6.42-3.33-12.76-5.19-19.08-.79-2.69-2-5.27-3-7.89l.86-.32c2.78,6.41,5.55,12.82,7.87,18.16l17.7-3.75c-7.55-13.57-16.68-26.6-22.25-41.59a34.9,34.9,0,0,1,6.24,7.85c4.91,8.38,9.61,16.88,14.5,25.26a3.79,3.79,0,0,0,2.61,1.79c4,0,10-5.89,9.26-9.79-1.11-5.75.44-11.07,1.34-16.49.68-4.11.27-9.65,6.16-10.38,9.66-1.2,18.56-6.13,28.89-4.52,7.59,1.17,13.12-3.82,13.33-11.35.15-5,2.68-7.08,6.4-8.88,3.09-1.51,6.19-3,9.73-4.7-2.75-3.32-1.07-5.28,1.29-7.22a5.43,5.43,0,0,0,1.58-2.88c2.07-9.19,8.17-14.85,16.49-18.16,6.25-2.48,12.85-4.09,19.18-6.39,1.72-.63,3.92-2.16,4.34-3.69.69-2.56.22-5.5-3.15-6.84,1.9-3.72.63-6.78-2.22-9s-5.95-3.52-8.88-5.33q-6.22-3.85-12.35-7.87c-2.71-1.76-5.24-3.86-8.09-5.37-1.84-1-3.68-.85-4.1,2.17a5.09,5.09,0,0,1-2.7,3.22,107.45,107.45,0,0,1-10.24,3.67c-7.93,2.57-10.41,6.57-9.26,14.91a6,6,0,0,1-.38,3.38c-3,5.64-7,10.33-13.26,12.34a102.93,102.93,0,0,1-10.57,2.55c-3.95.79-4.31,1.41-2.44,5.12,2.44,4.84,1.58,6.93-3.64,8.81l-5.86,2.13a43.89,43.89,0,0,1,3.58,5.75c.42,1,.35,2.78-.29,3.39a21.71,21.71,0,0,1-6.25,4.54,34.45,34.45,0,0,1-24.74,1.05c-9.86-3.28-17.87-9.58-26.16-15.59-7-5.08-10.22-11.82-11.68-19.83-1.06-5.85-2.16-11.71-2.82-17.62a80.15,80.15,0,0,0-9.19-29.49c-3.82-7-7.35-14.53-12.58-20.43-8.55-9.62-18.25-18.25-27.72-27-6.39-5.93-13.2-11.42-19.87-17-11.63-9.81-24.26-17.68-39.5-20.65a55.36,55.36,0,0,1-9.46-3.1c-5-2-7.49-1.68-11,2,4,1,8.17,1.31,10.52,5.18.23.38,1.21.28,1.84.44a51.86,51.86,0,0,1,5.24,1.41A175,175,0,0,1,522,708c3,2,5.86,4.3,8.78,6.46l-.44.69-37.51-20.86c-1.19,1.93-1.84,3-2.18,3.54,11.09,8.73,22,17.58,33.19,26.09,11.55,8.79,21.43,19.23,31.41,29.71,11.83,12.43,20.59,26.78,29,41.47,2.38,4.16,4.23,8.63,6.32,13l-.94.64a19.15,19.15,0,0,1-2.57-2.86c-4.27-7.24-8.36-14.58-12.66-21.79-3-5-5.71-10.25-9.42-14.64-7.14-8.44-14.64-16.6-22.46-24.4-9-9-18.41-17.64-27.92-26.12-4.79-4.27-10.17-7.9-15.38-11.69-3.05-2.22-6.27-4.2-9.42-6.29L488.59,702c1.05,1.67,1.86,3.59,3.22,5,1.9,1.9,4.36,3.23,6.33,5.06,5,4.65,10,9.34,14.85,14.2,7.65,7.7,15.27,15.44,22.65,23.39a194.35,194.35,0,0,1,14.76,17.33c6.25,8.55,11.94,17.5,17.73,26.37s12,17.36,16.82,26.63c6.59,12.61,12.14,25.77,17.95,38.77,1.2,2.67,1.6,5.7,2.37,8.57l-1.37.41c-.39-.95-.76-1.91-1.16-2.86-3.77-8.95-7.08-18.14-11.46-26.79-5-9.91-10.75-19.5-16.63-28.93-7.42-11.92-15.23-23.6-23-35.28-8.88-13.28-20.31-24.4-31.12-36-7.35-7.9-14.95-15.57-22.65-23.14-2.58-2.53-5.81-4.4-8.74-6.57l-.78.41c2.31,3.38-.64,6.19-.6,9,.07,4.5-2.28,4.71-5.47,4.75v5.14l-11.33,1.94c0,3.28.89,6.37-.26,8.13s-4.32,1.82-6.75,2.69c-.34,1.53-.17,4.47-1.27,5.07-5.36,2.94-11,5.27-16.66,7.73-.48.21-1.33-.48-1.86-.31-1.64.53-3.65.87-4.7,2-3.32,3.64-6.17,4.68-11.51,3,1,4.21,1.6,8.15,2.88,11.86A107.52,107.52,0,0,0,437,784.26c2.09,3.94,5,7.44,7.67,11.08,5.59,7.71,9.58,16.58,16.95,23a73.17,73.17,0,0,1,9,9.59c7.44,9.4,15.31,18.33,24.7,25.88a40.67,40.67,0,0,1,7,7.65c4.09,5.55,7.85,11.35,11.82,17,4.18,5.92,9.23,11.6,4.15,19.49-.25.38-.11,1-.1,1.53.06,4.32-1.9,7.81-5.69,9.4s-4,4.65-4.33,7.73c-.17,1.57.67,3.23.89,4.88.62,4.61-.16,5.4-4.77,6.7-3.69,1-7.35,2.23-8.21,7-.69,3.89-2.89,6.78-7.15,7.71a24.46,24.46,0,0,0-5,2c-2.77,1.31-5.4,2.43-4.89,6.61a6.82,6.82,0,0,1-2.73,5.51c-2.76,1.6-4.77,4-7.4,5.74-3.8,2.51-7.28,3.89-11.83,2.84a6.46,6.46,0,0,0-4.81,1.22c-2.49,2-4.36,4.71-6.84,6.69-3.83,3-8.23,3.76-12.59,1.17-2.07-1.23-3.15-.8-4.42,1a65,65,0,0,1-4.9,6c-3,3.25-4.93,3.5-9,1.82a4.78,4.78,0,0,0-3.19.33c-3.89,1.56-7.71,3.29-11.56,4.92-3.2,1.36-4.9-.19-5.76-3.13-.46-1.53-.79-3.1-1.09-4.32-1.52,1-2.75,1.64-3.86,2.49s-2.27,2.1-3.49,3c-4.06,3.11-5.2,2.94-8.82-1.66-2,1.54-4,3-5.88,4.65-4.45,3.87-8.46,3.41-10.62-2.09-1.58-4-3.62-3.08-5.85-1.57-5.5,3.74-11.65,3.48-17.82,3.47A49.77,49.77,0,0,0,331.23,990.21ZM473.57,321.48c2.36-.21,4.22-.1,5.91-.58,5-1.38,9.73-.75,14.51.83,2.33.77,4.77,1.21,7.15,1.81,6.5,1.64,13.18,2.81,19.42,5.16,2.67,1,4.64,4.31,6.46,6.9.56.8-.46,2.68-.68,4.07a3.83,3.83,0,0,0,.18,1.41,16.31,16.31,0,0,0,5,8.93c7.06,6.23,12.41,13.42,13,23.38.09,1.44,1.94,3.21,3.42,4.06,4.25,2.44,8.83,1.3,13.3.45,6.4-1.21,12.53-1.12,18.56,2,2.73,1.43,4.15,3.05,3.77,6-1,7.77-1.63,15.65-3.34,23.27-2,8.71-.9,16.95,1.66,25.23,1.41,4.57,3.74,7.75,9.2,7.09.81-.1,1.7.54,2.56.82,7.13,2.36,14.23,4.79,21.41,7a3.94,3.94,0,0,0,3.5-.93c8.54-12.31,18.11-24,24.26-37.83,4.93-11.11,12.17-21.14,15.48-33,.22-.78,1.4-1.3,2.13-1.93l.94.64c-.89,3-1.44,6.23-2.75,9.08-3,6.58-6.76,12.84-9.58,19.5-6.69,15.79-17,29.33-26.45,43.4-.68,1-.77,2.39-1.14,3.6,1.48-.36,3.46-.26,4.32-1.19,2-2.16,3.45-4.83,5.14-7.28,5.6-8.11,11.66-15.93,16.68-24.38a313.91,313.91,0,0,0,16-30.62c3.24-7.13,4.89-15,7.44-22.43a77.94,77.94,0,0,1,3.71-7.92l1.16.46a5.5,5.5,0,0,1,.11,1.79c-1.61,5.87-3.11,11.77-5,17.56a156.59,156.59,0,0,1-16.4,35.6c-5.88,9.32-12.32,18.28-18.46,27.44-2.42,3.61-4.69,7.33-7.31,11.44,3.55-.22,6.58,1.08,9-2.28,7.91-11.21,16.54-21.95,24-33.47,5.36-8.35,9.33-17.61,13.71-26.56,1.7-3.48,2.48-7.43,4.33-10.81a44.09,44.09,0,0,0,4.73-14.28,18.25,18.25,0,0,1,4.76-10c.35,1.32.74,1.95.63,2.46-1,4.68-1.8,9.48-3.38,14C684.06,378.69,681,385.85,678,393a76.93,76.93,0,0,1-4.82,10.12c-5.08,8.4-10.21,16.79-15.7,24.93-5.19,7.71-10.88,15.09-16.33,22.63a15.2,15.2,0,0,0-1.06,2.06c4.3,2.19,8.77,3.78,12.42,6.48a38.15,38.15,0,0,0,14.81,6.39c10.34,2.33,17,8.81,20.2,18.81.34,1.05-.52,2.57-1,3.78-1,2.22-2.1,4.37-3.17,6.55l.89,1.06c6.69-.57,13.38-1.19,20.08-1.68,3.12-.23,4.64-1.8,5.63-4.77,2.35-7.11,5.32-14,7.61-21.14A104.24,104.24,0,0,0,722,450.63c1.29-9.34,1.62-18.81,2.58-28.19.67-6.52-.68-12.73-1.63-20.09-1.8,1.46-2.78,2.19-3.69,3-5.6,5-11.15,10.1-16.8,15.06a14,14,0,0,1-3.36,1.63l-.61-.93c.76-.8,1.48-1.65,2.29-2.4,5.51-5.13,11.17-10.1,16.51-15.4,3.49-3.48,6.66-7.24,4.77-13-.86-2.65-.52-5.68-1.14-8.45-2.09-9.42-.18-19.74-6.3-28.28a8,8,0,0,1-.79-2.6,77.53,77.53,0,0,0-19.73-34.56c-4.22-4.37-8.47-8.72-12.9-12.88-1.12-1.06-2.92-1.48-4.49-2-5.41-1.6-10.86-3.06-16.29-4.62-2.6-.75-5.14-1.76-7.78-2.28a3.27,3.27,0,0,0-2.74,1.41c-3.24,6.78-6.28,13.65-9.41,20.48-3.45,7.53-6.82,15.1-10.46,22.54-2.74,5.59-5.85,11-8.84,16.45-.31.57-.95.95-1.75,1.71-1.23-3.58.7-5.9,2-8.26,2.76-5.13,6.09-10,8.53-15.25C635.85,321,641.44,308,647.11,295c2.85-6.51,2.34-8.39-3.22-13-.7-.59-1.4-1.18-2.14-1.71-3.21-2.29-8.64-.44-10.07,3.29-4,10.5-7.5,21.26-14,30.6-.74,1-2,1.69-3.1,2.52l-1.28-1.15c8.28-10.34,12.19-22.55,16.13-35l-7.26-1.87a26.48,26.48,0,0,0-2.53,4.49c-2.51,7.47-4.8,15-7.36,22.49-.34,1-1.71,1.65-2.6,2.47-.07-1.13-.47-2.38-.14-3.38,1-3.06,2.57-6,3.43-9.05,1.85-6.73,3.5-13.53,5-20.35a7.82,7.82,0,0,0-.71-4.66c-1.43-3-4.41-3.16-7.33-3.4-2.65-.22-5.54-.26-7.83-1.37-2.06-1-3.2-1.05-4.68.54-2.25,2.43-4.8,2.41-7.81,1.19-6-2.42-12-4.73-18.13-6.7-5.59-1.79-13.89,1.48-17,6.31a6.53,6.53,0,0,0-.78,2.18Q548.6,292.2,543.56,315c-1.6,7.22-3.15,14.46-4.95,21.63-.24,1-1.77,1.67-2.71,2.48-.17-1.14-.69-2.36-.44-3.4.81-3.39,2-6.68,2.84-10.08q5.64-24.47,11.11-49c.58-2.61.93-5.26,1.28-7.28-4.42-2.19-8.33-4.09-12.21-6-2.36-1.19-3.91-.72-4.77,1.91-.8,2.46-1.93,4.82-2.67,7.3-1.78,6-3.42,12.08-5.12,18.13a12,12,0,0,1,0-5.29c1.14-5.59,2.2-11.21,3.69-16.71.75-2.74-.07-3.82-2.54-4.47-3.25-.86-6.44-1.94-9.7-2.77a4,4,0,0,0-2.56.38c-3.35,1.67-6.53,3.77-10,5.12-2.86,1.11-6.07,3.62-9.15,1.07-6.19-5.14-12.29-4.25-18.76-.75-2.41,1.3-3.1,2.69-3,5.5.46,9,.61,18.09.57,27.13C474.43,306.82,473.91,313.79,473.57,321.48ZM752.75,633.13c.07.35.15.71.22,1.06-.63.36-1.24,1-1.88,1-4.51.18-7.34,2.29-7.37,6.93,0,1.93.46,4.5,1.73,5.67a66,66,0,0,0,9.53,6.66c4.21,2.67,5.55,7.76,2.28,11.77-3,3.64-3,6.66-.51,10.48a7.59,7.59,0,0,1-.13,9.18,13.08,13.08,0,0,0-2.21,10.65c1.3,5.71,2.9,11.87-2.56,16.67a20.19,20.19,0,0,1-4.54,3.25c-2.46,1.14-5.3,1.54-7.63,2.86-1.63.93-2.69,2.88-4,4.37,1.26.88,2.53,1.74,3.79,2.63a12.68,12.68,0,0,1,1,.82c-2.91,3.34-5.91,6.54-8.6,10-1.12,1.42-2.67,3.87-2.16,5,2.84,6,.3,9.45-4.64,12.29-.86.51-1.4,1.56-2.25,2.12-2,1.34-1.71,2.81-.22,4.13,2.7,2.38,5.62,4.53,8.3,6.93,1,.89,2.49,2.73,2.19,3.28-2.63,4.81,1.52,5.84,4.08,7.48,7.07,4.53,14.26,8.9,21.45,13.25,1.63,1,3.43,2.37,5.17,2.38,7.12.06,10.56-5.52,13.66-10.58.82-1.35-1.68-5-3-7.34-1-1.79-2.57-3.24-3.85-4.88-3.72-4.8-7.47-9.58-11.1-14.45-1.87-2.5-1.39-5.24.18-7.65.46-.72,1.94-1.06,2.92-1,.38,0,1.18,1.83.92,2.45-1.29,3.1-.21,5.85,1.5,8.07,3.54,4.62,7.45,9,11.34,13.31a3.39,3.39,0,0,0,5.48,0c5.75-6.38,6-14,0-20.42-1.5-1.61-3.58-2.74-4.84-4.49a36.92,36.92,0,0,1-3.91-7.41c-.25-.59.72-1.7,1.12-2.57.83.49,2.29.87,2.39,1.47,1,6.14,6.21,9.08,9.85,13.17a4,4,0,0,0,3.82.45c4.86-3,5.55-7.84,2.06-12.27-.72-.91-1.49-1.8-2.18-2.74-2.5-3.35-2.81-12.59-.64-16.06,2.53-4,5.12-8,7.42-12.2,2.44-4.42,4.75-8.93,6.8-13.54,2.69-6.07,4.86-12.37,7.64-18.4,2.41-5.23,1.86-8.82-2.34-12.58a114.94,114.94,0,0,1-8.15-8.22c-3.24-3.54-3.2-5.49-.07-9.29.91-1.1,2.16-2,2.87-3.17a18.67,18.67,0,0,0,2.14-5.07c1-4.15,1.14-8.57,2.64-12.49,1.34-3.5,1.4-6.23-1.09-8.94a7.63,7.63,0,0,1-1.87-8.1c1.28-4.32.32-5.38-4-6.59a11.28,11.28,0,0,1-3.23-1.3c-2.53-1.73-4.75-2.58-7,.52-.45.61-2.29.19-3.48.25.07-.93-.22-2.17.27-2.75,4.29-5.09,6.57-11.8,12.53-15.57a7.36,7.36,0,0,0,2.73-3.22,7.88,7.88,0,0,0,.36-4.43c-.15-.65-2.16-1.64-2.7-1.34-4,2.22-7.93,4.72-12.18,7.33l4.39,2.66c-14.55,7.94-29.63,12.67-44.39,18,1.55,5.16,2,5.47,6.55,4.57,5.6-1.11,11.17-2.4,16.8-3.32,2.46-.4,5-.06,7.58-.06,0,.5.07,1,.1,1.5-1.3.35-2.59.74-3.91,1-6.87,1.43-13.72,2.94-20.61,4.19-3.51.63-5.18,2.48-5.31,6.31,5.8.08,11.24-3.33,17.13-1.8a15.79,15.79,0,0,1-5.22,2.44c-4.66,1.15-9.4,2-14,3.27-1.7.47-3.16,1.79-4.73,2.72l.59,1.19L757,622.83c.11.44.21.88.32,1.31a15.84,15.84,0,0,1-2.5,1.19c-2.75.79-5.49,1.62-8.3,2.15-3.52.67-4.78,2.59-4,6.45Zm-586.09-134,.71-.87c-5.45-5.76-10.8-11.64-16.41-17.25-3.44-3.45-7.27-6.51-10.93-9.75-8.8-7.78-17.49-15.68-26.5-23.21-1.44-1.21-4.29-.93-6.48-.91-.42,0-1.3,2.07-1.17,3.08.89,7.08.76,7.7-5.48,11.15-2.47,1.37-4.05,2.84-2.82,5.75,1.49,3.54-.65,4.59-3.41,5.26-1.38.34-2.8.53-4.17.9-1.87.49-3,1.18-2.82,3.72a44.53,44.53,0,0,1-1.06,10.31c-.75,4.11.46,6.27,4.19,8.07,8.51,4.12,16.91,8.46,25.34,12.76,1.47.75,2.83,1.74,4.24,2.62l-.54,1c-4.29-1.75-8.56-3.59-12.89-5.25-8.64-3.31-15.81-9.92-26.1-9.82-4.39,0-6.08,2.46-8.83,4.17-3,1.86-7.21,1.84-8.79,5.8a1.25,1.25,0,0,1-.15.37c-3.21,3.61-2.17,8.4-3.5,12.53-2.59,8-5.37,16-8.11,24.13,2.33,1.3,4.18,2.38,6.08,3.37,4.09,2.12,4.1,2.1,4.46,4.2a92.59,92.59,0,0,1-8.94-3.6c-3.11-1.63-5.79-1.41-8.13,1-1.64,1.68-2.7,5-4.4,5.32-4.13.67-4.37,4.78-6.47,5.75,1.94,4.32,4.2,8.2,5.42,12.38s1.47,8.77,2.13,13.11c5.08,1.32,6.89,2.77,7,5.79l-1.4-.56c-8.13-3.15-8.74-2.91-13.38,4.73-.86,1.42-1.77,3.19-3.12,3.84-4.25,2-2.69,4.9-1.46,7.74a26.82,26.82,0,0,0,2.71,5.11,5.48,5.48,0,0,0,3.14,2.26c8.17,1,16.37,1.81,24.56,2.69,1.83.2,3.65.5,6.18.85-1.25-2.24-2.65-3.73-2.81-5.34A7.83,7.83,0,0,1,64,607.1c3.48-4.32,3.07-8,.4-12.81-2.56-4.65-1.75-10.83,3.45-13.49,3.2-1.65,6.2-3.79,9.54-5,8-3,12.64-12.68,11.62-19.92-1-6.75,1.71-11.35,6.7-15.17,1.07-.82,2.46-1.21,3.55-2,8-5.89,15.47-12.66,24-17.53s15.87-10.91,23.2-17.23c4.45-3.83,8.85-8.75,15.94-6.39C163.89,498,165.26,498.56,166.66,499.09Zm519.75,16.54c2.15,2,4.1,3.65,6,5.42,3.13,3,6.34,5.36,11.08,5.65a12.06,12.06,0,0,1,10.46,6.48c.56,1,2.17,1.73,3.43,2.15,2,.64,4.07.83,6.07,1.37,6,1.61,6.54,2.45,4.66,8.37-.68,2.12-.44,3.24,1.46,4.49a20.72,20.72,0,0,1,8.58,11.19,9.5,9.5,0,0,0,2.46,3.91c3.65,3.4,4,7.43,2.32,11.69-1.23,3.11,0,5.15,2,7.29s4.1,1,6.07.22q13.49-5.49,26.89-11.19c2.11-.9,4-1.7,6.22,1.64L751.31,588.7a8.08,8.08,0,0,0,4.9-.25c14.76-5.59,29.5-11.25,45.39-17.32-4.93-1.77-9-3.28-13.1-4.67-3-1-6-1.7-8.91-2.79-.71-.27-1.05-1.51-1.56-2.3.76-.38,1.57-1.15,2.26-1,2,.28,4,.94,6.05,1.39,1.81.4,4,1.67,5-.94,1-2.37,1.63-4.67-1-7a14.59,14.59,0,0,1-4.44-7c-.9-3.81-.57-7.89-.88-11.84-.49-6.34-6.94-12.85-13.29-13.41-4.78-.42-9.67-.22-14.34-1.16a33.65,33.65,0,0,1-11.83-4.48c-4.49-3-8.35-6.93-12.24-10.72-3.37-3.28-7.22-4.17-11.74-3.85-7.1.51-14.23.62-21.33,1.1-5.88.39-11.75,1.06-17.62,1.61-.17.34-.34.69-.5,1C686.28,507.7,690.06,510.53,686.41,515.63ZM40.8,640.2c-.71,6.26-.4,12.54-2.32,18-2.15,6.2-3.84,12.07-3.13,18.68.3,2.82-.12,5.41,3.44,6.3.52.13.87,1.15,1.21,1.8,1.79,3.38,3.3,6.92,5.35,10.13,5.9,9.24,14.72,15.81,22.2,23.62,3.52,3.68,7.63,6.81,11,9.78a72.44,72.44,0,0,1,6.39-4c5.13-2.47,6-4.09,5.71-9.66-.13-2.74-.25-6.09,1.13-8.17,2.1-3.16.55-4.66-1.24-6.57-5.09-5.42-5.09-5.41-2.1-12.13-3-1.77-6-3.9-9.22-5.25-2.91-1.2-4.36-3-4.71-6-.46-3.78-.49-7.67-1.49-11.3-1.76-6.34-3-12.48.54-18.62a17.73,17.73,0,0,0,1.06-3.38C63,641.54,51.79,639.21,40.8,640.2Zm388.28,65.5,4.06,6.14L429,700c-2.11,3.75-4.73,2.85-7.65,1.64,0,1.34.27,2.45-.06,3.33-.48,1.29-1.2,3.13-2.18,3.4s-3.17-.94-3.43-1.88c-.77-2.78-1.59-5.91-1-8.62,1.09-5.27,3.24-5.76,7.79-2.6,1.4,1,2.84,1.87,4.75,3.12-2-5.32-1-6.66,4.06-6.43a32.75,32.75,0,0,1,6.06.92c2.28.53,4.51,1.32,7,2.07-.82-4.86-4.27-6-7.82-7.32-.9,3.24-2.32,2.95-4.85,1.58-5.11-2.78-10.53-5-15.86-7.4a22.64,22.64,0,0,0-8-1.95l-.19,1.33c1.13.47,2.27.93,3.4,1.42,4.18,1.82,8.43,3.52,12.5,5.55,1.29.64,3.51,1.92,1.68,3.8-.76.78-3,.71-4.25.23a12.07,12.07,0,0,1-4.36-3.16c-3.42-3.73-8.74-3.54-12.58-6.34-.18-.13-.68.2-2.3.75,2.35,1.34,3.93,2.2,5.47,3.13,1.29.78,3.12,1.35,3.69,2.51,1.09,2.2,1.46,4.77,2.22,7.54-6,4.55-5.82-3.67-9.44-5.13l2.15,9.86,5.38-2.4c.36,2.13,1.36,4.4.92,6.35-.56,2.53-.75,4.59.6,6.92s2,4.74,3.16,7a9.82,9.82,0,0,0,2.15,2.17,8.31,8.31,0,0,0-.34-3.83c-.6-2.53.69-4,3-4.63,2.85-.83,2.16,1.53,2.67,2.94a48.92,48.92,0,0,0,2.36,4.83,43.89,43.89,0,0,0,.94-5.79c0-1.73-.56-3.49-.39-5.19C426.24,708.8,427.36,708,429.08,705.7ZM402.4,717.64c3.38,4,3.08,9.3-.26,12.31l26.71,41.12a40.18,40.18,0,0,0-2-6.53c-1.39-3.59-3.56-7-4.19-10.71-.95-5.64-1.63-11.2-5.69-15.94l2.85-1.25L413.74,722l-1,.34c.65,2.14,1.37,4.26,1.92,6.42.47,1.79.83,3.49-1.71,4.37-2.73,1-3.64-.7-4.23-2.6-1.06-3.42-1.48-6.85,1.17-8.77-.34-4.17-.63-7.75-.95-11.6-5,.76-1.94-4.34-3.58-6.43-2.87,2.66-4.51.27-6.1-1.59-1.87,3.18-1.25,8-6,8.3.43,2.6.86,5.15,1.29,7.71l1,.19a70,70,0,0,1,2.71-8.76c.67-1.51,2.4-2.55,3.65-3.8a19.75,19.75,0,0,1,2.1,3.66,54.83,54.83,0,0,1,1.3,6Zm68.44-399.75c0-4.17,0-8.15,0-12.14,0-2.38-.31-4.76-.34-7.14-.13-9.2-.14-18.4-.34-27.6-.05-2.22-4.22-5.7-6.21-5.31-3.44.68-2.35,3.62-2.33,5.69,0,3.88.7,7.75.79,11.63.24,9.73.16,19.46.48,29.17C463.09,318.91,463.3,318.91,470.84,317.89ZM453.41,670.08c0-3.64,2.48-3.64,5.45-3,1.6.33,3.26.4,5.49.66l-1.88-5.57c-2.46.2-4.59.79-6.52.39-1.45-.3-2.63-1.87-3.92-2.88,1.16-1,2.48-3.08,3.47-2.93,6.34.95,10.57-3.66,15.82-5.48,3.1-1.07,5.89-2.32,5.34-7.17-1.2.1-3.06-.31-4,.43-2.54,2.1-4.64,4.72-7,7a3.88,3.88,0,0,1-2.35,1.06c-3.41.12-6.82.06-10.23,0-.77,0-1.76.13-2.26-.28-.89-.72-2.24-2-2-2.68a4,4,0,0,1,2.69-2.5c2.27-.27,4.63.2,7,.23a5.22,5.22,0,0,0,2.74-.55c2.45-1.6,4.77-3.39,7.13-5.1a16,16,0,0,0-2.15-3.13,2.93,2.93,0,0,0-2.53-.64c-2.57,1.19-4.95,2.81-7.52,4-4,1.86-8.8,2.5-10.41,7.69-.26.81-1.47,1.42-2.35,1.93-2,1.15-4.08,2.18-7,3.72l10,.7-3.7,5.33h7.92l-2.84,5.4Zm-.09-346.54c5.11-1.22,6.87-3.81,6.71-8.35-.29-7.87-.41-15.75-.71-23.62S458.56,276,458.17,268c-5.82,1.26-8.06,4.3-7.66,9.06q1.49,18,2.77,36C453.51,316.42,453.32,319.77,453.32,323.54ZM751.65,683.42a9.5,9.5,0,0,0-5.71-10.26c-3.74-1.48-7.52-2.84-11.28-4.25l-15.42-5.81-.56.82c3.72,4,7.29,8.22,11.24,12,2.35,2.25,5.06,4.66,8,5.56C742.32,682.81,747.07,682.84,751.65,683.42ZM30.94,630.71,30.49,632c2.84,1.39,5.57,3.65,8.55,4,11.82,1.53,23.72,2.47,35.62,3.64-3.44-3.9-6.76-7.36-13.2-6.86-6.2.48-12.54-.78-18.81-1.26C38.74,631.28,34.84,631,30.94,630.71ZM438,605.17c-6-5.06,2.15-7.1,3.29-10.84-4.63-1-6.2,3.25-7.08,5.54-1.54,4-3.8,4-7.12,3.24-.47,5.59-1.4,10.79-8.2,12.28,2.16,4.4-1.86,5.63-4.28,8l2.64,1.13c1.48-6.16,7.22-3.53,10.38-5.07.65-1.93.76-4.38,1.73-4.8,3.53-1.51,1.79-3.11-.14-5.34Zm-39.2,379.41c6.76-.88,6.91-1.07,5.58-8a8.77,8.77,0,0,0-.11-1.16q-4.51-13.63-9.06-27.28l-.86.3Q396.6,966.53,398.83,984.58ZM318.7,675l.87.47c1.9-.65,3.85-1.17,5.69-2,2.67-1.15,5.82-1.93,7.76-3.87,3.42-3.44,7.14-4.16,11.54-3.39,1.49.26,3,.45,4.74.71L347,659.39c-4,1.94-6.68-.61-9.49-2.6-1.17-.84-2.29-1.73-3.5-2.65-1,1.67-1.59,2.63-2.19,3.64l6.86,2,.43,1-9.15,6.55c1.71,1.62-.34,2.27-1.84,2.88-2,.82-4.26,1.18-6.24,2.09C320.64,672.89,319.74,674.12,318.7,675Zm38.56-36.88c4.28,4.51,8.08,8.51,12,12.65,1.61-1.38,3.8-2.61,3.63-3.23a57.66,57.66,0,0,0-3.27-8.08c3.06-1.18,0-3.56-.63-4.32a5.29,5.29,0,0,0-4.67-1.4C361.9,634.66,359.8,636.52,357.26,638.16ZM65.89,624.1c.94-3.61-1.53-3.31-3.24-3.53-7.28-.91-14.57-1.75-21.86-2.57a22.51,22.51,0,0,0-5.76-.36c-1.75.26-3.39,1.33-5.08,2L30.3,621Zm1.57,4.45-.13-.89-42.11-3.89L24.6,625c.91.68,1.76,1.87,2.73,2,4.71.51,9.46.75,14.19,1.06,8.09.53,16.17,1.07,24.26,1.52C66.32,629.53,66.9,628.88,67.46,628.55ZM326.26,636l-2.16,2.5,1.15,2.65a6.35,6.35,0,0,1-2.37.57,24.56,24.56,0,0,1-3.61-1.26c-1.54-.54-3.1-1-4.65-1.55l-.24.92c5.45,2.38,10.52,6,17.14,4.47,1.05-.25,2.38.73,3.58,1.14l-.32,1.14-4.1.91-.06,1,13.86,2.09.92-.82c-.7-.89-1.22-2.16-2.13-2.58-3.75-1.74-7.63-3.18-11.43-4.83a30.39,30.39,0,0,1-3.68-2.35l5.66-1.14Zm91-20.7c1.31-6.12,1.22-12.6,8.53-14.94.41-.13.71-.67,1-1.06,2.39-3.27,4.76-6.55,7-9.66l-3.53-1c-2.1,3.13-2,7.64-6.35,9.44-1.37-1.57-2.7-3.11-4.2-4.86-.48,1.05-1.68,2.43-1.37,3.25,1.94,5.24-1.28,9.17-3.12,13.42-1.11,2.55-2.66,4.91-4.39,8Zm30,2.89c-2.23,3.05-4.18,5.71-6.14,8.37l.78.68a41.46,41.46,0,0,1,3.33-3.78,43.49,43.49,0,0,1,4.18-3c-.3,3,5.29,4.88,1.22,7.95-2.38,1.81-4.69,3.71-7.43,5.88,5.65,3.59,10.69,1,15.7-1.13.64-.27,1-1.22,1.49-1.85l-.81-.6a15.32,15.32,0,0,1-3.27,2.38c-1,.41-2.38.14-3.58.17,0-1.11-.29-2.41.18-3.28a60.67,60.67,0,0,1,3.91-5.74c-1.05-.48-2.85-.86-2.9-1.41C453.52,618.54,449.57,619.91,447.29,618.18Zm-53.08,61.1.65-1.12-15.05-14c.71,4.79,1.45,9.78,2.22,14.92l8.09,1.83-4.29-7.1C390,674.13,390.38,679.43,394.21,679.28ZM383,685l-.16.9,7.33,2.24c1.19-.3,3.38-1.33,3.8-.85a6.24,6.24,0,0,1,1.22,4.42,69.78,69.78,0,0,1-1.94,8.37c2.91-1.42,5.17-2.79,6.82-6.55,2-4.43-3.72-6.06-1.57-9.4Zm.52-80.91,4.15-7.93.88.44v4.21c4.92-4,5.1-8.91,3.47-14.17h-4.59c.17,1.77.31,3.14.46,4.72l-5.75,2.72C382.61,597.37,383.06,600.61,383.54,604.13Zm4.75,58.41-.92,1.12c3.17,4,6.54,7.86,9.46,12,1.54,2.22,2.72,2.3,4.36.84l-1.29-4.33,1-.53,3.62,3.11,1.74-2.32Zm-17-3.27-.29-1-16.68-1.84-1.05,1.06,3.4,8c3-1.12,5.33-1.92,7.62-2.9S368.94,660.38,371.27,659.27Zm68.31,10c-.3-3.29-.47-5.18-.64-7.07-9,2-16.05-.37-18.78-6.59l3.94-1.33c-2.72-2.92-5.05-.34-6.5-.65.32,3.49.62,6.88.91,10.05,5,.24,10,.46,14.93.76a3.2,3.2,0,0,1,1.65.85C436.4,666.4,437.64,667.56,439.58,669.29Zm-29.46-27.72,4.16,7c1.09-.68,2.08-1.3,2.86-1.77l-1.58-4.06c1.46-.33,2.91-.73,4.39-1,.88-.14,1.85.15,2.71,0,2.88-.65,6.46-.27,7.34-4.55-7.21,2.36-7.21,2.36-9.84-1.83ZM455,328.6l-.86-.86c-.78,1-2.25,2.06-2.24,3.07.07,5.68.3,11.38.92,17,.23,2.12,1.67,4.11,2.56,6.16l1.09-.46Zm-66.16,328c-.17.45-.33.91-.5,1.36,2.35,1.07,5.42,3.63,6.9,2.92,3.54-1.71,3.6-.32,3.73,2.33a2,2,0,0,0,.88,1.5c2.51,1.29,5.05,2.54,7.66,3.64,2.26,1,3.11,0,2.67-2.33A17,17,0,0,1,410,664c-3.48-1.25-7.84,1.06-10-3.52l3.77-1.61-.21-.58ZM344,594.39l.64-.52,4.36,4.76.7-.47-1.87-5.5c-4.16.83-4.37-2.24-4.68-5.31l-3.87.19c.43,2.77.83,5.38,1.23,8,.19,1.24.36,2.48.53,3.72-1.24-.58-2.5-1.14-3.72-1.76a5.76,5.76,0,0,1-1-.86l-.74.71,7.07,7.94,1-.47c-1.18-2.67-2.13-5.29,1.49-6.51Zm22.68,58.17-12.9-11.26c-1.17,2.66-1.88,4.26-2.58,5.83l2.73,2.29-1.79,2.29Zm-52.94-1.63,1.79,5.4-3.27,1c2.16,1,4.16,2.82,5.44,2.41,3.55-1.15,6.8-3.22,10.16-4.93-.07-.56-.15-1.13-.23-1.69Zm25,28L351.5,672l-.16-1c-4.33.93-8.69,1.72-13,2.83-5.3,1.38-10.83,2.47-14.19,7.85l2.56,2.06c.65-3.55,3.41-6.64,6.48-6.76C334.72,676.94,336.26,678,338.66,678.92ZM390,647c.19-1.94-1.38-5.42,3.18-3.13.65.32,3.19-1.55,3.7-2.85,1.06-2.76-.35-3.73-4.77-3.64v-2.5l-.92-.24-6.5,14.51a12.3,12.3,0,0,0,1.89-.47C387.71,648.14,388.85,647.54,390,647ZM342.81,817.42c2.67-14.17,5.61-29.73,8.54-45.29l-.89-.16C347.19,787.47,341.79,802.58,342.81,817.42Zm58.79-167.3c-5.39.55-10.17-1.21-13.42,3l11.54,1.47c1.46-2.71,2.81-5.19,4.25-7.87-1.74-3.67-1.74-3.67-6.38-.08Zm-14.1-33.87c.41,4.67-.25,6.75-2.26,8.08l-5.65-9.3-.68.43v10.09a55.42,55.42,0,0,0,7.63-.1,6.55,6.55,0,0,0,3.76-2.23C392.92,620,389.67,618.68,387.5,616.25Zm39.73,6c-7.38,2.38-13.34,7.15-19.53,11.43-1,.69-.83,3.07-1.11,4.28,3.54-2.56,6.83-4.71,9.85-7.17C420,628,425.76,628.08,427.23,622.29ZM430,645.6c6.36,4.18,10.69-1.39,15.65-.93-.12-1.64-.22-3-.38-5.07Zm-34.35-32.11c-1.52-.27-3.09-.08-3.67-.75-2.57-3-5.36-5.33-9.84-5.56.74,7.28,9.12,5.85,11.2,11.19l.89-.32Zm-97,20.42c3.25,1.31,6.51,2.78,9.9,3.87.75.25,1.93-.82,2.92-1.28-.7-1.13-1.14-2.72-2.16-3.3a10.92,10.92,0,0,0-5.51-1.6C302.16,631.68,300.57,633,298.65,633.91Zm149.27-303-.89-1c-1.19.87-2.95,1.49-3.47,2.65-1.18,2.64,1.11,7,4.89,9.67C448.26,338.25,448.09,334.59,447.92,330.94ZM767.46,592.11l-.42-1.3-19.83,5.82.5,1.65C754.67,597.51,761,594.67,767.46,592.11ZM147,560.2l-1.45,1.55,19.29,16.89.87-.95Zm230.38,53.27c.12-.46.24-.93.37-1.39l-6.86-3.18-1.28.9q.87,5.43,1.72,10.87l.9.08C372.86,617.52,372,613.21,377.38,613.47Zm24.3,5c-.77,3.41-1.37,6.75-2.29,10-.84,3,.37,4.21,3.26,4.74l2.38-6.87C398.49,626.05,404.59,620.44,401.68,618.5Zm39.69-9a10.34,10.34,0,0,1-6.37,8.1c-.82.26-1.39,1.32-2.07,2,1,.2,2.31.91,3,.52a55.83,55.83,0,0,0,6.2-4.46C445.07,613.36,445,612.15,441.37,609.51ZM299.88,649.07l.49-.94-19.08-10.39-.67,1.25C287.12,642.19,292.18,648.1,299.88,649.07Zm42.84,47.08,4.59,2.72v-7.64c-2.7.47-2.8-2.89-5.06-3.85C342.43,690.69,342.57,693.46,342.72,696.15Zm96.51-68.84c-2.88-1.38-5.93-4-6.46,1.41.1,1.7.21,3.39.35,5.79Zm-62.91,41.34-1,.08c-3.46,6.45-3.46,6.45,2.14,8.78C377.06,674.45,376.69,671.55,376.32,668.65Zm-36.8,14.11,2,2.49c3.26-2.75,4.09-2.6,5.55.85l3-2.23C346.18,682.06,343.21,678.36,339.52,682.76Zm-20.78-11.09,8.83-4.85-12.33.61-.09,1.27C316.8,669.18,320,667.71,318.74,671.67Zm48.36,0,5.37-7.32-.78-.7-6,2.87C366.16,668.22,366.54,669.6,367.1,671.67ZM436,656.4c-6.12-2.39-7-2.22-9.76,2.17Zm-79.15-38.34-2.22-5.36c-1.3,1.8-2.6,3.6-4.15,5.77Z" transform="translate(-21.36 -160.89)"/><path d="M194.68,162.63c2.58-3.06,4.47-1.66,6.23.9C197.89,166.69,197.89,166.69,194.68,162.63Z" transform="translate(-21.36 -160.89)"/><path d="M457.61,926.19c-6.82-8.32-14.18-16.25-20.31-25.05-7.31-10.5-13.89-21.56-20.22-32.7-8-14-16-28.08-22.88-42.67a296.17,296.17,0,0,1-18.67-50c-2.22-8.38-4.94-16.62-7.35-24.95a16.3,16.3,0,0,1-.21-3.65l1-.15a12.85,12.85,0,0,1,.92,1.86c5.09,15.88,10,31.83,15.29,47.64,2.16,6.44,5.07,12.64,7.85,18.86,4,8.83,7.85,17.7,12.22,26.33,3.38,6.67,7.39,13,11.21,19.46,7.65,12.87,15.1,25.87,23.17,38.47,3.52,5.49,8.39,10.12,12.64,15.14,1.84,2.17,3.78,4.26,5.46,6.55a16.39,16.39,0,0,1,1.53,3.83Z" transform="translate(-21.36 -160.89)"/><path d="M395.57,844.3c-3.63-8.09-7.38-16.13-10.86-24.29-4.51-10.55-8.82-21.19-13.16-31.81a88.81,88.81,0,0,1-3-8.38,13.38,13.38,0,0,1-.06-3.64l1.21-.26c.94,2.17,1.9,4.33,2.81,6.52,6.76,16.22,13.43,32.48,20.3,48.65,3,7.1,6.11,14.2,9.72,21,5.93,11.14,12.32,22,18.49,33,2.46,4.39,4.7,8.93,7.35,13.22,2.49,4,5.38,7.82,8.11,11.71.45.63,1.21,1.15,1.38,1.83a35.41,35.41,0,0,1,.59,4.36,17.42,17.42,0,0,1-3-2.63c-4-5.64-8.06-11.26-11.78-17.08-2.86-4.46-5.27-9.2-7.86-13.83q-6.81-12.16-13.58-24.35c-1.42-2.53-2.82-5.07-4.23-7.61Z" transform="translate(-21.36 -160.89)"/><path d="M126.09,778.52a22.28,22.28,0,0,1,4.15-1.68c9.24-1.76,18.62-2.94,27.73-5.19,11.22-2.78,22.23-6.4,33.32-9.7s22-6.59,33-9.84a6.25,6.25,0,0,1,2.22.31c-4.74,5.09-88.61,27.72-99.87,27.14Z" transform="translate(-21.36 -160.89)"/><path d="M138.57,772.1c1.05-.62,1.44-1,1.88-1.08,23.53-3.39,45.06-13.52,67.67-20,.4-.12.93.22,1.56.4a7.09,7.09,0,0,1-.42,1.59,1.56,1.56,0,0,1-.87.68q-33.75,9.79-67.51,19.5C140.44,773.35,139.79,772.71,138.57,772.1Z" transform="translate(-21.36 -160.89)"/><path d="M142.83,760.89c2.46-2.78,55.7-19.44,61.87-18.82-1.39.83-2.68,2-4.19,2.43-9.77,2.81-19.62,5.37-29.39,8.21-8.53,2.48-17,5.22-25.49,7.81A19.82,19.82,0,0,1,142.83,760.89Z" transform="translate(-21.36 -160.89)"/><path d="M147.44,763.46a13.54,13.54,0,0,1,2.7-1.44c7.22-1.95,14.52-3.62,21.68-5.76,7.5-2.23,14.84-5,22.32-7.29a10.31,10.31,0,0,1,4.61.06c.28,2.88-2.38,2.24-3.9,2.68-12.15,3.48-24.34,6.8-36.52,10.17l-10.4,2.86Z" transform="translate(-21.36 -160.89)"/><path d="M395.57,844.3l2.43,6.46c-.25,1.28-.51,2.56-.76,3.84l-1.09.16-16-32,1.47-.85a25.47,25.47,0,0,1,1.75,2.41c3.3,5.82,6.52,11.68,9.85,17.48A15.44,15.44,0,0,0,395.57,844.3Z" transform="translate(-21.36 -160.89)"/><path d="M148.84,753.4l50.25-16.48.63,1.1a14,14,0,0,1-2.95,1.88q-21.15,6.86-42.35,13.55c-1.7.54-3.47.86-5.21,1.29Z" transform="translate(-21.36 -160.89)"/><path d="M193,736.09a18.33,18.33,0,0,1-3.57,2.06c-11.29,3.59-22.61,7.08-33.93,10.57a20.52,20.52,0,0,1-2.93.45l-.36-1.49,40-13.19Z" transform="translate(-21.36 -160.89)"/><path d="M181.07,732.45l7.13-1,.33,1.13-29.27,9.34-.64-.51c.61-.62,1.12-1.53,1.86-1.8,4.81-1.76,9.69-3.35,14.52-5.07a32.92,32.92,0,0,0,3.38-1.65Z" transform="translate(-21.36 -160.89)"/><path d="M181.07,732.45l-2.69.41-9.07.87c2.61-3,9.93-4.93,15.19-3.44Z" transform="translate(-21.36 -160.89)"/><path d="M622.79,744.27c-1.33-1.74-3-3.31-3.91-5.26-3.83-8.68-11.4-14-18-20.09-9-8.22-18.25-16.11-27.89-23.5a48.22,48.22,0,0,0-17.4-8.83c-16.88-4.37-33.6-9.39-49.73-16.15-3-1.25-6-2.4-8.89-3.75a11.26,11.26,0,0,1-2.33-2l.46-.93a28.78,28.78,0,0,1,4.16.91c6.53,2.41,13,5,19.54,7.38,8.77,3.26,17.54,6.52,26.37,9.59,2.39.84,5.07.83,7.53,1.53,9.55,2.7,19,5.8,26.71,12.36,8.53,7.25,16.9,14.67,25.21,22.16A116.93,116.93,0,0,1,617,729.9c2.88,3.52,4.74,7.88,7,11.91.26.47,0,1.21,0,1.82Z" transform="translate(-21.36 -160.89)"/><path d="M624.68,722.22a7.91,7.91,0,0,1-8-3.38,108.92,108.92,0,0,0-21.45-21.28c-5.77-4.25-11.51-8.67-18.63-10.78-8.86-2.61-17.65-5.46-26.37-8.47-5.59-1.93-11-4.38-16.51-6.53-2.29-.89-4.63-1.63-7.83-2.75,3.71-2.55,6.22-.84,8.49,0,9.13,3.48,18.09,7.4,27.26,10.76,4.54,1.66,9.64,1.9,14.06,3.78,9,3.83,18.24,7.56,25.37,14.77,1.62,1.64,3.71,2.83,5.29,4.51,4.58,4.87,9,9.91,13.52,14.83C621.23,719.17,622.77,720.44,624.68,722.22Z" transform="translate(-21.36 -160.89)"/><path d="M663.51,527.79c-21.33,12-42.1,23.77-62.9,35.45a11.62,11.62,0,0,1-3.08.61C600.46,558.54,658.42,526.76,663.51,527.79Z" transform="translate(-21.36 -160.89)"/><path d="M611.93,696.36a47.08,47.08,0,0,1-5.82-4.2,35.39,35.39,0,0,0-18-9.22c-10.26-2.12-19.3-7-28.74-11.08-4.19-1.79-8.47-3.36-12.7-5.05-1-.39-1.91-.87-2.87-1.31.14-.44.27-.88.41-1.32,3.38.68,7,.83,10.11,2.13,10.45,4.34,20.71,9.13,31.07,13.67a44.29,44.29,0,0,0,6.91,2.35,36,36,0,0,1,20.27,13.2Z" transform="translate(-21.36 -160.89)"/><path d="M542.69,683.79a134.43,134.43,0,0,1,50,29l-.76,1.34c-2.44-1.43-4.93-2.78-7.32-4.3-8.47-5.36-16.89-10.79-25.36-16.15-4.86-3.08-9.46-6.69-15.52-7.28-.62-.06-1.14-1.16-1.71-1.78Z" transform="translate(-21.36 -160.89)"/><path d="M656.65,541.78c-3.13,4.61-44.19,25.15-47.29,23.56q22.1-11.67,44.22-23.28C654.43,541.62,655.62,541.86,656.65,541.78Z" transform="translate(-21.36 -160.89)"/><path d="M643.3,525.79c-2.82,5.63-30.68,23-35.76,22.55,1.22-1.16,1.91-2.32,2.89-2.69C622.66,541.15,631,530.11,643.3,525.79Z" transform="translate(-21.36 -160.89)"/><path d="M640.53,554.93a26.14,26.14,0,0,1,3.77.3,3.22,3.22,0,0,1,2,1.33c.19.35-.45,1.6-1,1.83-4.27,1.85-8.59,3.61-12.95,5.24-.62.23-1.55-.35-2.34-.55l-.26-1.09c2-.93,4.07-1.76,6-2.84s3.54-2.36,5.3-3.56Z" transform="translate(-21.36 -160.89)"/><path d="M629.91,525.59a47.15,47.15,0,0,1-4,3.67,54.29,54.29,0,0,1-6.48,4.14c-.86.47-2.09.24-3.15.33.36-1,.44-2.33,1.13-2.82,3.17-2.21,6.5-4.22,9.83-6.2.51-.3,1.35,0,2,0Z" transform="translate(-21.36 -160.89)"/><path d="M623,522.8l-8.53,6.75C614.54,524.63,619,521,623,522.8Z" transform="translate(-21.36 -160.89)"/><path d="M721.8,618.27c-4-3.2-5.37-6.37-3.88-9.06Z" transform="translate(-21.36 -160.89)"/><path d="M365.06,576a5,5,0,0,1,.38-2.25,22.77,22.77,0,0,1,2.85-3.32,17.14,17.14,0,0,1,2.9,3c.78,1.29.92,3,1.62,4.3,1.51,2.86.16,4.7-2.13,6-1.57.91-4.86-1.53-5.37-3.87A30.47,30.47,0,0,1,365.06,576Z" transform="translate(-21.36 -160.89)"/><path d="M384,563.81c4.25,3.69,5,9.09,1.81,12.09-1.57,1.48-2.93,1.3-3.34-.83C381.77,571.29,380.85,567.4,384,563.81Z" transform="translate(-21.36 -160.89)"/><path d="M193.45,368.14c.94.08,2.43-.19,2.75.3a58.88,58.88,0,0,1,5.06,9.64c-3.47-2.69-6.77-5.46-7.68-10.07Z" transform="translate(-21.36 -160.89)"/><path d="M491.51,841.87c1.59,1,3.44,1.83,4.73,3.17a174.6,174.6,0,0,1,18.64,23.62c7.22,10.65,15.07,20.9,23,31.05,9,11.52,19.48,21.61,30.62,31.06a32.92,32.92,0,0,1,6.84,8.47c-2.21-1.3-4.67-2.3-6.56-4-6.8-5.9-13.9-11.58-20-18.16-10.2-11-20.58-22-28.74-34.73-4.56-7.12-8.85-14.46-13.87-21.25-4.33-5.86-9.52-11.09-14.31-16.62a10.39,10.39,0,0,1-1-1.81Z" transform="translate(-21.36 -160.89)"/><path d="M503.71,845.43c24.36,26,43.89,56.1,69.27,81.21l-.78,1.26c-1.2-.65-2.69-1-3.57-2-7-7.57-14-15.12-20.71-22.93s-13.12-15.83-19.54-23.85c-6.84-8.57-13.52-17.27-20.31-25.88-1.8-2.29-3.72-4.49-5.59-6.73Z" transform="translate(-21.36 -160.89)"/><path d="M565.81,911.65c-3.43-3.92-6.78-7.91-10.31-11.74-9.32-10.12-18.74-20.16-28.07-30.27-4.72-5.12-9.35-10.33-14-15.56-.37-.43-.22-1.32-.31-2,.83.09,1.94-.13,2.42.32a106.33,106.33,0,0,1,7.88,8c4.5,5.27,8.53,11,13.23,16,6.38,6.92,13.1,13.54,19.88,20.07a42.61,42.61,0,0,1,10.08,14.56Z" transform="translate(-21.36 -160.89)"/><path d="M373.46,692.9a86.26,86.26,0,0,1-.89,10.57c-.18.93-2.46,1.45-3.77,2.16-.57-1.27-1.75-2.64-1.59-3.81.56-3.93,2.22-7.34,6.33-8.84Z" transform="translate(-21.36 -160.89)"/></svg>